<svg width="310" height="321" viewBox="0 0 310 321" fill="none" xmlns="http://www.w3.org/2000/svg">
<g clip-path="url(#clip0_199_593)">
<mask id="mask0_199_593" style="mask-type:luminance" maskUnits="userSpaceOnUse" x="65" y="131" width="180" height="111">
<path d="M65.625 131.667H244.625V241.511H65.625V131.667Z" fill="white"/>
</mask>
<g mask="url(#mask0_199_593)">
<path fill-rule="evenodd" clip-rule="evenodd" d="M71.3125 241.031H120.063V167.557C120.063 166.823 120.099 166.089 120.172 165.354C120.245 164.625 120.354 163.896 120.495 163.172C120.641 162.453 120.818 161.74 121.031 161.036C121.245 160.333 121.49 159.641 121.776 158.958C122.057 158.276 122.37 157.615 122.719 156.964C123.063 156.318 123.443 155.688 123.849 155.073C124.26 154.464 124.698 153.87 125.161 153.302C125.63 152.734 126.125 152.188 126.646 151.667C127.167 151.146 127.708 150.651 128.276 150.188C128.849 149.719 129.438 149.281 130.052 148.87C130.661 148.464 131.292 148.083 131.943 147.74C132.589 147.391 133.255 147.078 133.932 146.797C134.615 146.516 135.307 146.266 136.01 146.052C136.714 145.839 137.427 145.661 138.151 145.516C138.87 145.375 139.599 145.266 140.333 145.193C141.063 145.12 141.797 145.083 142.536 145.083H167.536C168.271 145.083 169.005 145.12 169.734 145.193C170.469 145.266 171.198 145.375 171.917 145.516C172.641 145.661 173.354 145.839 174.057 146.052C174.76 146.266 175.453 146.516 176.135 146.797C176.813 147.078 177.479 147.391 178.125 147.74C178.776 148.083 179.406 148.464 180.021 148.87C180.63 149.281 181.224 149.719 181.792 150.188C182.359 150.651 182.906 151.146 183.422 151.667C183.943 152.188 184.438 152.734 184.906 153.302C185.37 153.87 185.807 154.464 186.219 155.073C186.625 155.688 187.005 156.318 187.354 156.964C187.698 157.615 188.016 158.276 188.297 158.958C188.578 159.641 188.823 160.333 189.036 161.036C189.25 161.74 189.427 162.453 189.573 163.172C189.719 163.896 189.823 164.625 189.896 165.354C189.969 166.089 190.005 166.823 190.005 167.557V241.031H244.443V187.021C244.443 185.234 244.354 183.458 244.182 181.682C244.005 179.911 243.745 178.146 243.396 176.401C243.052 174.651 242.615 172.922 242.099 171.219C241.583 169.51 240.984 167.833 240.302 166.188C239.62 164.542 238.854 162.927 238.016 161.359C237.177 159.786 236.26 158.255 235.271 156.776C234.276 155.292 233.219 153.865 232.089 152.484C230.953 151.104 229.76 149.786 228.5 148.526C227.24 147.266 225.917 146.068 224.542 144.938C223.161 143.807 221.729 142.745 220.25 141.755C218.766 140.766 217.24 139.849 215.667 139.01C214.094 138.167 212.484 137.406 210.839 136.724C209.188 136.042 207.516 135.443 205.807 134.927C204.099 134.406 202.375 133.974 200.625 133.625C198.875 133.276 197.115 133.016 195.339 132.844C193.568 132.667 191.786 132.578 190.005 132.578H120.063C118.281 132.578 116.505 132.667 114.729 132.844C112.958 133.016 111.193 133.276 109.448 133.625C107.698 133.974 105.969 134.406 104.266 134.922C102.557 135.443 100.885 136.042 99.2344 136.724C97.5885 137.406 95.9792 138.167 94.4063 139.005C92.8333 139.844 91.3073 140.76 89.8281 141.75C88.3437 142.74 86.9115 143.802 85.5365 144.932C84.1563 146.063 82.8385 147.255 81.5781 148.516C80.3177 149.776 79.1198 151.099 77.9896 152.474C76.8594 153.854 75.7969 155.281 74.8073 156.766C73.8177 158.245 72.901 159.771 72.0625 161.344C71.2187 162.917 70.4583 164.526 69.776 166.172C69.0937 167.818 68.4896 169.495 67.974 171.198C67.4583 172.906 67.0208 174.63 66.6771 176.38C66.3281 178.13 66.0625 179.891 65.8906 181.661C65.7135 183.438 65.625 185.214 65.625 187V241.01L71.3125 241.031Z" fill="#A88856"/>
</g>
<mask id="mask1_199_593" style="mask-type:luminance" maskUnits="userSpaceOnUse" x="65" y="41" width="56" height="104">
<path d="M65.625 41.5105H121V145H65.625V41.5105Z" fill="white"/>
</mask>
<g mask="url(#mask1_199_593)">
<path fill-rule="evenodd" clip-rule="evenodd" d="M71.3125 41.8491H120.063V117.677C117.453 117.672 114.849 117.818 112.255 118.11C109.656 118.406 107.089 118.844 104.542 119.427C101.995 120.011 99.4896 120.735 97.026 121.599C94.5625 122.469 92.1563 123.474 89.8073 124.61C87.4583 125.75 85.1771 127.021 82.974 128.417C80.7656 129.818 78.6458 131.333 76.6094 132.969C74.5781 134.61 72.6406 136.354 70.8021 138.214C68.9688 140.068 67.2396 142.026 65.625 144.078V41.8491H71.3125Z" fill="#DFAF68"/>
</g>
<mask id="mask2_199_593" style="mask-type:luminance" maskUnits="userSpaceOnUse" x="189" y="41" width="56" height="104">
<path d="M189 41.5105H244.625V145H189V41.5105Z" fill="white"/>
</mask>
<g mask="url(#mask2_199_593)">
<path fill-rule="evenodd" clip-rule="evenodd" d="M238.745 41.8491H190V117.677C192.609 117.672 195.214 117.818 197.813 118.11C200.406 118.406 202.979 118.844 205.521 119.427C208.068 120.011 210.573 120.735 213.036 121.599C215.5 122.469 217.906 123.474 220.255 124.61C222.609 125.75 224.885 127.021 227.094 128.417C229.297 129.818 231.422 131.333 233.453 132.969C235.49 134.61 237.422 136.354 239.26 138.214C241.099 140.068 242.823 142.026 244.438 144.078V41.8491H238.745Z" fill="#DFAF68"/>
</g>
<mask id="mask3_199_593" style="mask-type:luminance" maskUnits="userSpaceOnUse" x="119" y="107" width="71" height="26">
<path d="M119.786 107H189.786V133H119.786V107Z" fill="white"/>
</mask>
<g mask="url(#mask3_199_593)">
<path d="M136.276 107C135.031 107.026 133.969 107.536 133.042 108.385C133.042 108.385 132.328 108.641 132.161 108.276C131.833 107.557 131.255 107.167 130.927 107.338C130.292 107.672 130.651 109.776 130.354 109.823C129.896 110.156 129.208 110.38 128.974 111.094C128.776 111.703 127.771 111.536 127.562 111.865C127.672 112.302 128.052 112.094 128.302 112.208C127.677 113.338 126.224 113.573 125.26 114.547C125.01 114.958 125.323 115.375 125.234 115.677C125.073 116.26 124.708 116.641 124.625 117.234C124.5 118.125 124.573 119.052 124.135 119.948C123.771 120.812 123.38 121.656 122.896 122.437C122.396 123.24 121.484 123.766 121.114 124.625C120.812 125.323 120.984 126.281 120.875 128.042C120.797 129.104 120.531 129.349 120.526 130.583C120.51 130.776 120.463 130.953 120.406 131.135C120.349 131.328 120.255 131.495 120.182 131.698C120.078 131.995 120.562 132.328 121.776 132.651C121.937 132.698 122.187 132.797 122.219 132.588C122.234 132.302 121.875 132.12 121.724 131.87C121.63 131.719 121.526 131.573 121.469 131.406C121.333 130.99 121.25 130.547 121.271 130.109C121.318 129 121.781 127.661 122.042 126.88C122.292 126.146 124.031 123.99 125.088 122.594C125.536 122.01 126.042 122.042 126.427 121.729C126.917 121.333 127.333 120.901 127.771 120.484C128.021 120.656 128.364 121.854 128.489 122.562C128.614 123.271 128.526 124.042 128.484 124.734C128.443 125.417 128.245 126.026 128.359 126.797C128.672 127.708 129.573 128.193 130.5 129.609C131.167 130.625 131.542 131.359 131.781 131.812C131.823 131.885 131.854 131.953 131.854 132.031C131.854 132.135 131.766 132.219 131.745 132.333C131.687 132.641 132.213 132.901 133.463 133.042C133.63 133.062 133.891 133.125 133.891 132.911C133.864 132.604 133.443 132.552 133.276 132.245C132.974 131.557 132.547 131.141 132.141 130.615C131.432 129.698 130.906 128.786 130.495 127.646C130.354 127.187 130.208 126.875 130.177 126.083C130.151 125.297 130.375 124.891 130.432 124.437C130.489 123.963 130.474 123.463 130.713 122.807C130.958 122.115 131.62 121.213 131.417 120.312C131.286 119.792 130.984 119.463 130.953 119C130.932 118.698 130.995 118.312 131.13 118.115C131.453 117.708 133.172 118.818 134.177 119.198C135.01 119.417 136.495 119.516 137.641 119.219C137.875 119.135 138.062 119.698 138.557 120.01C139.094 120.354 139.927 120.135 140.812 120.896C140.672 122.245 140.594 123.245 140.25 124.453C140.047 125.146 139.724 125.693 139.724 126.562C139.724 127.167 139.838 127.719 139.797 128.255C139.745 128.984 139.474 129.812 139.422 130.599C139.391 131.01 139.536 131.635 139.469 132.146C139.448 132.323 139.328 132.479 139.323 132.651C139.312 132.963 139.87 133.141 141.125 133.088C141.297 133.083 141.562 133.104 141.531 132.896C141.453 132.599 140.979 132.588 140.823 132.333C140.609 131.995 140.62 131.661 140.568 131.167C140.448 130.193 140.562 129.323 140.734 128.427C140.818 128.01 141.031 127.562 141.172 127.224C141.292 126.927 141.375 126.693 141.437 126.411C141.495 126.12 141.489 125.838 141.526 125.526C141.578 125.047 141.672 124.557 141.828 124.068C142.12 123.349 142.375 122.687 142.88 121.969C143.599 122.63 144.557 123.26 145.203 124.104C145.672 124.724 145.932 125.526 145.844 126.37C145.812 126.635 145.703 126.896 145.422 127.135C144.573 127.901 144 129.25 142.875 129.646C142.651 129.724 142.401 129.557 142.161 129.573C141.849 129.599 141.739 130.177 141.932 131.417C141.958 131.583 141.969 131.849 142.172 131.797C142.463 131.687 142.396 131.266 142.656 131.026C143.5 130.354 143.739 130.682 144.219 130.104C144.708 129.531 145.193 128.948 145.698 128.323C146.13 127.802 146.542 127.281 147.125 126.724C147.333 126.531 147.547 126.344 147.703 126.078C147.802 125.937 147.885 125.802 147.917 125.646C147.995 125.224 147.568 124.984 147.307 124.682C146.948 124.297 146.51 123.792 146.239 123.391C146.161 123.276 144.432 120.479 144.489 120.229C145.26 119.797 145.849 119.161 146.208 118.271C147.229 118.078 148.094 117.969 148.922 118.031C149.156 118.052 149.391 118.115 149.625 118.135C150.031 118.172 150.385 118.047 150.917 117.88C151.771 117.609 152.755 117.172 153.208 116.818C153.338 116.713 156.495 114.047 156.974 113.021C157.114 112.641 157.094 112.24 157.307 111.963C157.474 111.755 157.802 111.713 158.052 111.588C158.864 111.286 158.943 110.401 160.005 109.937C160.088 109.901 160.167 109.885 160.25 109.875C161.062 113.943 162.489 119.344 165.406 123.01C166.917 124.906 168.828 126.338 171.26 126.849C173.323 127.281 175.739 127.052 178.583 125.917C178.588 125.927 178.594 125.937 178.594 125.948C178.682 126.24 178.849 126.562 179.172 126.62C179.453 126.667 179.802 126.828 179.76 127.172C179.739 127.542 179.292 127.484 179.114 127.734C178.875 127.974 179.088 128.396 179.385 128.448C179.656 128.51 179.927 128.411 180.198 128.427C180.448 128.422 180.724 128.391 180.922 128.219C181.203 128.12 181.104 128.432 181.016 128.573C180.864 129.021 180.849 129.521 181.031 129.969C181.12 130.245 181.151 130.536 181.198 130.818C181.172 131.141 181.255 131.49 181.057 131.771C180.901 132.052 180.807 132.385 180.854 132.708C180.88 132.979 181.135 133.115 181.328 133.26C181.557 133.463 181.859 133.443 182.135 133.458C182.443 133.479 182.745 133.505 183.052 133.469C183.391 133.234 182.979 132.885 182.729 132.812C182.51 132.599 182.104 132.5 182.078 132.151C182.104 131.833 182.062 131.516 182.135 131.208C182.193 131.078 182.042 130.62 182.297 130.823C182.474 131.073 182.734 131.245 183.031 131.302C183.432 131.396 183.849 131.344 184.255 131.349C184.614 131.354 184.974 131.328 185.328 131.38C185.594 131.443 185.88 131.573 186.146 131.443C186.344 131.172 186.708 131.401 186.682 131.693C186.703 132.016 186.766 132.323 186.818 132.635C186.885 132.995 187.172 132.953 187.505 132.771C187.823 132.594 188.229 132.568 188.521 132.422C189.026 132.24 189.364 132.062 189.797 131.932C189.943 131.604 189.453 131.573 189.245 131.51C188.844 131.427 188.422 131.599 188.036 131.427C187.698 131.302 187.505 130.969 187.271 130.719C187.073 130.495 187.078 130.182 186.943 129.927C186.838 129.641 186.802 129.333 186.708 129.047C186.646 128.76 186.609 128.469 186.526 128.187C186.458 127.693 186.359 127.208 186.318 126.713C186.37 126.297 186.083 125.963 185.953 125.594C185.786 125.286 185.771 124.927 185.609 124.62C185.437 124.38 185.187 124.177 185.135 123.87C185.068 123.677 184.88 123.37 185.088 123.224C185.391 123.198 185.505 123.547 185.672 123.74C185.859 123.979 186.026 124.318 186.37 124.328C186.667 124.391 187 124.13 186.776 123.828C186.578 123.552 186.37 123.281 186.239 122.958C186.088 122.734 185.87 122.568 185.734 122.333C185.583 122.115 185.531 121.844 185.354 121.641C185.167 121.391 185.078 121.083 185.021 120.781C185 120.354 185.135 119.948 185.203 119.531C185.26 119 185.052 118.479 185.104 117.948C185.109 117.588 185.13 117.224 185.042 116.87C185 116.609 184.958 116.302 185.141 116.083C185.359 115.828 185.812 116.187 185.943 115.844C185.953 115.667 186.016 115.49 186.156 115.406C186.198 115.38 186.281 115.385 186.312 115.359C186.516 115.172 186.323 114.885 186.286 114.672C186.198 114.338 186.505 114.062 186.458 113.74C186.338 113.479 186.073 113.276 185.802 113.198C184.568 112.948 184.047 113.953 184.266 115.031C184.385 115.37 184.161 115.661 183.958 115.906C183.776 116.255 183.354 116.026 183.052 116.073C182.833 116.057 182.641 116.198 182.547 116.391C182.38 116.734 182.208 117.078 181.989 117.391C181.771 117.734 181.505 118.052 181.312 118.411C181.182 118.734 181.146 119.083 181.083 119.427C181.042 119.88 181.057 120.344 180.989 120.797C180.932 121.187 181.094 121.557 181.099 121.943C180.969 122.219 180.786 122.49 180.802 122.812C180.708 123.219 180.516 123.588 180.354 123.969C180.255 124.193 180.083 124.375 179.87 124.49C179.547 124.734 179.224 124.979 178.922 125.25C178.844 125.338 178.739 125.437 178.667 125.542C175.781 126.734 173.364 126.969 171.328 126.542C168.979 126.047 167.13 124.667 165.651 122.812C162.812 119.24 161.38 113.901 160.568 109.854C160.739 109.849 160.906 109.828 161.036 109.724C161.203 109.594 161.354 109.422 161.338 109.167C161.333 108.745 160.812 108.083 160.302 107.896C160.036 107.797 159.547 107.906 159.219 107.927C158.724 107.958 158.286 108.021 157.859 108.167C157.292 108.01 156.802 107.656 156.052 107.99C156.052 107.99 155.526 107.437 155.266 107.578C155.104 107.667 155.062 108.49 155.062 108.495C154.838 108.734 154.588 108.937 154.364 109.385C154.141 109.87 153.984 110.156 153.734 110.474C153.526 110.734 153.432 111.036 153.271 111.312C152.849 112.026 152.276 112.526 151.958 113.427C151.51 114.13 151.094 114.182 150.588 114.255C149.437 114.391 148.437 113.984 147.479 113.458C146.307 112.948 145.229 112.338 144.167 111.234C143.948 110.911 144.458 110.531 144.333 110.099C144.198 109.682 143.755 109.693 143.427 109.37C142.937 108.885 143.016 107.943 142.286 107.672C141.713 107.49 141.505 109.073 141.094 108.661C139.661 107.187 138.161 107.073 136.818 107.021C136.635 107 136.453 106.995 136.276 107ZM181.599 124.526C181.385 124.797 181.667 125.125 181.599 125.427C181.594 125.865 181.583 126.302 181.583 126.74C181.526 127.047 181.198 126.859 181.01 126.901C180.672 126.906 180.333 126.766 180.083 126.547C179.87 126.328 180.068 126.057 180.292 125.953C180.5 125.797 180.734 125.677 180.958 125.542C181.266 125.271 181.286 124.802 181.599 124.526Z" fill="#A88856"/>
</g>
<mask id="mask4_199_593" style="mask-type:luminance" maskUnits="userSpaceOnUse" x="65" y="0" width="30" height="43">
<path d="M65.4583 0.234375H94.3333V42.2344H65.4583V0.234375Z" fill="white"/>
</mask>
<g mask="url(#mask4_199_593)">
<path d="M93.6405 0.234375C92.729 1.92708 91.9894 2.82292 91.1821 3.29688C83.7186 7.67188 78.7811 10.9896 76.2759 13.0938C73.3957 15.5156 71.1717 17.7813 69.5363 19.8542C65.4634 25 66.0675 42.5 66.7863 42.474C67.505 42.4427 87.6196 42.0365 94.0675 41.9271L93.6405 0.234375Z" fill="#DFAF68" fill-opacity="0.996"/>
</g>
<mask id="mask5_199_593" style="mask-type:luminance" maskUnits="userSpaceOnUse" x="93" y="0" width="29" height="43">
<path d="M93 0.234375H121.458V42.2344H93V0.234375Z" fill="white"/>
</mask>
<g mask="url(#mask5_199_593)">
<path d="M93.6405 0.234375C94.5468 1.92708 95.2864 2.82292 96.0937 3.29688C103.562 7.67188 108.5 10.9896 111.005 13.0938C113.885 15.5156 116.104 17.7813 117.74 19.8542C121.812 25 121.213 42.5 120.49 42.474C119.771 42.4427 99.6614 42.0365 93.2083 41.9271L93.6405 0.234375Z" fill="#DFAF68" fill-opacity="0.996"/>
</g>
<mask id="mask6_199_593" style="mask-type:luminance" maskUnits="userSpaceOnUse" x="189" y="1" width="30" height="43">
<path d="M189.01 1.23438H218.333V43.2344H189.01V1.23438Z" fill="white"/>
</mask>
<g mask="url(#mask6_199_593)">
<path d="M217.193 1.23438C216.281 2.92708 215.542 3.82292 214.734 4.29688C207.266 8.67188 202.328 11.9896 199.823 14.0938C196.943 16.5156 194.724 18.7813 193.089 20.8542C189.016 26 189.62 43.5 190.339 43.474C191.057 43.4427 211.167 43.0365 217.62 42.9271L217.193 1.23438Z" fill="#DFAF68" fill-opacity="0.996"/>
</g>
<mask id="mask7_199_593" style="mask-type:luminance" maskUnits="userSpaceOnUse" x="215" y="1" width="30" height="43">
<path d="M215.667 1.23438H245V43.2344H215.667V1.23438Z" fill="white"/>
</mask>
<g mask="url(#mask7_199_593)">
<path d="M217.188 1.23438C218.099 2.92708 218.839 3.82292 219.646 4.29688C227.115 8.67188 232.052 11.9896 234.557 14.0938C237.438 16.5156 239.656 18.7813 241.292 20.8542C245.365 26 244.76 43.5 244.042 43.474C243.323 43.4427 223.214 43.0365 216.76 42.9271L217.188 1.23438Z" fill="#DFAF68" fill-opacity="0.996"/>
</g>
<mask id="mask8_199_593" style="mask-type:luminance" maskUnits="userSpaceOnUse" x="218" y="106" width="21" height="2">
<path d="M218.229 106.333H238.333V107.667H218.229V106.333Z" fill="white"/>
</mask>
<g mask="url(#mask8_199_593)">
<path d="M237.734 106.677H218.432C218.328 106.677 218.276 106.625 218.276 106.521C218.276 106.422 218.328 106.37 218.432 106.37H237.734C237.839 106.37 237.891 106.422 237.891 106.521C237.891 106.625 237.839 106.677 237.734 106.677Z" fill="#DDDCDB"/>
</g>
<path d="M240.969 109.396H222.76C222.656 109.396 222.604 109.344 222.604 109.245C222.604 109.141 222.656 109.089 222.76 109.089H240.969C241.073 109.089 241.125 109.141 241.125 109.245C241.125 109.344 241.073 109.396 240.969 109.396Z" fill="#DDDCDB"/>
<mask id="mask9_199_593" style="mask-type:luminance" maskUnits="userSpaceOnUse" x="226" y="103" width="19" height="2">
<path d="M226.333 103.536H244.229V105H226.333V103.536Z" fill="white"/>
</mask>
<g mask="url(#mask9_199_593)">
<path d="M244.167 103.849H227.422C227.318 103.849 227.266 103.797 227.266 103.693C227.266 103.588 227.318 103.536 227.422 103.536H244.167C244.271 103.536 244.323 103.588 244.323 103.693C244.323 103.797 244.271 103.849 244.167 103.849Z" fill="#DDDCDB"/>
</g>
<path d="M237.88 112.167H219.672C219.568 112.167 219.516 112.12 219.516 112.016C219.516 111.911 219.568 111.859 219.672 111.859H237.88C237.979 111.859 238.031 111.911 238.031 112.016C238.031 112.12 237.979 112.167 237.88 112.167Z" fill="#DDDCDB"/>
<path d="M225.089 109.287C224.984 109.287 224.932 109.234 224.932 109.135V106.521C224.932 106.422 224.984 106.37 225.089 106.37C225.188 106.37 225.24 106.422 225.24 106.521V109.135C225.24 109.234 225.188 109.287 225.089 109.287Z" fill="#DDDCDB"/>
<path d="M232.443 109.287C232.338 109.287 232.286 109.234 232.286 109.135V106.521C232.286 106.422 232.338 106.37 232.443 106.37C232.547 106.37 232.594 106.422 232.594 106.521V109.135C232.594 109.234 232.547 109.287 232.443 109.287Z" fill="#DDDCDB"/>
<mask id="mask10_199_593" style="mask-type:luminance" maskUnits="userSpaceOnUse" x="231" y="111" width="2" height="4">
<path d="M231.667 111.667H233V114.537H231.667V111.667Z" fill="white"/>
</mask>
<g mask="url(#mask10_199_593)">
<path d="M232.432 114.87C232.328 114.87 232.276 114.818 232.276 114.714V112.104C232.276 112 232.328 111.948 232.432 111.948C232.531 111.948 232.583 112 232.583 112.104V114.714C232.583 114.818 232.531 114.87 232.432 114.87Z" fill="#DDDCDB"/>
</g>
<path d="M235.964 106.677C235.859 106.677 235.807 106.625 235.807 106.521V103.911C235.807 103.807 235.859 103.755 235.964 103.755C236.063 103.755 236.115 103.807 236.115 103.911V106.521C236.115 106.625 236.063 106.677 235.964 106.677Z" fill="#DDDCDB"/>
<path d="M228.604 112.115C228.505 112.115 228.453 112.068 228.453 111.964V109.349C228.453 109.25 228.505 109.198 228.604 109.198C228.708 109.198 228.76 109.25 228.76 109.349V111.964C228.76 112.068 228.708 112.115 228.604 112.115Z" fill="#DDDCDB"/>
<path d="M228.604 106.635C228.505 106.635 228.453 106.583 228.453 106.479V103.87C228.453 103.766 228.505 103.714 228.604 103.714C228.708 103.714 228.76 103.766 228.76 103.87V106.479C228.76 106.583 228.708 106.635 228.604 106.635Z" fill="#DDDCDB"/>
<path d="M235.964 112.115C235.859 112.115 235.807 112.068 235.807 111.964V109.349C235.807 109.25 235.859 109.198 235.964 109.198C236.063 109.198 236.115 109.25 236.115 109.349V111.964C236.115 112.068 236.063 112.115 235.964 112.115Z" fill="#DDDCDB"/>
<mask id="mask11_199_593" style="mask-type:luminance" maskUnits="userSpaceOnUse" x="225" y="111" width="2" height="4">
<path d="M225 111.667H226.333V114.537H225V111.667Z" fill="white"/>
</mask>
<g mask="url(#mask11_199_593)">
<path d="M225.203 114.755C225.099 114.755 225.047 114.703 225.047 114.604V111.99C225.047 111.891 225.099 111.839 225.203 111.839C225.302 111.839 225.354 111.891 225.354 111.99V114.604C225.354 114.703 225.302 114.755 225.203 114.755Z" fill="#DDDCDB"/>
</g>
<mask id="mask12_199_593" style="mask-type:luminance" maskUnits="userSpaceOnUse" x="66" y="91" width="21" height="2">
<path d="M66.2812 91.6667H86.3333V93.0001H66.2812V91.6667Z" fill="white"/>
</mask>
<g mask="url(#mask12_199_593)">
<path d="M85.7865 92.4479H66.4844C66.3802 92.4479 66.3281 92.3958 66.3281 92.2969C66.3281 92.1927 66.3802 92.1406 66.4844 92.1406H85.7865C85.8906 92.1406 85.9427 92.1927 85.9427 92.2969C85.9427 92.3958 85.8906 92.4479 85.7865 92.4479Z" fill="#DDDCDB"/>
</g>
<path d="M89.0208 95.1718H70.8125C70.7083 95.1718 70.6562 95.1197 70.6562 95.0155C70.6562 94.9114 70.7083 94.8645 70.8125 94.8645H89.0208C89.125 94.8645 89.1771 94.9114 89.1771 95.0155C89.1771 95.1197 89.125 95.1718 89.0208 95.1718Z" fill="#DDDCDB"/>
<mask id="mask13_199_593" style="mask-type:luminance" maskUnits="userSpaceOnUse" x="74" y="89" width="19" height="2">
<path d="M74.3333 89.3125H92.2812V90.3333H74.3333V89.3125Z" fill="white"/>
</mask>
<g mask="url(#mask13_199_593)">
<path d="M92.2187 89.6198H75.4739C75.3697 89.6198 75.3176 89.5677 75.3176 89.4688C75.3176 89.3646 75.3697 89.3125 75.4739 89.3125H92.2187C92.3228 89.3125 92.3749 89.3646 92.3749 89.4688C92.3749 89.5677 92.3228 89.6198 92.2187 89.6198Z" fill="#DDDCDB"/>
</g>
<path d="M85.9322 97.9428H67.7187C67.6197 97.9428 67.5676 97.8907 67.5676 97.7865C67.5676 97.6876 67.6197 97.6355 67.7187 97.6355H85.9322C86.0312 97.6355 86.0833 97.6876 86.0833 97.7865C86.0833 97.8907 86.0312 97.9428 85.9322 97.9428Z" fill="#DDDCDB"/>
<path d="M73.1406 95.0625C73.0365 95.0625 72.9844 95.0104 72.9844 94.9063V92.2969C72.9844 92.1927 73.0365 92.1406 73.1406 92.1406C73.2396 92.1406 73.2917 92.1927 73.2917 92.2969V94.9063C73.2917 95.0104 73.2396 95.0625 73.1406 95.0625Z" fill="#DDDCDB"/>
<path d="M80.4949 95.0625C80.3907 95.0625 80.3386 95.0104 80.3386 94.9063V92.2969C80.3386 92.1927 80.3907 92.1406 80.4949 92.1406C80.5938 92.1406 80.6459 92.1927 80.6459 92.2969V94.9063C80.6459 95.0104 80.5938 95.0625 80.4949 95.0625Z" fill="#DDDCDB"/>
<mask id="mask14_199_593" style="mask-type:luminance" maskUnits="userSpaceOnUse" x="79" y="97" width="2" height="4">
<path d="M79.6667 97H81.0001V100.313H79.6667V97Z" fill="white"/>
</mask>
<g mask="url(#mask14_199_593)">
<path d="M80.4792 100.641C80.3802 100.641 80.3281 100.588 80.3281 100.49V97.8749C80.3281 97.776 80.3802 97.7239 80.4792 97.7239C80.5833 97.7239 80.6354 97.776 80.6354 97.8749V100.49C80.6354 100.588 80.5833 100.641 80.4792 100.641Z" fill="#DDDCDB"/>
</g>
<mask id="mask15_199_593" style="mask-type:luminance" maskUnits="userSpaceOnUse" x="83" y="89" width="2" height="4">
<path d="M83.6667 89.3125H85.0001V93H83.6667V89.3125Z" fill="white"/>
</mask>
<g mask="url(#mask15_199_593)">
<path d="M84.0104 92.4479C83.9115 92.4479 83.8594 92.3958 83.8594 92.2969V89.6823C83.8594 89.5833 83.9115 89.5312 84.0104 89.5312C84.1146 89.5312 84.1667 89.5833 84.1667 89.6823V92.2969C84.1667 92.3958 84.1146 92.4479 84.0104 92.4479Z" fill="#DDDCDB"/>
</g>
<path d="M76.6562 97.8906C76.552 97.8906 76.5051 97.8385 76.5051 97.7344V95.125C76.5051 95.0208 76.552 94.9688 76.6562 94.9688C76.7603 94.9688 76.8124 95.0208 76.8124 95.125V97.7344C76.8124 97.8385 76.7603 97.8906 76.6562 97.8906Z" fill="#DDDCDB"/>
<mask id="mask16_199_593" style="mask-type:luminance" maskUnits="userSpaceOnUse" x="75" y="89" width="2" height="4">
<path d="M75.6667 89.3125H77.0001V93H75.6667V89.3125Z" fill="white"/>
</mask>
<g mask="url(#mask16_199_593)">
<path d="M76.6564 92.4062C76.5522 92.4062 76.5054 92.3541 76.5054 92.2551V89.6405C76.5054 89.5416 76.5522 89.4895 76.6564 89.4895C76.7606 89.4895 76.8127 89.5416 76.8127 89.6405V92.2551C76.8127 92.3541 76.7606 92.4062 76.6564 92.4062Z" fill="#DDDCDB"/>
</g>
<path d="M84.0104 97.8906C83.9115 97.8906 83.8594 97.8385 83.8594 97.7344V95.125C83.8594 95.0208 83.9115 94.9688 84.0104 94.9688C84.1146 94.9688 84.1667 95.0208 84.1667 95.125V97.7344C84.1667 97.8385 84.1146 97.8906 84.0104 97.8906Z" fill="#DDDCDB"/>
<mask id="mask17_199_593" style="mask-type:luminance" maskUnits="userSpaceOnUse" x="73" y="97" width="2" height="4">
<path d="M73 97H74.3333V100.313H73V97Z" fill="white"/>
</mask>
<g mask="url(#mask17_199_593)">
<path d="M73.2499 100.531C73.151 100.531 73.0989 100.479 73.0989 100.375V97.7656C73.0989 97.6615 73.151 97.6094 73.2499 97.6094C73.3541 97.6094 73.4062 97.6615 73.4062 97.7656V100.375C73.4062 100.479 73.3541 100.531 73.2499 100.531Z" fill="#DDDCDB"/>
</g>
<mask id="mask18_199_593" style="mask-type:luminance" maskUnits="userSpaceOnUse" x="66" y="43" width="21" height="2">
<path d="M66.2812 43.6667H86.3333V45.0001H66.2812V43.6667Z" fill="white"/>
</mask>
<g mask="url(#mask18_199_593)">
<path d="M85.7865 44.6459H66.4844C66.3802 44.6459 66.3281 44.5938 66.3281 44.4949C66.3281 44.3907 66.3802 44.3386 66.4844 44.3386H85.7865C85.8906 44.3386 85.9427 44.3907 85.9427 44.4949C85.9427 44.5938 85.8906 44.6459 85.7865 44.6459Z" fill="#DDDCDB"/>
</g>
<path d="M89.0208 47.3647H70.8125C70.7083 47.3647 70.6562 47.3178 70.6562 47.2136C70.6562 47.1095 70.7083 47.0574 70.8125 47.0574H89.0208C89.125 47.0574 89.1771 47.1095 89.1771 47.2136C89.1771 47.3178 89.125 47.3647 89.0208 47.3647Z" fill="#DDDCDB"/>
<mask id="mask19_199_593" style="mask-type:luminance" maskUnits="userSpaceOnUse" x="74" y="41" width="19" height="2">
<path d="M74.3333 41.5105H92.2812V42.3334H74.3333V41.5105Z" fill="white"/>
</mask>
<g mask="url(#mask19_199_593)">
<path d="M92.2187 41.8178H75.4739C75.3697 41.8178 75.3176 41.7657 75.3176 41.6615C75.3176 41.5626 75.3697 41.5105 75.4739 41.5105H92.2187C92.3228 41.5105 92.3749 41.5626 92.3749 41.6615C92.3749 41.7657 92.3228 41.8178 92.2187 41.8178Z" fill="#DDDCDB"/>
</g>
<path d="M85.9322 50.1405H67.7187C67.6197 50.1405 67.5676 50.0885 67.5676 49.9843C67.5676 49.8801 67.6197 49.8333 67.7187 49.8333H85.9322C86.0312 49.8333 86.0833 49.8801 86.0833 49.9843C86.0833 50.0885 86.0312 50.1405 85.9322 50.1405Z" fill="#DDDCDB"/>
<path d="M73.1406 47.2553C73.0365 47.2553 72.9844 47.2084 72.9844 47.1042V44.4949C72.9844 44.3907 73.0365 44.3386 73.1406 44.3386C73.2396 44.3386 73.2917 44.3907 73.2917 44.4949V47.1042C73.2917 47.2084 73.2396 47.2553 73.1406 47.2553Z" fill="#DDDCDB"/>
<path d="M80.4949 47.2553C80.3907 47.2553 80.3386 47.2084 80.3386 47.1042V44.4949C80.3386 44.3907 80.3907 44.3386 80.4949 44.3386C80.5938 44.3386 80.6459 44.3907 80.6459 44.4949V47.1042C80.6459 47.2084 80.5938 47.2553 80.4949 47.2553Z" fill="#DDDCDB"/>
<mask id="mask20_199_593" style="mask-type:luminance" maskUnits="userSpaceOnUse" x="79" y="49" width="2" height="4">
<path d="M79.6667 49H81.0001V52.5104H79.6667V49Z" fill="white"/>
</mask>
<g mask="url(#mask20_199_593)">
<path d="M80.4792 52.8385C80.3802 52.8385 80.3281 52.7865 80.3281 52.6875V50.0729C80.3281 49.9687 80.3802 49.9219 80.4792 49.9219C80.5833 49.9219 80.6354 49.9687 80.6354 50.0729V52.6875C80.6354 52.7865 80.5833 52.8385 80.4792 52.8385Z" fill="#DDDCDB"/>
</g>
<mask id="mask21_199_593" style="mask-type:luminance" maskUnits="userSpaceOnUse" x="83" y="41" width="2" height="4">
<path d="M83.6667 41.5105H85.0001V45.0001H83.6667V41.5105Z" fill="white"/>
</mask>
<g mask="url(#mask21_199_593)">
<path d="M84.0104 44.6459C83.9115 44.6459 83.8594 44.5938 83.8594 44.4949V41.8803C83.8594 41.7761 83.9115 41.7292 84.0104 41.7292C84.1146 41.7292 84.1667 41.7761 84.1667 41.8803V44.4949C84.1667 44.5938 84.1146 44.6459 84.0104 44.6459Z" fill="#DDDCDB"/>
</g>
<path d="M76.6562 50.0886C76.552 50.0886 76.5051 50.0365 76.5051 49.9324V47.323C76.5051 47.2188 76.552 47.1667 76.6562 47.1667C76.7603 47.1667 76.8124 47.2188 76.8124 47.323V49.9324C76.8124 50.0365 76.7603 50.0886 76.6562 50.0886Z" fill="#DDDCDB"/>
<mask id="mask22_199_593" style="mask-type:luminance" maskUnits="userSpaceOnUse" x="75" y="41" width="2" height="4">
<path d="M75.6667 41.5105H77.0001V45.0001H75.6667V41.5105Z" fill="white"/>
</mask>
<g mask="url(#mask22_199_593)">
<path d="M76.6564 44.6042C76.5522 44.6042 76.5054 44.5522 76.5054 44.448V41.8386C76.5054 41.7345 76.5522 41.6824 76.6564 41.6824C76.7606 41.6824 76.8127 41.7345 76.8127 41.8386V44.448C76.8127 44.5522 76.7606 44.6042 76.6564 44.6042Z" fill="#DDDCDB"/>
</g>
<path d="M84.0104 50.0886C83.9115 50.0886 83.8594 50.0365 83.8594 49.9324V47.323C83.8594 47.2188 83.9115 47.1667 84.0104 47.1667C84.1146 47.1667 84.1667 47.2188 84.1667 47.323V49.9324C84.1667 50.0365 84.1146 50.0886 84.0104 50.0886Z" fill="#DDDCDB"/>
<mask id="mask23_199_593" style="mask-type:luminance" maskUnits="userSpaceOnUse" x="73" y="49" width="2" height="4">
<path d="M73 49H74.3333V52.5104H73V49Z" fill="white"/>
</mask>
<g mask="url(#mask23_199_593)">
<path d="M73.2499 52.7292C73.151 52.7292 73.0989 52.6772 73.0989 52.573V49.9636C73.0989 49.8595 73.151 49.8074 73.2499 49.8074C73.3541 49.8074 73.4062 49.8595 73.4062 49.9636V52.573C73.4062 52.6772 73.3541 52.7292 73.2499 52.7292Z" fill="#DDDCDB"/>
</g>
<path d="M65.5167 286.801V297.843H59.2458V270.343H65.5167V281.301H74.3709V270.343H80.6417V297.843H74.3709V286.801H65.5167Z" fill="#A88856"/>
<path d="M116.814 270.343L127.918 297.843H121.189L119.147 292.343H108.689L106.647 297.843H99.9177L111.022 270.343H116.814ZM117.022 286.843L113.959 278.843H113.897L110.814 286.843H117.022Z" fill="#A88856"/>
<path d="M153.47 270.343V292.343H162.928V297.843H147.199V270.343H153.47Z" fill="#A88856"/>
<path d="M192.85 297.843L181.308 270.343H188.371L195.308 288.405L202.246 270.343H209.308L197.788 297.843H192.85Z" fill="#A88856"/>
<path d="M242.548 270.343L253.652 297.843H246.923L244.881 292.343H234.423L232.381 297.843H225.652L236.756 270.343H242.548ZM242.756 286.843L239.694 278.843H239.631L236.548 286.843H242.756Z" fill="#A88856"/>
<path d="M2.44377 313.634H0.1521C0.1521 313.275 0.1521 312.921 0.1521 312.572C0.1521 312.228 0.1521 311.874 0.1521 311.509H7.0896C7.0896 311.874 7.0896 312.228 7.0896 312.572C7.0896 312.921 7.0896 313.275 7.0896 313.634H4.79793V320.843C4.40731 320.843 4.01147 320.843 3.61043 320.843C3.21981 320.843 2.82918 320.843 2.44377 320.843V313.634Z" fill="#A88856"/>
<path d="M15.9549 317.53L17.7674 320.488V320.843H15.1007L13.4966 318.093H12.2674V320.843C11.8612 320.843 11.4601 320.843 11.0591 320.843C10.6528 320.843 10.257 320.843 9.87158 320.843C9.87158 319.291 9.87158 317.733 9.87158 316.176C9.87158 314.624 9.87158 313.067 9.87158 311.509C10.5487 311.509 11.231 311.509 11.9132 311.509C12.606 311.509 13.2935 311.509 13.9757 311.509C14.5851 311.509 15.1112 311.624 15.5591 311.843C16.0018 312.067 16.3612 312.358 16.6424 312.718C16.9185 313.082 17.1112 313.483 17.2257 313.926C17.3351 314.374 17.356 314.822 17.2882 315.28C17.231 315.728 17.0903 316.15 16.8716 316.551C16.6476 316.942 16.3403 317.27 15.9549 317.53ZM13.9757 315.947C14.2257 315.947 14.4237 315.874 14.5799 315.718C14.7466 315.567 14.856 315.379 14.9132 315.155C14.981 314.921 14.9862 314.692 14.9341 314.468C14.8768 314.233 14.7726 314.041 14.6216 313.884C14.4653 313.718 14.2518 313.634 13.9757 313.634C13.6945 313.634 13.4132 313.634 13.1216 313.634C12.8299 313.634 12.5435 313.634 12.2674 313.634C12.2674 314.025 12.2674 314.416 12.2674 314.801C12.2674 315.192 12.2674 315.572 12.2674 315.947H13.9757Z" fill="#A88856"/>
<path d="M26.4797 320.843L25.938 319.676H22.2505L21.7088 320.843H19.3755V320.488L23.563 311.384H24.6047L28.813 320.488V320.843H26.4797ZM25.1463 317.613L24.0838 315.155L23.0422 317.613H25.1463Z" fill="#A88856"/>
<path d="M32.6567 311.509L34.8442 316.801H34.9067L37.0525 311.509H39.3442V311.863L35.3858 320.947H34.365L30.365 311.863V311.509H32.6567Z" fill="#A88856"/>
<path d="M47.888 311.509C47.888 311.858 47.888 312.212 47.888 312.572C47.888 312.921 47.888 313.275 47.888 313.634C47.4141 313.634 47.0026 313.634 46.6589 313.634C46.3099 313.634 45.9609 313.634 45.6172 313.634C45.2839 313.634 44.888 313.634 44.4297 313.634V314.968H47.5964C47.5964 315.317 47.5964 315.671 47.5964 316.03C47.5964 316.379 47.5964 316.733 47.5964 317.093H44.4297C44.4297 317.358 44.4297 317.629 44.4297 317.905C44.4297 318.171 44.4297 318.442 44.4297 318.718C44.888 318.718 45.2943 318.718 45.6589 318.718C46.0182 318.718 46.3776 318.718 46.7422 318.718C47.1172 318.718 47.5339 318.718 47.9922 318.718C47.9922 319.067 47.9922 319.421 47.9922 319.78C47.9922 320.129 47.9922 320.483 47.9922 320.843C47.2682 320.843 46.5859 320.843 45.9505 320.843C45.3255 320.843 44.7005 320.843 44.0755 320.843C43.4505 320.843 42.7734 320.843 42.0547 320.843C42.0547 319.275 42.0547 317.712 42.0547 316.155C42.0547 314.603 42.0547 313.051 42.0547 311.509C42.7734 311.509 43.4349 311.509 44.0339 311.509C44.6432 311.509 45.2526 311.509 45.8672 311.509C46.4766 311.509 47.1484 311.509 47.888 311.509Z" fill="#A88856"/>
<path d="M53.7807 311.509C53.7807 312.207 53.7807 312.78 53.7807 313.238C53.7807 313.686 53.7807 314.061 53.7807 314.363C53.7807 314.655 53.7807 314.905 53.7807 315.113C53.7807 315.322 53.7807 315.525 53.7807 315.718C53.7807 315.916 53.7807 316.134 53.7807 316.384C53.7807 316.624 53.7807 316.926 53.7807 317.301C53.7807 317.666 53.7807 318.129 53.7807 318.697H57.1557C57.1557 319.103 57.1557 319.462 57.1557 319.78C57.1557 320.087 57.1557 320.442 57.1557 320.843C56.1973 320.843 55.2286 320.843 54.2598 320.843C53.2859 320.843 52.3223 320.843 51.364 320.843V311.509C51.7651 311.509 52.1609 311.509 52.5515 311.509C52.9526 311.509 53.364 311.509 53.7807 311.509Z" fill="#A88856"/>
<path d="M69.7729 311.655C69.95 311.655 70.1167 311.655 70.2729 311.655C70.424 311.655 70.5907 311.655 70.7729 311.655L72.3563 316.613H72.3979L72.8146 315.03L74.0021 311.509H76.3771V311.863L73.1479 320.926H71.7729L70.2729 316.447H70.2313L68.7313 320.926H67.4188L64.1479 311.863V311.509H66.5438L67.7521 315.03L68.1688 316.613H68.2104L69.7729 311.655Z" fill="#A88856"/>
<path d="M81.8796 318.759H83.0671C83.0671 319.15 83.0671 319.499 83.0671 319.801C83.0671 320.093 83.0671 320.442 83.0671 320.843C82.2754 320.843 81.4837 320.843 80.6921 320.843C79.9108 320.843 79.1296 320.843 78.3379 320.843C78.3379 320.442 78.3379 320.093 78.3379 319.801C78.3379 319.499 78.3379 319.15 78.3379 318.759H79.5254V313.593H78.4212C78.4212 313.192 78.4212 312.843 78.4212 312.551C78.4212 312.249 78.4212 311.9 78.4212 311.509C79.1816 311.509 79.9421 311.509 80.6921 311.509C81.4525 311.509 82.2181 311.509 82.9837 311.509C82.9837 311.9 82.9837 312.249 82.9837 312.551C82.9837 312.843 82.9837 313.192 82.9837 313.593H81.8796V318.759Z" fill="#A88856"/>
<path d="M87.3349 313.634H85.0432C85.0432 313.275 85.0432 312.921 85.0432 312.572C85.0432 312.228 85.0432 311.874 85.0432 311.509H91.9807C91.9807 311.874 91.9807 312.228 91.9807 312.572C91.9807 312.921 91.9807 313.275 91.9807 313.634H89.689V320.843C89.2984 320.843 88.9026 320.843 88.5015 320.843C88.1109 320.843 87.7203 320.843 87.3349 320.843V313.634Z" fill="#A88856"/>
<path d="M102.554 311.509V320.843C102.148 320.843 101.742 320.843 101.325 320.843C100.919 320.843 100.518 320.843 100.117 320.843V317.093H97.2419V320.843C96.8253 320.843 96.4086 320.843 95.9919 320.843C95.5857 320.843 95.1899 320.843 94.8044 320.843V311.509C95.1899 311.509 95.5857 311.509 95.9919 311.509C96.4086 311.509 96.8253 311.509 97.2419 311.509V314.905H100.117V311.509C100.518 311.509 100.919 311.509 101.325 311.509C101.742 311.509 102.148 311.509 102.554 311.509Z" fill="#A88856"/>
<path d="M112.646 313.634H110.355C110.355 313.275 110.355 312.921 110.355 312.572C110.355 312.228 110.355 311.874 110.355 311.509H117.292C117.292 311.874 117.292 312.228 117.292 312.572C117.292 312.921 117.292 313.275 117.292 313.634H115.001V320.843C114.61 320.843 114.214 320.843 113.813 320.843C113.422 320.843 113.032 320.843 112.646 320.843V313.634Z" fill="#A88856"/>
<path d="M127.866 311.509V320.843C127.46 320.843 127.053 320.843 126.637 320.843C126.231 320.843 125.83 320.843 125.428 320.843V317.093H122.553V320.843C122.137 320.843 121.72 320.843 121.303 320.843C120.897 320.843 120.501 320.843 120.116 320.843V311.509C120.501 311.509 120.897 311.509 121.303 311.509C121.72 311.509 122.137 311.509 122.553 311.509V314.905H125.428V311.509C125.83 311.509 126.231 311.509 126.637 311.509C127.053 311.509 127.46 311.509 127.866 311.509Z" fill="#A88856"/>
<path d="M137.418 311.509C137.418 311.858 137.418 312.212 137.418 312.572C137.418 312.921 137.418 313.275 137.418 313.634C136.944 313.634 136.532 313.634 136.189 313.634C135.84 313.634 135.491 313.634 135.147 313.634C134.814 313.634 134.418 313.634 133.959 313.634V314.968H137.126C137.126 315.317 137.126 315.671 137.126 316.03C137.126 316.379 137.126 316.733 137.126 317.093H133.959C133.959 317.358 133.959 317.629 133.959 317.905C133.959 318.171 133.959 318.442 133.959 318.718C134.418 318.718 134.824 318.718 135.189 318.718C135.548 318.718 135.907 318.718 136.272 318.718C136.647 318.718 137.064 318.718 137.522 318.718C137.522 319.067 137.522 319.421 137.522 319.78C137.522 320.129 137.522 320.483 137.522 320.843C136.798 320.843 136.116 320.843 135.48 320.843C134.855 320.843 134.23 320.843 133.605 320.843C132.98 320.843 132.303 320.843 131.584 320.843C131.584 319.275 131.584 317.712 131.584 316.155C131.584 314.603 131.584 313.051 131.584 311.509C132.303 311.509 132.965 311.509 133.564 311.509C134.173 311.509 134.782 311.509 135.397 311.509C136.006 311.509 136.678 311.509 137.418 311.509Z" fill="#A88856"/>
<path d="M151.33 317.822H148.33V320.843C147.939 320.843 147.538 320.843 147.121 320.843C146.715 320.843 146.314 320.843 145.913 320.843V311.509C146.856 311.509 147.819 311.509 148.809 311.509C149.809 311.509 150.778 311.509 151.726 311.509C151.726 311.9 151.726 312.254 151.726 312.572C151.726 312.895 151.726 313.249 151.726 313.634H148.33V315.676H151.33C151.33 316.082 151.33 316.436 151.33 316.738C151.33 317.046 151.33 317.405 151.33 317.822Z" fill="#A88856"/>
<path d="M157.293 311.509C157.293 312.207 157.293 312.78 157.293 313.238C157.293 313.686 157.293 314.061 157.293 314.363C157.293 314.655 157.293 314.905 157.293 315.113C157.293 315.322 157.293 315.525 157.293 315.718C157.293 315.916 157.293 316.134 157.293 316.384C157.293 316.624 157.293 316.926 157.293 317.301C157.293 317.666 157.293 318.129 157.293 318.697H160.668C160.668 319.103 160.668 319.462 160.668 319.78C160.668 320.087 160.668 320.442 160.668 320.843C159.709 320.843 158.741 320.843 157.772 320.843C156.798 320.843 155.834 320.843 154.876 320.843V311.509C155.277 311.509 155.673 311.509 156.063 311.509C156.465 311.509 156.876 311.509 157.293 311.509Z" fill="#A88856"/>
<path d="M169.578 320.843L169.036 319.676H165.349L164.807 320.843H162.474V320.488L166.661 311.384H167.703L171.911 320.488V320.843H169.578ZM168.245 317.613L167.182 315.155L166.141 317.613H168.245Z" fill="#A88856"/>
<path d="M175.755 311.509L177.943 316.801H178.005L180.151 311.509H182.443V311.863L178.484 320.947H177.464L173.464 311.863V311.509H175.755Z" fill="#A88856"/>
<path d="M194.153 316.197C194.153 317.004 194.013 317.712 193.736 318.322C193.471 318.921 193.111 319.421 192.653 319.822C192.205 320.228 191.7 320.53 191.132 320.738C190.559 320.947 189.971 321.051 189.361 321.051C188.763 321.051 188.179 320.947 187.611 320.738C187.039 320.53 186.528 320.228 186.07 319.822C185.611 319.421 185.242 318.921 184.966 318.322C184.7 317.712 184.57 317.004 184.57 316.197C184.57 315.379 184.7 314.671 184.966 314.072C185.242 313.462 185.611 312.957 186.07 312.551C186.528 312.15 187.039 311.853 187.611 311.655C188.179 311.447 188.763 311.343 189.361 311.343C189.971 311.343 190.559 311.447 191.132 311.655C191.7 311.853 192.205 312.15 192.653 312.551C193.111 312.957 193.471 313.462 193.736 314.072C194.013 314.671 194.153 315.379 194.153 316.197ZM187.028 316.197C187.028 316.754 187.138 317.218 187.361 317.593C187.596 317.968 187.888 318.254 188.236 318.447C188.596 318.629 188.971 318.718 189.361 318.718C189.763 318.718 190.138 318.629 190.486 318.447C190.846 318.254 191.138 317.968 191.361 317.593C191.596 317.218 191.716 316.754 191.716 316.197C191.716 315.629 191.596 315.165 191.361 314.801C191.138 314.426 190.846 314.15 190.486 313.968C190.138 313.775 189.763 313.676 189.361 313.676C188.971 313.676 188.596 313.775 188.236 313.968C187.888 314.15 187.596 314.426 187.361 314.801C187.138 315.165 187.028 315.629 187.028 316.197Z" fill="#A88856"/>
<path d="M203.345 317.53L205.157 320.488V320.843H202.491L200.886 318.093H199.657V320.843C199.251 320.843 198.85 320.843 198.449 320.843C198.043 320.843 197.647 320.843 197.261 320.843C197.261 319.291 197.261 317.733 197.261 316.176C197.261 314.624 197.261 313.067 197.261 311.509C197.939 311.509 198.621 311.509 199.303 311.509C199.996 311.509 200.683 311.509 201.366 311.509C201.975 311.509 202.501 311.624 202.949 311.843C203.392 312.067 203.751 312.358 204.032 312.718C204.308 313.082 204.501 313.483 204.616 313.926C204.725 314.374 204.746 314.822 204.678 315.28C204.621 315.728 204.48 316.15 204.261 316.551C204.038 316.942 203.73 317.27 203.345 317.53ZM201.366 315.947C201.616 315.947 201.814 315.874 201.97 315.718C202.136 315.567 202.246 315.379 202.303 315.155C202.371 314.921 202.376 314.692 202.324 314.468C202.267 314.233 202.163 314.041 202.011 313.884C201.855 313.718 201.642 313.634 201.366 313.634C201.084 313.634 200.803 313.634 200.511 313.634C200.22 313.634 199.933 313.634 199.657 313.634C199.657 314.025 199.657 314.416 199.657 314.801C199.657 315.192 199.657 315.572 199.657 315.947H201.366Z" fill="#A88856"/>
<path d="M221.931 316.197C221.931 317.004 221.79 317.712 221.514 318.322C221.248 318.921 220.889 319.421 220.431 319.822C219.983 320.228 219.477 320.53 218.91 320.738C218.337 320.947 217.748 321.051 217.139 321.051C216.54 321.051 215.957 320.947 215.389 320.738C214.816 320.53 214.306 320.228 213.847 319.822C213.389 319.421 213.019 318.921 212.743 318.322C212.477 317.712 212.347 317.004 212.347 316.197C212.347 315.379 212.477 314.671 212.743 314.072C213.019 313.462 213.389 312.957 213.847 312.551C214.306 312.15 214.816 311.853 215.389 311.655C215.957 311.447 216.54 311.343 217.139 311.343C217.748 311.343 218.337 311.447 218.91 311.655C219.477 311.853 219.983 312.15 220.431 312.551C220.889 312.957 221.248 313.462 221.514 314.072C221.79 314.671 221.931 315.379 221.931 316.197ZM214.806 316.197C214.806 316.754 214.915 317.218 215.139 317.593C215.373 317.968 215.665 318.254 216.014 318.447C216.373 318.629 216.748 318.718 217.139 318.718C217.54 318.718 217.915 318.629 218.264 318.447C218.623 318.254 218.915 317.968 219.139 317.593C219.373 317.218 219.493 316.754 219.493 316.197C219.493 315.629 219.373 315.165 219.139 314.801C218.915 314.426 218.623 314.15 218.264 313.968C217.915 313.775 217.54 313.676 217.139 313.676C216.748 313.676 216.373 313.775 216.014 313.968C215.665 314.15 215.373 314.426 215.139 314.801C214.915 315.165 214.806 315.629 214.806 316.197Z" fill="#A88856"/>
<path d="M230.476 317.822H227.476V320.843C227.086 320.843 226.685 320.843 226.268 320.843C225.862 320.843 225.461 320.843 225.06 320.843V311.509C226.002 311.509 226.966 311.509 227.955 311.509C228.955 311.509 229.924 311.509 230.872 311.509C230.872 311.9 230.872 312.254 230.872 312.572C230.872 312.895 230.872 313.249 230.872 313.634H227.476V315.676H230.476C230.476 316.082 230.476 316.436 230.476 316.738C230.476 317.046 230.476 317.405 230.476 317.822Z" fill="#A88856"/>
<path d="M240.417 313.634H238.125C238.125 313.275 238.125 312.921 238.125 312.572C238.125 312.228 238.125 311.874 238.125 311.509H245.063C245.063 311.874 245.063 312.228 245.063 312.572C245.063 312.921 245.063 313.275 245.063 313.634H242.771V320.843C242.38 320.843 241.984 320.843 241.583 320.843C241.193 320.843 240.802 320.843 240.417 320.843V313.634Z" fill="#A88856"/>
<path d="M255.636 311.509V320.843C255.23 320.843 254.824 320.843 254.407 320.843C254.001 320.843 253.6 320.843 253.199 320.843V317.093H250.324V320.843C249.907 320.843 249.49 320.843 249.074 320.843C248.667 320.843 248.272 320.843 247.886 320.843V311.509C248.272 311.509 248.667 311.509 249.074 311.509C249.49 311.509 249.907 311.509 250.324 311.509V314.905H253.199V311.509C253.6 311.509 254.001 311.509 254.407 311.509C254.824 311.509 255.23 311.509 255.636 311.509Z" fill="#A88856"/>
<path d="M265.188 311.509C265.188 311.858 265.188 312.212 265.188 312.572C265.188 312.921 265.188 313.275 265.188 313.634C264.714 313.634 264.303 313.634 263.959 313.634C263.61 313.634 263.261 313.634 262.917 313.634C262.584 313.634 262.188 313.634 261.73 313.634V314.968H264.896C264.896 315.317 264.896 315.671 264.896 316.03C264.896 316.379 264.896 316.733 264.896 317.093H261.73C261.73 317.358 261.73 317.629 261.73 317.905C261.73 318.171 261.73 318.442 261.73 318.718C262.188 318.718 262.594 318.718 262.959 318.718C263.318 318.718 263.678 318.718 264.042 318.718C264.417 318.718 264.834 318.718 265.292 318.718C265.292 319.067 265.292 319.421 265.292 319.78C265.292 320.129 265.292 320.483 265.292 320.843C264.568 320.843 263.886 320.843 263.251 320.843C262.626 320.843 262.001 320.843 261.376 320.843C260.751 320.843 260.073 320.843 259.355 320.843C259.355 319.275 259.355 317.712 259.355 316.155C259.355 314.603 259.355 313.051 259.355 311.509C260.073 311.509 260.735 311.509 261.334 311.509C261.943 311.509 262.553 311.509 263.167 311.509C263.777 311.509 264.448 311.509 265.188 311.509Z" fill="#A88856"/>
<path d="M279.517 311.509C279.517 311.858 279.517 312.212 279.517 312.572C279.517 312.921 279.517 313.275 279.517 313.634C279.043 313.634 278.632 313.634 278.288 313.634C277.939 313.634 277.59 313.634 277.246 313.634C276.913 313.634 276.517 313.634 276.059 313.634V314.968H279.225C279.225 315.317 279.225 315.671 279.225 316.03C279.225 316.379 279.225 316.733 279.225 317.093H276.059C276.059 317.358 276.059 317.629 276.059 317.905C276.059 318.171 276.059 318.442 276.059 318.718C276.517 318.718 276.923 318.718 277.288 318.718C277.647 318.718 278.007 318.718 278.371 318.718C278.746 318.718 279.163 318.718 279.621 318.718C279.621 319.067 279.621 319.421 279.621 319.78C279.621 320.129 279.621 320.483 279.621 320.843C278.897 320.843 278.215 320.843 277.579 320.843C276.954 320.843 276.329 320.843 275.704 320.843C275.079 320.843 274.402 320.843 273.684 320.843C273.684 319.275 273.684 317.712 273.684 316.155C273.684 314.603 273.684 313.051 273.684 311.509C274.402 311.509 275.064 311.509 275.663 311.509C276.272 311.509 276.882 311.509 277.496 311.509C278.105 311.509 278.777 311.509 279.517 311.509Z" fill="#A88856"/>
<path d="M288.951 320.843L288.409 319.676H284.722L284.18 320.843H281.847V320.488L286.034 311.384H287.076L291.284 320.488V320.843H288.951ZM287.618 317.613L286.555 315.155L285.514 317.613H287.618Z" fill="#A88856"/>
<path d="M295.482 317.989C295.482 318.228 295.576 318.416 295.774 318.551C295.967 318.692 296.212 318.791 296.503 318.843C296.805 318.884 297.097 318.884 297.378 318.843C297.67 318.801 297.91 318.718 298.107 318.593C298.3 318.457 298.399 318.275 298.399 318.051C298.399 317.832 298.321 317.671 298.17 317.572C298.014 317.462 297.805 317.384 297.545 317.343C297.295 317.291 297.014 317.254 296.712 317.239C296.029 317.186 295.43 317.067 294.92 316.884C294.42 316.692 294.029 316.395 293.753 315.989C293.472 315.587 293.326 315.051 293.316 314.384C293.3 313.801 293.42 313.311 293.67 312.905C293.93 312.489 294.274 312.155 294.691 311.905C295.118 311.655 295.587 311.499 296.087 311.426C296.597 311.343 297.113 311.343 297.628 311.426C298.139 311.499 298.607 311.655 299.024 311.905C299.451 312.155 299.795 312.489 300.045 312.905C300.305 313.311 300.441 313.801 300.441 314.384C300.024 314.384 299.639 314.384 299.295 314.384C298.946 314.384 298.571 314.384 298.17 314.384C298.17 314.134 298.087 313.942 297.92 313.801C297.753 313.65 297.535 313.551 297.274 313.509C297.024 313.468 296.774 313.478 296.524 313.53C296.274 313.572 296.055 313.666 295.878 313.801C295.696 313.942 295.597 314.124 295.587 314.343C295.571 314.582 295.628 314.77 295.753 314.905C295.889 315.03 296.071 315.124 296.295 315.176C296.529 315.218 296.785 315.259 297.066 315.301C297.524 315.358 297.967 315.426 298.399 315.509C298.842 315.582 299.238 315.707 299.587 315.884C299.93 316.067 300.212 316.332 300.42 316.676C300.628 317.025 300.732 317.489 300.732 318.072C300.732 318.629 300.592 319.108 300.316 319.509C300.035 319.916 299.675 320.239 299.232 320.489C298.785 320.739 298.285 320.895 297.732 320.968C297.191 321.051 296.649 321.051 296.107 320.968C295.576 320.895 295.092 320.739 294.649 320.489C294.201 320.239 293.842 319.905 293.566 319.489C293.3 319.072 293.175 318.572 293.191 317.989C293.576 317.989 293.951 317.989 294.316 317.989C294.691 317.989 295.076 317.989 295.482 317.989Z" fill="#A88856"/>
<path d="M305.182 313.634H302.89C302.89 313.275 302.89 312.921 302.89 312.572C302.89 312.228 302.89 311.874 302.89 311.509H309.827C309.827 311.874 309.827 312.228 309.827 312.572C309.827 312.921 309.827 313.275 309.827 313.634H307.536V320.843C307.145 320.843 306.749 320.843 306.348 320.843C305.958 320.843 305.567 320.843 305.182 320.843V313.634Z" fill="#A88856"/>
<mask id="mask24_199_593" style="mask-type:luminance" maskUnits="userSpaceOnUse" x="85" y="43" width="20" height="2">
<path d="M85.2083 43.6667H105V45.0001H85.2083V43.6667Z" fill="white"/>
</mask>
<g mask="url(#mask24_199_593)">
<path d="M104.713 44.6459H85.4062C85.3072 44.6459 85.2551 44.5938 85.2551 44.4949C85.2551 44.3907 85.3072 44.3386 85.4062 44.3386H104.713C104.818 44.3386 104.87 44.3907 104.87 44.4949C104.87 44.5938 104.818 44.6459 104.713 44.6459Z" fill="#DDDCDB"/>
</g>
<path d="M107.948 47.3647H89.7395C89.6353 47.3647 89.5833 47.3178 89.5833 47.2136C89.5833 47.1095 89.6353 47.0574 89.7395 47.0574H107.948C108.052 47.0574 108.104 47.1095 108.104 47.2136C108.104 47.3178 108.052 47.3647 107.948 47.3647Z" fill="#DDDCDB"/>
<mask id="mask25_199_593" style="mask-type:luminance" maskUnits="userSpaceOnUse" x="93" y="41" width="19" height="2">
<path d="M93 41.5105H111.208V42.3334H93V41.5105Z" fill="white"/>
</mask>
<g mask="url(#mask25_199_593)">
<path d="M111.146 41.8178H94.4011C94.297 41.8178 94.2449 41.7657 94.2449 41.6615C94.2449 41.5626 94.297 41.5105 94.4011 41.5105H111.146C111.25 41.5105 111.302 41.5626 111.302 41.6615C111.302 41.7657 111.25 41.8178 111.146 41.8178Z" fill="#DDDCDB"/>
</g>
<path d="M104.859 50.1405H86.6459C86.547 50.1405 86.4949 50.0885 86.4949 49.9843C86.4949 49.8801 86.547 49.8333 86.6459 49.8333H104.859C104.958 49.8333 105.01 49.8801 105.01 49.9843C105.01 50.0885 104.958 50.1405 104.859 50.1405Z" fill="#DDDCDB"/>
<path d="M92.0624 47.2553C91.9635 47.2553 91.9114 47.2084 91.9114 47.1042V44.4949C91.9114 44.3907 91.9635 44.3386 92.0624 44.3386C92.1666 44.3386 92.2187 44.3907 92.2187 44.4949V47.1042C92.2187 47.2084 92.1666 47.2553 92.0624 47.2553Z" fill="#DDDCDB"/>
<path d="M99.4219 47.2553C99.3177 47.2553 99.2656 47.2084 99.2656 47.1042V44.4949C99.2656 44.3907 99.3177 44.3386 99.4219 44.3386C99.5208 44.3386 99.5729 44.3907 99.5729 44.4949V47.1042C99.5729 47.2084 99.5208 47.2553 99.4219 47.2553Z" fill="#DDDCDB"/>
<mask id="mask26_199_593" style="mask-type:luminance" maskUnits="userSpaceOnUse" x="98" y="49" width="2" height="4">
<path d="M98.3333 49H99.6666V52.5104H98.3333V49Z" fill="white"/>
</mask>
<g mask="url(#mask26_199_593)">
<path d="M99.4062 52.8385C99.3072 52.8385 99.2551 52.7865 99.2551 52.6875V50.0729C99.2551 49.9687 99.3072 49.9219 99.4062 49.9219C99.5103 49.9219 99.5624 49.9687 99.5624 50.0729V52.6875C99.5624 52.7865 99.5103 52.8385 99.4062 52.8385Z" fill="#DDDCDB"/>
</g>
<mask id="mask27_199_593" style="mask-type:luminance" maskUnits="userSpaceOnUse" x="102" y="41" width="2" height="4">
<path d="M102.333 41.5105H103.667V45.0001H102.333V41.5105Z" fill="white"/>
</mask>
<g mask="url(#mask27_199_593)">
<path d="M102.937 44.6459C102.838 44.6459 102.786 44.5938 102.786 44.4949V41.8803C102.786 41.7761 102.838 41.7292 102.937 41.7292C103.042 41.7292 103.094 41.7761 103.094 41.8803V44.4949C103.094 44.5938 103.042 44.6459 102.937 44.6459Z" fill="#DDDCDB"/>
</g>
<path d="M95.5834 50.0886C95.4792 50.0886 95.4324 50.0365 95.4324 49.9324V47.323C95.4324 47.2188 95.4792 47.1667 95.5834 47.1667C95.6876 47.1667 95.7397 47.2188 95.7397 47.323V49.9324C95.7397 50.0365 95.6876 50.0886 95.5834 50.0886Z" fill="#DDDCDB"/>
<mask id="mask28_199_593" style="mask-type:luminance" maskUnits="userSpaceOnUse" x="94" y="41" width="3" height="4">
<path d="M94.3333 41.5105H96.9999V45.0001H94.3333V41.5105Z" fill="white"/>
</mask>
<g mask="url(#mask28_199_593)">
<path d="M95.5832 44.6042C95.479 44.6042 95.4321 44.5522 95.4321 44.448V41.8386C95.4321 41.7345 95.479 41.6824 95.5832 41.6824C95.6873 41.6824 95.7394 41.7345 95.7394 41.8386V44.448C95.7394 44.5522 95.6873 44.6042 95.5832 44.6042Z" fill="#DDDCDB"/>
</g>
<path d="M102.937 50.0886C102.838 50.0886 102.786 50.0365 102.786 49.9324V47.323C102.786 47.2188 102.838 47.1667 102.937 47.1667C103.042 47.1667 103.094 47.2188 103.094 47.323V49.9324C103.094 50.0365 103.042 50.0886 102.937 50.0886Z" fill="#DDDCDB"/>
<mask id="mask29_199_593" style="mask-type:luminance" maskUnits="userSpaceOnUse" x="91" y="49" width="2" height="4">
<path d="M91.6667 49H93.0001V52.5104H91.6667V49Z" fill="white"/>
</mask>
<g mask="url(#mask29_199_593)">
<path d="M92.1772 52.7292C92.0782 52.7292 92.0261 52.6772 92.0261 52.573V49.9636C92.0261 49.8595 92.0782 49.8074 92.1772 49.8074C92.2813 49.8074 92.3334 49.8595 92.3334 49.9636V52.573C92.3334 52.6772 92.2813 52.7292 92.1772 52.7292Z" fill="#DDDCDB"/>
</g>
<mask id="mask30_199_593" style="mask-type:luminance" maskUnits="userSpaceOnUse" x="93" y="75" width="22" height="2">
<path d="M93.6406 75.6667H114.333V77.0001H93.6406V75.6667Z" fill="white"/>
</mask>
<g mask="url(#mask30_199_593)">
<path d="M113.151 76.6459H93.8437C93.7395 76.6459 93.6926 76.5938 93.6926 76.4949C93.6926 76.3907 93.7395 76.3386 93.8437 76.3386H113.151C113.25 76.3386 113.302 76.3907 113.302 76.4949C113.302 76.5938 113.25 76.6459 113.151 76.6459Z" fill="#DDDCDB"/>
</g>
<path d="M116.385 79.3647H98.1718C98.0728 79.3647 98.0208 79.3178 98.0208 79.2136C98.0208 79.1095 98.0728 79.0574 98.1718 79.0574H116.385C116.484 79.0574 116.536 79.1095 116.536 79.2136C116.536 79.3178 116.484 79.3647 116.385 79.3647Z" fill="#DDDCDB"/>
<mask id="mask31_199_593" style="mask-type:luminance" maskUnits="userSpaceOnUse" x="102" y="73" width="18" height="2">
<path d="M102.333 73.5105H119.641V74.3334H102.333V73.5105Z" fill="white"/>
</mask>
<g mask="url(#mask31_199_593)">
<path d="M119.583 73.8178H102.833C102.729 73.8178 102.682 73.7657 102.682 73.6615C102.682 73.5626 102.729 73.5105 102.833 73.5105H119.583C119.682 73.5105 119.734 73.5626 119.734 73.6615C119.734 73.7657 119.682 73.8178 119.583 73.8178Z" fill="#DDDCDB"/>
</g>
<path d="M113.292 82.1405H95.0833C94.9791 82.1405 94.927 82.0885 94.927 81.9843C94.927 81.8801 94.9791 81.8333 95.0833 81.8333H113.292C113.396 81.8333 113.448 81.8801 113.448 81.9843C113.448 82.0885 113.396 82.1405 113.292 82.1405Z" fill="#DDDCDB"/>
<path d="M100.5 79.2605C100.396 79.2605 100.349 79.2084 100.349 79.1042V76.4949C100.349 76.3907 100.396 76.3386 100.5 76.3386C100.604 76.3386 100.656 76.3907 100.656 76.4949V79.1042C100.656 79.2084 100.604 79.2605 100.5 79.2605Z" fill="#DDDCDB"/>
<path d="M107.854 79.2605C107.75 79.2605 107.703 79.2084 107.703 79.1042V76.4949C107.703 76.3907 107.75 76.3386 107.854 76.3386C107.958 76.3386 108.01 76.3907 108.01 76.4949V79.1042C108.01 79.2084 107.958 79.2605 107.854 79.2605Z" fill="#DDDCDB"/>
<mask id="mask32_199_593" style="mask-type:luminance" maskUnits="userSpaceOnUse" x="107" y="81" width="2" height="4">
<path d="M107.667 81H109V84.5104H107.667V81Z" fill="white"/>
</mask>
<g mask="url(#mask32_199_593)">
<path d="M107.844 84.8385C107.74 84.8385 107.688 84.7865 107.688 84.6875V82.0729C107.688 81.9687 107.74 81.9219 107.844 81.9219C107.948 81.9219 107.995 81.9687 107.995 82.0729V84.6875C107.995 84.7865 107.948 84.8385 107.844 84.8385Z" fill="#DDDCDB"/>
</g>
<mask id="mask33_199_593" style="mask-type:luminance" maskUnits="userSpaceOnUse" x="110" y="73" width="2" height="4">
<path d="M110.333 73.5105H111.667V77.0001H110.333V73.5105Z" fill="white"/>
</mask>
<g mask="url(#mask33_199_593)">
<path d="M111.375 76.6459C111.271 76.6459 111.219 76.5938 111.219 76.4949V73.8803C111.219 73.7761 111.271 73.7292 111.375 73.7292C111.479 73.7292 111.526 73.7761 111.526 73.8803V76.4949C111.526 76.5938 111.479 76.6459 111.375 76.6459Z" fill="#DDDCDB"/>
</g>
<path d="M104.021 82.0886C103.917 82.0886 103.865 82.0365 103.865 81.9324V79.323C103.865 79.2188 103.917 79.1667 104.021 79.1667C104.12 79.1667 104.172 79.2188 104.172 79.323V81.9324C104.172 82.0365 104.12 82.0886 104.021 82.0886Z" fill="#DDDCDB"/>
<mask id="mask34_199_593" style="mask-type:luminance" maskUnits="userSpaceOnUse" x="103" y="73" width="2" height="4">
<path d="M103.667 73.5105H105V77.0001H103.667V73.5105Z" fill="white"/>
</mask>
<g mask="url(#mask34_199_593)">
<path d="M104.021 76.6042C103.917 76.6042 103.865 76.5522 103.865 76.448V73.8386C103.865 73.7345 103.917 73.6824 104.021 73.6824C104.12 73.6824 104.172 73.7345 104.172 73.8386V76.448C104.172 76.5522 104.12 76.6042 104.021 76.6042Z" fill="#DDDCDB"/>
</g>
<path d="M111.375 82.0886C111.271 82.0886 111.219 82.0365 111.219 81.9324V79.323C111.219 79.2188 111.271 79.1667 111.375 79.1667C111.479 79.1667 111.526 79.2188 111.526 79.323V81.9324C111.526 82.0365 111.479 82.0886 111.375 82.0886Z" fill="#DDDCDB"/>
<mask id="mask35_199_593" style="mask-type:luminance" maskUnits="userSpaceOnUse" x="99" y="81" width="2" height="4">
<path d="M99.6667 81H101V84.5104H99.6667V81Z" fill="white"/>
</mask>
<g mask="url(#mask35_199_593)">
<path d="M100.615 84.7292C100.511 84.7292 100.458 84.6772 100.458 84.573V81.9636C100.458 81.8595 100.511 81.8074 100.615 81.8074C100.719 81.8074 100.766 81.8595 100.766 81.9636V84.573C100.766 84.6772 100.719 84.7292 100.615 84.7292Z" fill="#DDDCDB"/>
</g>
<mask id="mask36_199_593" style="mask-type:luminance" maskUnits="userSpaceOnUse" x="207" y="45" width="21" height="2">
<path d="M207.516 45H227.667V46.3333H207.516V45Z" fill="white"/>
</mask>
<g mask="url(#mask36_199_593)">
<path d="M227.021 45.6459H207.719C207.615 45.6459 207.562 45.5938 207.562 45.4949C207.562 45.3907 207.615 45.3386 207.719 45.3386H227.021C227.125 45.3386 227.177 45.3907 227.177 45.4949C227.177 45.5938 227.125 45.6459 227.021 45.6459Z" fill="#DDDCDB"/>
</g>
<path d="M230.255 48.3647H212.047C211.943 48.3647 211.891 48.3178 211.891 48.2136C211.891 48.1095 211.943 48.0574 212.047 48.0574H230.255C230.359 48.0574 230.411 48.1095 230.411 48.2136C230.411 48.3178 230.359 48.3647 230.255 48.3647Z" fill="#DDDCDB"/>
<mask id="mask37_199_593" style="mask-type:luminance" maskUnits="userSpaceOnUse" x="215" y="42" width="19" height="2">
<path d="M215.667 42.5105H233.516V43.6667H215.667V42.5105Z" fill="white"/>
</mask>
<g mask="url(#mask37_199_593)">
<path d="M233.453 42.8178H216.708C216.604 42.8178 216.552 42.7657 216.552 42.6615C216.552 42.5626 216.604 42.5105 216.708 42.5105H233.453C233.557 42.5105 233.61 42.5626 233.61 42.6615C233.61 42.7657 233.557 42.8178 233.453 42.8178Z" fill="#DDDCDB"/>
</g>
<path d="M227.167 51.1405H208.958C208.854 51.1405 208.802 51.0885 208.802 50.9843C208.802 50.8801 208.854 50.8333 208.958 50.8333H227.167C227.266 50.8333 227.318 50.8801 227.318 50.9843C227.318 51.0885 227.266 51.1405 227.167 51.1405Z" fill="#DDDCDB"/>
<path d="M214.375 48.2553C214.271 48.2553 214.219 48.2084 214.219 48.1042V45.4949C214.219 45.3907 214.271 45.3386 214.375 45.3386C214.474 45.3386 214.526 45.3907 214.526 45.4949V48.1042C214.526 48.2084 214.474 48.2553 214.375 48.2553Z" fill="#DDDCDB"/>
<path d="M221.729 48.2553C221.625 48.2553 221.573 48.2084 221.573 48.1042V45.4949C221.573 45.3907 221.625 45.3386 221.729 45.3386C221.833 45.3386 221.88 45.3907 221.88 45.4949V48.1042C221.88 48.2084 221.833 48.2553 221.729 48.2553Z" fill="#DDDCDB"/>
<mask id="mask38_199_593" style="mask-type:luminance" maskUnits="userSpaceOnUse" x="221" y="50" width="2" height="4">
<path d="M221 50.3333H222.333V53.5103H221V50.3333Z" fill="white"/>
</mask>
<g mask="url(#mask38_199_593)">
<path d="M221.714 53.8385C221.615 53.8385 221.562 53.7865 221.562 53.6875V51.0729C221.562 50.9687 221.615 50.9219 221.714 50.9219C221.818 50.9219 221.87 50.9687 221.87 51.0729V53.6875C221.87 53.7865 221.818 53.8385 221.714 53.8385Z" fill="#DDDCDB"/>
</g>
<mask id="mask39_199_593" style="mask-type:luminance" maskUnits="userSpaceOnUse" x="225" y="42" width="2" height="5">
<path d="M225 42.5105H226.333V46.3334H225V42.5105Z" fill="white"/>
</mask>
<g mask="url(#mask39_199_593)">
<path d="M225.245 45.6459C225.146 45.6459 225.094 45.5938 225.094 45.4949V42.8803C225.094 42.7761 225.146 42.7292 225.245 42.7292C225.349 42.7292 225.401 42.7761 225.401 42.8803V45.4949C225.401 45.5938 225.349 45.6459 225.245 45.6459Z" fill="#DDDCDB"/>
</g>
<path d="M217.891 51.0886C217.792 51.0886 217.74 51.0365 217.74 50.9324V48.323C217.74 48.2188 217.792 48.1667 217.891 48.1667C217.995 48.1667 218.047 48.2188 218.047 48.323V50.9324C218.047 51.0365 217.995 51.0886 217.891 51.0886Z" fill="#DDDCDB"/>
<mask id="mask40_199_593" style="mask-type:luminance" maskUnits="userSpaceOnUse" x="217" y="42" width="2" height="5">
<path d="M217 42.5105H218.333V46.3334H217V42.5105Z" fill="white"/>
</mask>
<g mask="url(#mask40_199_593)">
<path d="M217.891 45.6042C217.792 45.6042 217.74 45.5522 217.74 45.448V42.8386C217.74 42.7345 217.792 42.6824 217.891 42.6824C217.995 42.6824 218.047 42.7345 218.047 42.8386V45.448C218.047 45.5522 217.995 45.6042 217.891 45.6042Z" fill="#DDDCDB"/>
</g>
<path d="M225.245 51.0886C225.146 51.0886 225.094 51.0365 225.094 50.9324V48.323C225.094 48.2188 225.146 48.1667 225.245 48.1667C225.349 48.1667 225.401 48.2188 225.401 48.323V50.9324C225.401 51.0365 225.349 51.0886 225.245 51.0886Z" fill="#DDDCDB"/>
<mask id="mask41_199_593" style="mask-type:luminance" maskUnits="userSpaceOnUse" x="214" y="50" width="2" height="4">
<path d="M214.333 50.3333H215.667V53.5103H214.333V50.3333Z" fill="white"/>
</mask>
<g mask="url(#mask41_199_593)">
<path d="M214.49 53.729C214.385 53.729 214.333 53.6769 214.333 53.5728V50.9634C214.333 50.8592 214.385 50.8071 214.49 50.8071C214.588 50.8071 214.641 50.8592 214.641 50.9634V53.5728C214.641 53.6769 214.588 53.729 214.49 53.729Z" fill="#DDDCDB"/>
</g>
<mask id="mask42_199_593" style="mask-type:luminance" maskUnits="userSpaceOnUse" x="190" y="45" width="21" height="2">
<path d="M190.047 45H210.333V46.3333H190.047V45Z" fill="white"/>
</mask>
<g mask="url(#mask42_199_593)">
<path d="M209.552 45.6459H190.25C190.146 45.6459 190.094 45.5938 190.094 45.4949C190.094 45.3907 190.146 45.3386 190.25 45.3386H209.552C209.656 45.3386 209.708 45.3907 209.708 45.4949C209.708 45.5938 209.656 45.6459 209.552 45.6459Z" fill="#DDDCDB"/>
</g>
<path d="M212.786 48.3647H194.578C194.474 48.3647 194.422 48.3178 194.422 48.2136C194.422 48.1095 194.474 48.0574 194.578 48.0574H212.786C212.891 48.0574 212.943 48.1095 212.943 48.2136C212.943 48.3178 212.891 48.3647 212.786 48.3647Z" fill="#DDDCDB"/>
<mask id="mask43_199_593" style="mask-type:luminance" maskUnits="userSpaceOnUse" x="198" y="42" width="19" height="2">
<path d="M198.333 42.5105H216.047V43.6667H198.333V42.5105Z" fill="white"/>
</mask>
<g mask="url(#mask43_199_593)">
<path d="M215.984 42.8178H199.24C199.135 42.8178 199.083 42.7657 199.083 42.6615C199.083 42.5626 199.135 42.5105 199.24 42.5105H215.984C216.088 42.5105 216.141 42.5626 216.141 42.6615C216.141 42.7657 216.088 42.8178 215.984 42.8178Z" fill="#DDDCDB"/>
</g>
<path d="M209.698 51.1405H191.484C191.385 51.1405 191.333 51.0885 191.333 50.9843C191.333 50.8801 191.385 50.8333 191.484 50.8333H209.698C209.797 50.8333 209.849 50.8801 209.849 50.9843C209.849 51.0885 209.797 51.1405 209.698 51.1405Z" fill="#DDDCDB"/>
<path d="M196.906 48.2553C196.802 48.2553 196.75 48.2084 196.75 48.1042V45.4949C196.75 45.3907 196.802 45.3386 196.906 45.3386C197.005 45.3386 197.057 45.3907 197.057 45.4949V48.1042C197.057 48.2084 197.005 48.2553 196.906 48.2553Z" fill="#DDDCDB"/>
<path d="M204.26 48.2553C204.156 48.2553 204.104 48.2084 204.104 48.1042V45.4949C204.104 45.3907 204.156 45.3386 204.26 45.3386C204.359 45.3386 204.412 45.3907 204.412 45.4949V48.1042C204.412 48.2084 204.359 48.2553 204.26 48.2553Z" fill="#DDDCDB"/>
<mask id="mask44_199_593" style="mask-type:luminance" maskUnits="userSpaceOnUse" x="203" y="50" width="2" height="4">
<path d="M203.667 50.3333H205V53.5103H203.667V50.3333Z" fill="white"/>
</mask>
<g mask="url(#mask44_199_593)">
<path d="M204.245 53.8385C204.146 53.8385 204.094 53.7865 204.094 53.6875V51.0729C204.094 50.9687 204.146 50.9219 204.245 50.9219C204.349 50.9219 204.401 50.9687 204.401 51.0729V53.6875C204.401 53.7865 204.349 53.8385 204.245 53.8385Z" fill="#DDDCDB"/>
</g>
<mask id="mask45_199_593" style="mask-type:luminance" maskUnits="userSpaceOnUse" x="206" y="42" width="3" height="5">
<path d="M206.333 42.5105H209V46.3334H206.333V42.5105Z" fill="white"/>
</mask>
<g mask="url(#mask45_199_593)">
<path d="M207.776 45.6459C207.677 45.6459 207.625 45.5938 207.625 45.4949V42.8803C207.625 42.7761 207.677 42.7292 207.776 42.7292C207.88 42.7292 207.932 42.7761 207.932 42.8803V45.4949C207.932 45.5938 207.88 45.6459 207.776 45.6459Z" fill="#DDDCDB"/>
</g>
<path d="M200.422 51.0886C200.323 51.0886 200.271 51.0365 200.271 50.9324V48.323C200.271 48.2188 200.323 48.1667 200.422 48.1667C200.526 48.1667 200.578 48.2188 200.578 48.323V50.9324C200.578 51.0365 200.526 51.0886 200.422 51.0886Z" fill="#DDDCDB"/>
<mask id="mask46_199_593" style="mask-type:luminance" maskUnits="userSpaceOnUse" x="199" y="42" width="2" height="5">
<path d="M199.667 42.5105H201V46.3334H199.667V42.5105Z" fill="white"/>
</mask>
<g mask="url(#mask46_199_593)">
<path d="M200.422 45.6042C200.323 45.6042 200.271 45.5522 200.271 45.448V42.8386C200.271 42.7345 200.323 42.6824 200.422 42.6824C200.526 42.6824 200.578 42.7345 200.578 42.8386V45.448C200.578 45.5522 200.526 45.6042 200.422 45.6042Z" fill="#DDDCDB"/>
</g>
<path d="M207.776 51.0886C207.677 51.0886 207.625 51.0365 207.625 50.9324V48.323C207.625 48.2188 207.677 48.1667 207.776 48.1667C207.88 48.1667 207.932 48.2188 207.932 48.323V50.9324C207.932 51.0365 207.88 51.0886 207.776 51.0886Z" fill="#DDDCDB"/>
<mask id="mask47_199_593" style="mask-type:luminance" maskUnits="userSpaceOnUse" x="195" y="50" width="4" height="4">
<path d="M195.667 50.3333H198.333V53.5103H195.667V50.3333Z" fill="white"/>
</mask>
<g mask="url(#mask47_199_593)">
<path d="M197.016 53.729C196.917 53.729 196.865 53.6769 196.865 53.5728V50.9634C196.865 50.8592 196.917 50.8071 197.016 50.8071C197.12 50.8071 197.172 50.8592 197.172 50.9634V53.5728C197.172 53.6769 197.12 53.729 197.016 53.729Z" fill="#DDDCDB"/>
</g>
<mask id="mask48_199_593" style="mask-type:luminance" maskUnits="userSpaceOnUse" x="190" y="79" width="21" height="4">
<path d="M190.047 79.6667H210.333V82.3334H190.047V79.6667Z" fill="white"/>
</mask>
<g mask="url(#mask48_199_593)">
<path d="M209.552 81.0781H190.25C190.146 81.0781 190.094 81.026 190.094 80.9219C190.094 80.8177 190.146 80.7656 190.25 80.7656H209.552C209.656 80.7656 209.708 80.8177 209.708 80.9219C209.708 81.026 209.656 81.0781 209.552 81.0781Z" fill="#DDDCDB"/>
</g>
<path d="M212.786 83.7968H194.578C194.474 83.7968 194.422 83.7447 194.422 83.6405C194.422 83.5416 194.474 83.4895 194.578 83.4895H212.786C212.891 83.4895 212.943 83.5416 212.943 83.6405C212.943 83.7447 212.891 83.7968 212.786 83.7968Z" fill="#DDDCDB"/>
<mask id="mask49_199_593" style="mask-type:luminance" maskUnits="userSpaceOnUse" x="198" y="77" width="19" height="2">
<path d="M198.333 77.9375H216.047V78.3333H198.333V77.9375Z" fill="white"/>
</mask>
<g mask="url(#mask49_199_593)">
<path d="M215.984 78.2448H199.24C199.135 78.2448 199.083 78.1979 199.083 78.0938C199.083 77.9896 199.135 77.9375 199.24 77.9375H215.984C216.088 77.9375 216.141 77.9896 216.141 78.0938C216.141 78.1979 216.088 78.2448 215.984 78.2448Z" fill="#DDDCDB"/>
</g>
<path d="M209.698 86.5678H191.484C191.385 86.5678 191.333 86.5157 191.333 86.4167C191.333 86.3126 191.385 86.2605 191.484 86.2605H209.698C209.797 86.2605 209.849 86.3126 209.849 86.4167C209.849 86.5157 209.797 86.5678 209.698 86.5678Z" fill="#DDDCDB"/>
<path d="M196.906 83.6875C196.802 83.6875 196.75 83.6354 196.75 83.5313V80.9219C196.75 80.8177 196.802 80.7656 196.906 80.7656C197.005 80.7656 197.057 80.8177 197.057 80.9219V83.5313C197.057 83.6354 197.005 83.6875 196.906 83.6875Z" fill="#DDDCDB"/>
<path d="M204.26 83.6875C204.156 83.6875 204.104 83.6354 204.104 83.5313V80.9219C204.104 80.8177 204.156 80.7656 204.26 80.7656C204.359 80.7656 204.412 80.8177 204.412 80.9219V83.5313C204.412 83.6354 204.359 83.6875 204.26 83.6875Z" fill="#DDDCDB"/>
<mask id="mask50_199_593" style="mask-type:luminance" maskUnits="userSpaceOnUse" x="203" y="86" width="2" height="3">
<path d="M203.667 86.3333H205V88.9374H203.667V86.3333Z" fill="white"/>
</mask>
<g mask="url(#mask50_199_593)">
<path d="M204.245 89.2708C204.146 89.2708 204.094 89.2187 204.094 89.1145V86.5051C204.094 86.401 204.146 86.3489 204.245 86.3489C204.349 86.3489 204.401 86.401 204.401 86.5051V89.1145C204.401 89.2187 204.349 89.2708 204.245 89.2708Z" fill="#DDDCDB"/>
</g>
<mask id="mask51_199_593" style="mask-type:luminance" maskUnits="userSpaceOnUse" x="206" y="77" width="3" height="6">
<path d="M206.333 77.9375H209V82.3333H206.333V77.9375Z" fill="white"/>
</mask>
<g mask="url(#mask51_199_593)">
<path d="M207.776 81.0781C207.677 81.0781 207.625 81.026 207.625 80.9219V78.3125C207.625 78.2083 207.677 78.1562 207.776 78.1562C207.88 78.1562 207.932 78.2083 207.932 78.3125V80.9219C207.932 81.026 207.88 81.0781 207.776 81.0781Z" fill="#DDDCDB"/>
</g>
<path d="M200.422 86.5155C200.323 86.5155 200.271 86.4635 200.271 86.3645V83.7499C200.271 83.6458 200.323 83.5989 200.422 83.5989C200.526 83.5989 200.578 83.6458 200.578 83.7499V86.3645C200.578 86.4635 200.526 86.5155 200.422 86.5155Z" fill="#DDDCDB"/>
<mask id="mask52_199_593" style="mask-type:luminance" maskUnits="userSpaceOnUse" x="199" y="77" width="2" height="6">
<path d="M199.667 77.9375H201V82.3333H199.667V77.9375Z" fill="white"/>
</mask>
<g mask="url(#mask52_199_593)">
<path d="M200.422 81.0312C200.323 81.0312 200.271 80.9843 200.271 80.8801V78.2708C200.271 78.1666 200.323 78.1145 200.422 78.1145C200.526 78.1145 200.578 78.1666 200.578 78.2708V80.8801C200.578 80.9843 200.526 81.0312 200.422 81.0312Z" fill="#DDDCDB"/>
</g>
<path d="M207.776 86.5155C207.677 86.5155 207.625 86.4635 207.625 86.3645V83.7499C207.625 83.6458 207.677 83.5989 207.776 83.5989C207.88 83.5989 207.932 83.6458 207.932 83.7499V86.3645C207.932 86.4635 207.88 86.5155 207.776 86.5155Z" fill="#DDDCDB"/>
<mask id="mask53_199_593" style="mask-type:luminance" maskUnits="userSpaceOnUse" x="195" y="85" width="4" height="4">
<path d="M195.667 85H198.333V88.9375H195.667V85Z" fill="white"/>
</mask>
<g mask="url(#mask53_199_593)">
<path d="M197.016 89.1562C196.917 89.1562 196.865 89.1041 196.865 89.0051V86.3905C196.865 86.2864 196.917 86.2395 197.016 86.2395C197.12 86.2395 197.172 86.2864 197.172 86.3905V89.0051C197.172 89.1041 197.12 89.1562 197.016 89.1562Z" fill="#DDDCDB"/>
</g>
<mask id="mask54_199_593" style="mask-type:luminance" maskUnits="userSpaceOnUse" x="210" y="79" width="21" height="4">
<path d="M210.167 79.6667H230.333V82.3334H210.167V79.6667Z" fill="white"/>
</mask>
<g mask="url(#mask54_199_593)">
<path d="M229.672 81.0781H210.37C210.266 81.0781 210.214 81.026 210.214 80.9219C210.214 80.8177 210.266 80.7656 210.37 80.7656H229.672C229.776 80.7656 229.828 80.8177 229.828 80.9219C229.828 81.026 229.776 81.0781 229.672 81.0781Z" fill="#DDDCDB"/>
</g>
<path d="M232.906 83.7968H214.698C214.594 83.7968 214.542 83.7447 214.542 83.6405C214.542 83.5416 214.594 83.4895 214.698 83.4895H232.906C233.01 83.4895 233.063 83.5416 233.063 83.6405C233.063 83.7447 233.01 83.7968 232.906 83.7968Z" fill="#DDDCDB"/>
<mask id="mask55_199_593" style="mask-type:luminance" maskUnits="userSpaceOnUse" x="218" y="77" width="19" height="2">
<path d="M218.333 77.9375H236.167V78.3333H218.333V77.9375Z" fill="white"/>
</mask>
<g mask="url(#mask55_199_593)">
<path d="M236.104 78.2448H219.359C219.255 78.2448 219.203 78.1979 219.203 78.0938C219.203 77.9896 219.255 77.9375 219.359 77.9375H236.104C236.208 77.9375 236.26 77.9896 236.26 78.0938C236.26 78.1979 236.208 78.2448 236.104 78.2448Z" fill="#DDDCDB"/>
</g>
<path d="M229.818 86.5678H211.604C211.505 86.5678 211.453 86.5157 211.453 86.4167C211.453 86.3126 211.505 86.2605 211.604 86.2605H229.818C229.917 86.2605 229.969 86.3126 229.969 86.4167C229.969 86.5157 229.917 86.5678 229.818 86.5678Z" fill="#DDDCDB"/>
<path d="M217.026 83.6875C216.922 83.6875 216.87 83.6354 216.87 83.5313V80.9219C216.87 80.8177 216.922 80.7656 217.026 80.7656C217.125 80.7656 217.177 80.8177 217.177 80.9219V83.5313C217.177 83.6354 217.125 83.6875 217.026 83.6875Z" fill="#DDDCDB"/>
<path d="M224.38 83.6875C224.276 83.6875 224.224 83.6354 224.224 83.5313V80.9219C224.224 80.8177 224.276 80.7656 224.38 80.7656C224.484 80.7656 224.531 80.8177 224.531 80.9219V83.5313C224.531 83.6354 224.484 83.6875 224.38 83.6875Z" fill="#DDDCDB"/>
<mask id="mask56_199_593" style="mask-type:luminance" maskUnits="userSpaceOnUse" x="223" y="86" width="2" height="3">
<path d="M223.667 86.3333H225V88.9374H223.667V86.3333Z" fill="white"/>
</mask>
<g mask="url(#mask56_199_593)">
<path d="M224.365 89.2708C224.266 89.2708 224.214 89.2187 224.214 89.1145V86.5051C224.214 86.401 224.266 86.3489 224.365 86.3489C224.469 86.3489 224.521 86.401 224.521 86.5051V89.1145C224.521 89.2187 224.469 89.2708 224.365 89.2708Z" fill="#DDDCDB"/>
</g>
<mask id="mask57_199_593" style="mask-type:luminance" maskUnits="userSpaceOnUse" x="227" y="77" width="2" height="6">
<path d="M227.667 77.9375H229V82.3333H227.667V77.9375Z" fill="white"/>
</mask>
<g mask="url(#mask57_199_593)">
<path d="M227.896 81.0781C227.797 81.0781 227.745 81.026 227.745 80.9219V78.3125C227.745 78.2083 227.797 78.1562 227.896 78.1562C228 78.1562 228.052 78.2083 228.052 78.3125V80.9219C228.052 81.026 228 81.0781 227.896 81.0781Z" fill="#DDDCDB"/>
</g>
<path d="M220.542 86.5155C220.443 86.5155 220.391 86.4635 220.391 86.3645V83.7499C220.391 83.6458 220.443 83.5989 220.542 83.5989C220.646 83.5989 220.698 83.6458 220.698 83.7499V86.3645C220.698 86.4635 220.646 86.5155 220.542 86.5155Z" fill="#DDDCDB"/>
<mask id="mask58_199_593" style="mask-type:luminance" maskUnits="userSpaceOnUse" x="219" y="77" width="2" height="6">
<path d="M219.667 77.9375H221V82.3333H219.667V77.9375Z" fill="white"/>
</mask>
<g mask="url(#mask58_199_593)">
<path d="M220.542 81.0312C220.443 81.0312 220.391 80.9843 220.391 80.8801V78.2708C220.391 78.1666 220.443 78.1145 220.542 78.1145C220.646 78.1145 220.698 78.1666 220.698 78.2708V80.8801C220.698 80.9843 220.646 81.0312 220.542 81.0312Z" fill="#DDDCDB"/>
</g>
<path d="M227.896 86.5155C227.797 86.5155 227.745 86.4635 227.745 86.3645V83.7499C227.745 83.6458 227.797 83.5989 227.896 83.5989C228 83.5989 228.052 83.6458 228.052 83.7499V86.3645C228.052 86.4635 228 86.5155 227.896 86.5155Z" fill="#DDDCDB"/>
<mask id="mask59_199_593" style="mask-type:luminance" maskUnits="userSpaceOnUse" x="215" y="85" width="4" height="4">
<path d="M215.667 85H218.333V88.9375H215.667V85Z" fill="white"/>
</mask>
<g mask="url(#mask59_199_593)">
<path d="M217.135 89.1562C217.036 89.1562 216.984 89.1041 216.984 89.0051V86.3905C216.984 86.2864 217.036 86.2395 217.135 86.2395C217.24 86.2395 217.292 86.2864 217.292 86.3905V89.0051C217.292 89.1041 217.24 89.1562 217.135 89.1562Z" fill="#DDDCDB"/>
</g>
</g>
<defs>
<clipPath id="clip0_199_593">
<rect width="310" height="321" fill="white"/>
</clipPath>
</defs>
</svg>
