<svg width="2725" height="631" viewBox="0 0 2725 631" fill="none" xmlns="http://www.w3.org/2000/svg">
<path d="M2721.42 539.738C2723.74 527.338 2724.28 514.938 2724.14 502.398C2724 496.398 2724.55 489.718 2721.42 484.408C2718.7 479.768 2714.47 476.368 2710.93 472.418C2704.66 465.328 2699.35 456.878 2695 447.888C2692.68 443.248 2691.18 439.438 2689.41 434.538C2687.64 429.768 2686.14 424.858 2684.92 419.958C2682.33 410.148 2680.56 399.788 2679.47 390.388C2678.25 379.348 2677.97 368.038 2676.06 357.128C2681.51 344.728 2686.41 331.508 2689.41 318.148C2690.09 320.058 2690.77 321.968 2691.32 323.868C2695.41 338.048 2694.59 353.168 2695.81 368.028C2697.45 390.378 2703.58 412.188 2711.48 433.178C2711.34 396.518 2707.8 359.718 2700.72 323.738C2698.95 314.608 2696.77 305.198 2692.27 297.298C2693.23 269.768 2682.06 242.918 2645.55 223.018C2644.46 222.338 2643.24 221.788 2642.01 221.108C2647.32 219.888 2651.95 218.118 2654.41 215.658C2656.73 213.478 2658.77 211.298 2660.81 208.978C2675.11 192.208 2682.06 169.728 2678.38 146.148C2668.17 127.478 2648.69 124.068 2627.44 123.658C2628.12 123.248 2628.8 122.708 2629.21 122.298C2630.16 121.478 2631.12 120.518 2631.93 119.568C2644.06 106.758 2648.96 90.2683 2645.96 71.0483C2633.56 48.5583 2603.74 54.8283 2578.81 53.8783C2578.81 52.9283 2578.13 52.1084 2577.31 51.6984C2576.09 51.1584 2574.59 51.8383 2574.04 53.0583C2573.9 53.1983 2573.9 53.4684 2573.77 53.6084C2569.96 53.3284 2566.42 52.7884 2563.01 51.8284C2543.53 46.5184 2514.11 26.2083 2472.98 51.4183L2469.84 51.1483C2468.34 50.7383 2466.85 50.3283 2465.35 50.0583C2465.35 49.6483 2465.21 49.1084 2465.21 48.6984C2465.07 47.3384 2463.85 46.3783 2462.35 46.5183C2460.99 46.6583 2460.03 47.8783 2460.17 49.3783C2421.35 45.6983 2375.59 84.9484 2396.43 109.478C2399.7 113.298 2404.47 116.698 2411 119.558C2371.78 129.508 2345.62 171.758 2366.46 199.418C2371.23 205.828 2378.58 211.408 2388.93 215.638C2395.2 218.228 2401.73 219.448 2408.4 219.728C2393.01 231.718 2382.11 250.118 2369.04 265.518C2365.23 270.008 2361.14 274.378 2356.78 278.058C2354.19 280.378 2351.33 282.418 2348.47 284.198C2346.83 285.288 2345.33 286.238 2343.7 287.058C2341.66 288.148 2339.62 289.108 2337.57 289.918C2336.08 290.458 2334.58 291.008 2333.08 291.408C2331.17 291.958 2329.27 292.368 2327.36 292.638C2326.41 292.778 2325.45 292.778 2324.64 292.908H2320.55C2309.92 292.228 2300.8 286.498 2293.31 277.778C2293.04 277.368 2292.63 277.098 2292.36 276.688C2288.82 272.468 2285.82 267.558 2283.09 262.248C2285.14 264.288 2287.31 266.468 2289.5 268.378C2291.54 270.288 2293.86 272.328 2296.58 271.788C2296.58 270.018 2294.81 268.798 2293.04 268.248C2291.4 267.698 2289.36 267.428 2288.27 266.068C2286.09 263.618 2287.73 259.528 2286.5 256.398C2285.41 253.398 2282.01 251.898 2281.05 248.898C2279.96 246.038 2281.46 242.498 2279.83 240.048C2279.15 239.088 2278.19 238.268 2277.24 237.598C2272.47 233.778 2269.2 228.058 2268.25 221.918C2268.11 220.968 2268.11 219.878 2268.39 218.928C2268.53 218.378 2268.94 217.838 2268.8 217.288C2268.8 216.738 2268.39 216.468 2268.12 216.058C2265.12 212.648 2261.44 209.928 2257.36 208.018C2256.27 206.248 2255.04 204.478 2253.82 202.708C2254.36 198.208 2254.36 193.718 2253.82 189.488C2253.54 187.578 2253.14 185.808 2252.46 184.718C2251.24 183.078 2249.6 183.898 2247.97 184.718C2246.06 185.808 2244.16 186.898 2242.25 188.538C2241.43 187.578 2240.61 186.758 2239.53 186.488C2237.89 186.078 2236.39 187.168 2235.17 188.258C2232.31 190.578 2229.31 193.298 2227.95 197.118C2215.82 200.658 2202.07 207.748 2191.44 209.388C2187.76 208.708 2183.81 208.438 2179.73 208.568V208.428C2179.73 207.878 2179.32 207.478 2178.78 207.478C2178.24 207.478 2177.83 207.888 2177.83 208.428V208.698C2169.93 209.108 2161.89 211.018 2155.22 214.418C2154.81 214.558 2154.54 214.828 2154.13 214.968C2152.22 215.918 2150.45 217.148 2148.96 218.378C2147.05 219.878 2145.42 221.648 2144.05 223.558C2143.95 223.652 2143.91 223.745 2143.91 223.838C2143.77 224.108 2143.5 224.378 2143.36 224.658C2139.96 230.248 2139.41 237.328 2143.36 245.788C2163.25 250.698 2163.39 242.378 2183.41 253.008C2183.55 253.148 2183.68 253.288 2183.82 253.418C2162.43 286.538 2124.98 314.478 2074.72 334.918C2088.07 295.258 2089.43 251.238 2035.76 221.938C2033.04 220.448 2030.31 219.078 2027.32 217.718C2027.73 217.178 2028.14 216.498 2028.41 215.808C2036.31 214.718 2043.8 212.668 2047.34 209.128C2049.66 206.948 2051.7 204.768 2053.74 202.448C2068.04 185.678 2074.99 163.198 2071.31 139.618C2061.09 120.948 2041.62 117.538 2020.37 117.128C2021.05 116.718 2021.73 116.178 2022.14 115.768C2023.09 114.948 2024.05 113.988 2024.86 113.038C2036.99 100.228 2041.89 83.7383 2038.89 64.5183C2026.49 42.0283 1996.67 48.2984 1971.74 47.3484C1971.74 46.3984 1971.06 45.5783 1970.24 45.1683C1969.02 44.6283 1967.52 45.3083 1966.97 46.5283C1966.83 46.6683 1966.83 46.9384 1966.7 47.0784C1962.89 46.7984 1959.35 46.2583 1955.94 45.2983C1936.46 39.9883 1907.04 19.6783 1865.9 44.8883L1862.77 44.6183C1861.27 44.2083 1859.78 43.7983 1858.28 43.5283C1858.28 43.1183 1858.14 42.5783 1858.14 42.1683C1858 40.8083 1856.78 39.8484 1855.28 39.9884C1853.92 40.1284 1852.96 41.3484 1853.1 42.8484C1814.28 39.1684 1768.52 78.4184 1789.36 102.948C1792.63 106.768 1797.4 110.168 1803.93 113.028C1764.7 122.978 1738.55 165.228 1759.39 192.888C1764.16 199.298 1771.51 204.878 1781.86 209.108C1789.35 212.248 1797.12 213.198 1805.15 213.328C1805.56 213.468 1805.83 213.468 1806.24 213.598C1786.49 224.778 1774.23 246.718 1759.11 264.428C1755.3 268.928 1751.21 273.288 1746.85 276.968C1744.26 279.288 1741.4 281.328 1738.54 283.098C1736.9 284.188 1735.41 285.148 1733.77 285.958C1731.73 287.048 1729.68 287.998 1727.64 288.818C1726.14 289.368 1724.65 289.908 1723.15 290.318C1721.24 290.868 1719.34 291.268 1717.43 291.548C1716.48 291.688 1715.52 291.688 1714.71 291.818H1710.62C1700.41 291.138 1691.55 285.828 1684.33 277.778C1686.64 278.598 1689.51 279.138 1691.28 278.728C1691.28 276.958 1684.87 267.688 1683.1 267.148C1681.47 266.598 1679.42 266.328 1678.33 264.968C1676.15 262.518 1677.78 258.428 1676.56 255.288C1675.47 252.298 1672.07 250.798 1671.11 247.798C1670.02 244.938 1671.52 241.388 1669.89 238.938C1669.21 237.988 1668.25 237.168 1667.3 236.488C1662.53 232.678 1659.26 226.948 1658.31 220.818C1658.17 219.868 1658.17 218.778 1658.45 217.818C1658.59 217.278 1658.99 216.728 1658.86 216.178C1658.86 215.638 1658.45 215.358 1658.18 214.958C1655.18 211.548 1651.5 208.818 1647.42 206.918C1646.33 205.148 1645.1 203.378 1643.88 201.608C1644.42 197.108 1644.42 192.618 1643.88 188.388C1643.6 186.478 1643.2 184.708 1642.52 183.618C1641.3 181.978 1639.66 182.798 1638.03 183.618C1636.12 184.708 1634.22 185.798 1632.31 187.428C1631.49 186.478 1630.67 185.658 1629.59 185.388C1627.95 184.978 1626.45 186.068 1625.23 187.158C1622.37 189.478 1619.37 192.198 1618.01 196.018C1605.88 199.558 1592.13 206.648 1581.5 208.288C1579.46 207.878 1577.41 207.608 1575.23 207.468V207.188C1575.23 206.648 1574.82 206.238 1574.28 206.238C1573.74 206.238 1573.33 206.648 1573.33 207.188V207.328C1563.93 207.048 1553.44 208.968 1545.27 213.048C1544.86 213.188 1544.59 213.458 1544.18 213.588C1543.77 213.868 1543.23 214.138 1542.82 214.408C1542.41 214.688 1541.87 214.958 1541.46 215.228C1540.64 215.778 1539.82 216.458 1539.01 216.998C1538.06 217.818 1537.1 218.638 1536.29 219.448C1535.48 220.268 1534.8 221.228 1534.11 222.178C1534.01 222.272 1533.97 222.362 1533.97 222.448C1533.83 222.718 1533.56 222.998 1533.42 223.268C1530.83 227.628 1529.88 232.948 1531.51 239.078C1531.78 240.038 1532.06 240.988 1532.46 241.938C1532.73 242.758 1533.14 243.578 1533.55 244.388C1554.94 249.698 1553.44 239.748 1578.23 254.068C1556.57 286.368 1517.76 313.218 1465.45 332.568C1464.36 326.028 1463.27 319.488 1461.91 312.938C1460.14 303.808 1457.96 294.398 1453.47 286.498C1454.42 258.968 1443.25 232.118 1406.75 212.228C1404.57 210.998 1402.39 209.908 1400.07 208.818C1401.3 208.278 1402.39 206.778 1403.07 205.138C1410.97 204.048 1418.46 201.998 1422 198.458C1424.31 196.278 1426.36 194.098 1428.4 191.778C1442.7 175.008 1449.65 152.528 1445.97 128.948C1435.75 110.278 1416.27 106.868 1395.03 106.458C1395.71 106.048 1396.39 105.508 1396.8 105.098C1397.75 104.278 1398.71 103.318 1399.52 102.368C1411.64 89.5583 1416.55 73.0684 1413.55 53.8484C1401.15 31.3584 1371.33 37.6283 1346.4 36.6783C1346.4 35.7283 1345.72 34.9083 1344.91 34.4983C1343.68 33.9583 1342.19 34.6384 1341.64 35.8584C1341.5 35.9984 1341.5 36.2683 1341.37 36.4083C1337.55 36.1283 1334.01 35.5883 1330.61 34.6283C1311.13 29.3183 1281.71 9.00838 1240.57 34.2184L1237.44 33.9484C1235.94 33.5384 1234.44 33.1284 1232.95 32.8584C1232.95 32.4484 1232.81 31.9083 1232.81 31.4983C1232.67 30.1383 1231.45 29.0484 1229.95 29.3184C1228.59 29.4584 1227.64 30.6783 1227.77 32.1783C1188.95 28.4983 1143.18 67.7483 1164.03 92.2783C1167.3 96.0983 1172.07 99.4984 1178.6 102.358C1139.37 112.308 1113.22 154.558 1134.06 182.218C1138.83 188.628 1146.19 194.208 1156.53 198.438C1162.66 201.028 1169.06 202.118 1175.6 202.528C1175.19 203.348 1174.92 204.168 1174.51 204.978C1174.37 205.248 1174.24 205.518 1174.1 205.798C1156.12 217.378 1144.41 237.958 1130.11 254.728C1126.29 259.218 1122.21 263.578 1117.85 267.268C1115.26 269.588 1112.4 271.628 1109.54 273.398C1107.9 274.488 1106.4 275.448 1104.77 276.258C1102.73 277.348 1100.69 278.298 1098.64 279.118C1097.14 279.668 1095.64 280.208 1094.15 280.618C1092.24 281.168 1090.33 281.568 1088.43 281.848C1087.48 281.988 1086.52 281.988 1085.71 282.118H1081.63C1071 281.438 1061.88 275.708 1054.39 266.988C1054.12 266.578 1053.71 266.308 1053.44 265.898C1049.9 261.678 1046.9 256.768 1044.18 251.458C1046.22 253.498 1048.4 255.678 1050.58 257.588C1052.62 259.498 1054.94 261.538 1057.66 260.998C1057.66 259.228 1055.89 258.008 1054.12 257.458C1052.48 256.908 1050.44 256.638 1049.35 255.278C1047.17 252.828 1048.8 248.738 1047.58 245.598C1046.49 242.608 1043.09 241.108 1042.13 238.108C1041.04 235.248 1042.54 231.698 1040.91 229.248C1040.23 228.298 1039.27 227.478 1038.32 226.798C1033.55 222.988 1030.28 217.258 1029.33 211.128C1029.19 210.178 1029.19 209.088 1029.47 208.138C1029.61 207.588 1030.02 207.048 1029.88 206.498C1029.88 205.948 1029.47 205.678 1029.2 205.268C1026.21 201.858 1022.53 199.138 1018.44 197.228C1017.35 195.458 1016.12 193.688 1014.9 191.918C1015.45 187.418 1015.45 182.928 1014.9 178.698C1014.63 176.788 1014.22 175.018 1013.54 173.928C1012.32 172.288 1010.68 173.108 1009.05 173.928C1007.14 175.018 1005.24 176.108 1003.33 177.738C1002.51 176.788 1001.69 175.968 1000.61 175.698C998.967 175.288 997.477 176.378 996.247 177.468C993.387 179.788 990.397 182.508 989.027 186.328C976.907 189.868 963.147 196.958 952.517 198.598C948.837 197.918 944.887 197.648 940.807 197.778V197.638C940.807 197.088 940.397 196.688 939.857 196.688C939.317 196.688 938.907 197.098 938.907 197.638V197.908C931.007 198.318 922.967 200.228 916.297 203.628C915.887 203.768 915.617 204.038 915.207 204.178C914.797 204.448 914.257 204.718 913.847 204.998C913.437 205.268 912.897 205.538 912.487 205.818C911.667 206.358 910.847 207.038 910.037 207.588C909.087 208.408 908.127 209.228 907.317 210.038C906.507 210.848 905.817 211.808 905.137 212.758C905.044 212.852 904.997 212.945 904.997 213.038C904.857 213.308 904.587 213.578 904.457 213.858C901.867 218.218 900.917 223.528 902.547 229.668C900.907 229.668 901.047 232.258 902.687 232.388H903.367C903.647 233.208 904.047 234.028 904.457 234.838C924.347 239.748 924.477 231.428 944.497 242.058C944.777 242.328 945.047 242.608 945.317 242.878C927.337 270.958 898.057 295.348 860.867 314.838C859.227 307.758 857.187 300.668 853.647 294.398C854.597 266.868 843.437 240.018 806.927 220.118C796.027 214.128 782.817 208.808 767.017 204.308C765.927 204.448 764.157 203.628 761.567 201.988C757.757 202.398 753.937 202.538 751.357 202.258C750.677 202.258 749.857 202.118 749.177 201.988C749.177 199.948 748.907 197.768 748.497 195.578H742.097V192.168C742.097 189.578 742.097 186.858 743.737 184.808C745.647 182.488 749.317 181.538 750.007 178.538C750.417 177.048 749.737 175.268 748.647 174.048C747.557 172.818 746.057 172.138 744.557 171.598C741.287 170.238 737.207 169.548 734.347 171.598C732.297 173.098 731.347 175.418 730.807 177.868C729.447 183.588 729.987 189.588 730.667 195.448H723.037C723.037 195.448 721.817 195.858 719.627 196.538C713.087 198.448 697.697 202.258 674.137 202.678C690.487 199.538 715.137 202.268 719.907 186.598C726.307 165.468 731.347 142.168 732.027 118.458C732.437 103.608 730.807 86.9784 726.177 74.8484C724.127 69.5284 720.867 64.6284 716.907 60.9484C714.457 56.1784 713.777 51.2683 713.497 44.9983C713.087 36.5483 710.907 30.4184 711.187 21.9684C711.187 19.7884 711.047 17.7484 710.777 15.8284C710.917 15.8284 711.057 15.6883 711.187 15.6883C712.137 15.4183 712.547 14.4683 712.277 13.6483C712.007 12.6983 711.057 12.2883 710.237 12.5583C710.647 13.6483 710.507 13.6483 710.377 13.6483C709.017 9.42831 706.427 5.87832 702.207 3.15832C698.797 0.978318 694.717 0.438318 690.627 0.158318C682.047 -0.381682 673.057 0.0183907 666.927 8.60839C666.247 9.55839 665.567 10.6484 665.157 11.5984C665.017 11.4584 664.887 11.4584 664.747 11.3284C663.927 10.7784 662.977 10.9184 662.427 11.7384C661.747 12.5584 662.017 13.6483 662.707 14.1883C663.117 14.4683 663.387 14.5983 663.927 14.8683C663.517 16.6383 663.517 18.0083 664.197 18.5483C664.607 18.8183 665.017 19.0883 665.427 19.3683C665.287 23.3183 665.837 27.9484 666.517 32.5884C668.007 44.3084 671.007 54.1183 677.687 53.0283C678.777 52.8883 680.407 52.3483 682.597 51.5283L683.277 53.1683L683.687 54.2583C682.047 57.2583 678.777 64.0684 677.017 68.8384C675.107 70.8884 673.477 73.4784 672.247 76.4784C666.667 90.5184 665.297 104.418 663.937 124.858C654.267 130.168 642.547 136.578 642.417 136.988C642.277 137.258 642.147 137.668 642.147 138.078C640.917 138.628 639.967 139.028 639.427 139.298C636.017 140.938 631.117 138.758 628.117 145.158C627.567 146.248 628.117 147.608 629.067 148.838C624.157 151.838 619.257 155.248 614.087 158.648C606.187 161.098 598.557 164.638 592.297 170.508H592.157C589.567 170.648 586.437 171.188 585.617 173.638C585.207 174.868 585.617 176.368 586.297 177.458C585.757 178.278 585.207 178.958 584.657 179.778C545.017 208.808 499.257 242.058 447.907 253.098C446.407 250.918 443.957 249.418 443.137 246.958C442.047 244.098 443.547 240.548 441.917 238.098C441.237 237.148 440.277 236.328 439.327 235.648C434.557 231.838 431.287 226.108 430.337 219.978C430.197 219.028 430.197 217.938 430.477 216.978C430.617 216.438 431.027 215.888 430.887 215.338C430.887 214.798 430.477 214.518 430.207 214.118C427.217 210.708 423.527 207.978 419.447 206.078C418.357 204.308 417.127 202.538 415.907 200.768C416.457 196.268 416.457 191.778 415.907 187.548C415.637 185.638 415.227 183.868 414.547 182.778C413.327 181.138 411.687 181.958 410.057 182.778C408.147 183.868 406.247 184.958 404.337 186.588C403.517 185.638 402.697 184.818 401.617 184.548C399.977 184.138 398.477 185.228 397.257 186.318C394.397 188.638 391.407 191.358 390.037 195.178C377.907 198.718 364.157 205.808 353.527 207.448C351.487 207.038 349.447 206.768 347.257 206.628V206.348C347.257 205.808 346.847 205.398 346.307 205.398C345.767 205.398 345.357 205.808 345.357 206.348V206.488C335.957 206.208 325.467 208.128 317.297 212.208C316.887 212.348 316.617 212.618 316.207 212.748C315.797 213.028 315.247 213.298 314.847 213.568C314.437 213.848 313.897 214.118 313.487 214.388C312.677 214.938 311.857 215.618 311.037 216.158C310.087 216.978 309.127 217.798 308.317 218.608C307.507 219.418 306.817 220.388 306.137 221.338C306.044 221.432 305.997 221.522 305.997 221.608C305.857 221.878 305.587 222.158 305.457 222.428C302.867 226.788 301.917 232.108 303.547 238.238C303.827 239.198 304.097 240.148 304.497 241.098C304.777 241.918 305.177 242.738 305.587 243.548C327.107 248.858 325.477 238.638 350.937 253.768C332.547 289.888 279.837 337.588 215.407 376.158C175.767 399.868 137.627 416.768 104.667 425.628C103.027 410.908 102.897 396.058 104.257 381.338C104.937 373.568 106.027 365.658 105.897 357.758C106.987 356.938 107.937 355.988 108.487 354.758C110.117 351.488 109.167 347.398 107.257 344.268C105.487 341.408 103.177 339.088 100.987 336.638C99.7669 334.318 98.1269 332.278 96.3569 330.368C93.0869 324.778 91.1769 318.378 90.7769 311.838C90.3669 303.518 92.5469 298.478 92.6869 290.298C92.6869 288.258 92.5469 286.208 92.2769 284.308C92.4169 284.308 92.5569 284.168 92.6869 284.168C93.5069 283.888 94.0469 282.938 93.7769 282.118C93.5069 281.298 92.5569 280.758 91.7369 281.028C91.6436 281.028 91.5535 281.075 91.4669 281.168C90.1069 277.078 87.6469 273.538 83.4269 270.808C80.0169 268.628 75.9369 268.088 71.9869 267.818C63.4069 267.678 54.5469 268.088 48.5569 276.538C47.8769 277.498 47.1969 278.588 46.7869 279.538C46.6469 279.398 46.5069 279.398 46.3769 279.268C45.5569 278.718 44.6069 278.988 44.0669 279.678C43.5169 280.498 43.7869 281.448 44.4769 281.998C44.7469 282.268 45.1569 282.408 45.6969 282.678C45.1569 284.448 45.2869 285.818 45.8369 286.218C46.2469 286.628 46.7869 286.898 47.3269 287.168C46.2369 295.208 45.9669 316.748 54.6769 318.378C54.6769 318.378 56.4469 318.378 59.0369 318.238L59.4469 325.188L59.8569 331.868C56.8669 334.048 54.5469 336.778 53.5869 340.048C50.4569 351.768 51.8169 375.078 49.0969 396.608C48.0069 405.598 45.9669 414.458 43.7869 423.188C41.4769 426.048 36.1569 426.178 36.1569 433.138C36.1569 434.778 38.0669 435.998 39.9669 436.678C34.5169 454.948 28.3869 473.068 25.1169 491.878C20.6269 517.768 28.5269 544.758 16.2669 568.058C13.5369 573.098 8.36689 589.188 12.0469 594.768C14.0869 597.898 15.5869 596.948 17.8969 595.448L21.4369 593.538C22.5269 593.128 23.7569 592.858 25.1169 592.718C28.2569 592.578 31.3869 592.448 34.5169 592.308C31.9269 596.938 24.4369 605.118 1.96687 608.938C0.876874 609.078 -1.85313 613.438 1.96687 614.388C5.09687 615.208 46.0969 617.248 49.9069 614.388C52.7669 612.208 49.9069 595.438 49.9069 592.448C49.9069 592.168 49.7669 591.898 49.6369 591.628C52.3569 591.488 54.9469 591.348 57.6769 591.218L59.9869 594.768C60.2669 595.448 60.8069 596.258 61.3469 596.808C62.4369 598.038 63.9369 598.858 65.4269 599.258C68.9669 600.208 72.7869 599.258 76.3269 598.438C91.8569 594.758 110.917 591.898 128.357 588.898C126.857 595.718 122.637 605.388 111.057 617.248C110.237 618.068 110.647 623.108 114.197 621.608C117.187 620.378 153.557 597.068 153.427 593.398C153.287 590.678 151.247 587.538 148.937 584.808C150.577 584.398 152.207 584.128 153.707 583.718C143.357 561.508 129.467 548.828 121.977 525.528C120.067 519.388 118.157 513.258 117.067 506.858C115.847 500.048 115.567 492.958 114.887 486.008C113.117 470.058 108.757 454.658 106.167 438.848C105.617 435.308 105.077 431.758 104.667 428.218C109.847 426.858 115.297 425.218 120.737 423.308C150.427 413.498 183.397 397.958 216.087 378.338C247.817 359.398 277.377 337.728 301.627 315.778C325.737 294.108 343.177 273.258 352.297 255.268C353.117 255.818 353.937 256.218 354.887 256.768C356.107 257.998 357.607 258.948 359.107 259.768C364.967 274.208 371.097 288.938 381.447 300.788C390.577 311.278 401.747 324.098 416.867 331.858C417.137 332.538 417.687 333.358 418.367 333.768C419.187 334.178 420.137 334.178 420.957 333.908C423.677 334.998 426.407 336.088 429.267 336.898L429.407 337.038C432.947 340.988 436.627 344.678 440.307 348.218C440.577 348.488 440.857 348.768 441.127 348.898C442.077 349.848 443.037 350.668 443.847 351.488C444.257 351.758 444.527 352.168 444.937 352.438C445.757 353.258 446.577 353.938 447.387 354.758C447.797 355.168 448.207 355.438 448.607 355.848C449.427 356.528 450.247 357.348 451.057 358.028C451.467 358.298 451.877 358.708 452.287 358.978C453.097 359.658 453.917 360.338 454.737 361.028C455.147 361.298 455.417 361.568 455.827 361.978C456.787 362.798 457.737 363.478 458.687 364.298C458.957 364.438 459.097 364.708 459.367 364.838C461.817 366.748 464.137 368.518 466.587 370.288C466.867 370.558 467.267 370.698 467.547 370.968C468.357 371.648 469.317 372.188 470.127 372.738C470.537 373.008 470.947 373.288 471.357 373.558C472.177 374.108 472.847 374.648 473.667 375.198C474.077 375.468 474.487 375.748 475.027 376.018C475.847 376.568 476.527 376.968 477.337 377.518C477.747 377.788 478.157 378.068 478.697 378.338C479.517 378.888 480.197 379.288 481.017 379.698C481.427 379.968 481.837 380.238 482.237 380.518C483.057 381.058 483.877 381.468 484.687 382.008C485.097 382.148 485.367 382.418 485.777 382.558C486.997 383.238 488.087 383.918 489.317 384.468C494.767 387.468 500.077 390.058 505.387 392.378C510.697 394.698 516.147 396.738 521.327 398.368C519.967 409.138 519.557 419.908 519.967 430.668C520.517 444.158 522.287 457.518 520.787 471.008C517.927 496.488 505.937 519.668 494.767 541.608C489.187 552.648 483.327 563.548 477.467 574.448C477.057 575.268 476.647 575.948 476.237 576.768C474.057 580.718 472.017 584.808 469.427 588.348C468.877 589.168 468.197 589.988 467.517 590.668C465.747 592.708 463.837 593.798 461.927 595.708C459.337 598.158 458.387 602.248 460.567 605.388C461.787 607.028 463.427 608.378 465.197 609.478C465.747 609.888 466.287 610.158 466.837 610.428C469.147 611.928 471.737 613.018 474.327 613.838C476.507 614.388 478.687 614.928 480.867 615.058H482.367C484.957 615.058 488.227 615.058 490.677 613.568C493.127 611.928 494.087 608.248 495.317 605.528C495.317 605.528 495.317 605.388 495.457 605.388C496.677 602.388 497.907 599.388 499.137 596.528C501.587 590.808 504.037 585.218 506.767 579.758C517.527 556.998 529.787 535.328 543.277 514.748C544.917 512.298 546.547 509.838 547.767 506.978C549.127 503.838 550.087 500.568 550.357 497.168C550.627 494.028 550.627 490.758 550.627 487.628C550.767 484.358 550.907 481.088 551.177 477.948C552.127 465.548 554.447 453.278 557.717 441.288C557.857 441.838 557.997 442.378 558.267 442.788C561.257 452.188 565.487 461.048 569.027 470.048C569.977 472.228 570.797 474.548 571.477 476.858C571.887 477.948 572.157 479.038 572.427 479.998C572.567 480.548 572.697 480.948 572.837 481.498C572.977 481.768 572.977 482.048 573.107 482.318C573.107 482.458 573.107 482.588 573.247 482.728V482.998C574.197 487.488 574.337 491.988 574.607 496.628C575.017 501.668 576.247 506.168 579.377 510.118C580.057 510.938 580.737 511.758 581.287 512.568C581.557 512.978 581.967 513.388 582.097 513.928C582.097 513.928 582.237 514.068 582.237 514.198C582.377 514.468 582.507 514.878 582.647 515.148C582.787 515.558 582.917 516.098 583.057 516.508C583.057 516.778 583.197 516.918 583.197 517.188C583.197 517.328 583.337 517.458 583.337 517.598C583.607 518.688 583.747 519.918 583.877 521.008C586.197 536.958 586.877 552.898 586.197 568.708C586.057 572.118 584.837 585.468 584.427 587.918C584.157 590.238 583.877 592.558 583.207 594.738V594.878C583.067 595.148 583.067 595.418 582.927 595.698C582.787 596.108 582.517 596.518 582.387 596.918C582.387 597.058 582.247 597.198 582.247 597.198V597.468C581.967 597.878 581.567 598.418 581.297 598.828C580.067 600.598 578.707 602.238 577.757 604.138C576.667 606.318 575.847 609.048 576.667 611.498C577.617 614.638 580.617 615.318 583.347 615.448C588.527 615.718 593.697 615.448 598.737 614.358C601.327 613.808 603.917 613.268 606.507 612.448C608.957 611.768 611.547 610.948 613.317 609.038C615.637 606.448 614.547 603.178 613.457 600.318C612.507 598.008 611.547 595.688 610.737 593.368C609.927 591.048 609.107 588.868 608.427 586.558C608.157 585.468 607.747 584.378 607.477 583.148C607.067 581.658 607.067 581.378 606.797 579.878C606.387 577.698 606.117 575.518 605.847 573.338C605.707 572.388 605.707 571.298 605.577 570.348C605.577 569.668 605.437 568.988 605.437 568.298C605.437 567.078 605.297 565.978 605.297 564.758C605.157 559.848 605.157 554.808 605.157 549.908C605.157 545.008 605.297 540.638 605.977 535.458C607.067 525.378 610.067 515.558 610.337 505.338C610.887 485.308 602.707 466.368 597.257 447.558C594.537 438.018 592.767 428.748 590.717 418.798C590.037 415.118 589.217 411.308 588.397 407.628C614.277 407.218 634.707 402.718 645.747 402.448C680.067 401.498 711.127 390.318 739.187 367.838C740.827 376.698 748.177 385.688 751.987 394.818C753.347 398.768 754.167 402.448 754.027 405.308V406.258C752.807 418.528 752.937 430.788 754.437 442.918C756.077 456.268 759.067 469.628 758.247 483.118C756.757 508.738 744.357 532.588 733.047 555.078C727.327 566.388 721.337 577.708 715.337 588.878C714.927 589.698 714.517 590.518 714.117 591.328C711.937 595.418 709.757 599.648 707.037 603.188C706.357 604.008 705.677 604.828 704.997 605.638C703.087 607.818 700.907 609.048 698.867 610.948C696.007 613.538 695.327 617.768 698.047 620.628C699.547 622.268 701.587 623.358 703.627 624.448C704.307 624.718 704.987 625.128 705.537 625.398C708.397 626.628 711.397 627.718 714.527 628.258C716.977 628.668 719.567 629.078 722.157 629.078H723.927C726.917 628.938 730.737 628.798 733.457 627.168C736.187 625.398 737.137 621.718 738.227 618.858C738.227 618.858 738.227 618.718 738.367 618.718C739.587 615.718 740.817 612.578 742.047 609.588C744.497 603.728 746.957 598.008 749.677 592.278C760.577 568.968 773.237 546.488 787.537 525.228C789.307 522.638 790.947 520.048 792.307 517.318C793.667 514.048 794.487 510.778 794.627 507.368C794.767 504.228 794.487 500.958 794.347 497.828C794.207 494.558 794.207 491.288 794.207 488.018C794.487 475.478 796.257 463.218 799.247 451.088C800.467 446.048 801.837 441.138 803.337 436.238C810.557 443.188 817.777 450.278 824.857 457.368C828.937 461.318 832.897 465.408 836.297 469.908C839.567 473.998 842.427 479.038 844.747 483.948C849.377 494.028 852.097 505.478 854.827 516.388C857.687 528.108 860.137 539.968 860.547 551.958C860.957 563.538 859.597 574.448 856.197 585.618C855.917 586.578 855.647 587.528 855.237 588.348C853.747 592.708 851.967 596.798 849.927 601.018C849.787 601.428 849.517 601.838 849.377 602.108C848.967 602.928 848.557 603.598 848.157 604.288C847.877 604.698 847.607 605.238 847.337 605.648C847.197 605.918 847.057 606.058 846.927 606.328C846.927 606.328 846.517 606.868 846.517 607.008C846.237 607.418 845.837 607.828 845.567 608.098C845.427 608.238 845.157 608.508 845.017 608.648C845.017 608.648 844.877 608.788 844.747 608.788C844.467 609.058 844.067 609.198 843.797 609.328C843.937 609.188 842.567 609.608 842.847 609.608C841.347 609.878 839.847 609.878 838.487 610.698C836.987 611.518 836.037 613.148 835.627 614.788C834.807 618.058 836.307 621.328 839.027 623.098C841.207 624.598 843.937 625.148 846.657 625.418C849.647 625.828 852.507 626.098 855.507 626.098C861.087 626.098 866.677 625.148 872.117 623.508C874.977 622.688 877.707 621.598 880.287 620.238C882.057 619.418 883.967 618.598 884.507 616.558C884.917 614.918 884.777 613.018 884.777 611.248C884.777 608.798 884.917 606.338 884.777 603.758C884.637 593.668 883.967 583.588 882.737 573.638C881.917 567.498 881.247 561.368 881.517 555.098C881.787 549.238 883.017 543.518 884.237 537.658C886.547 525.258 887.097 512.848 886.957 500.318C886.817 494.328 887.367 487.648 884.237 482.328C881.517 477.688 877.287 474.288 873.747 470.338C867.477 463.258 862.167 454.798 857.807 445.808C855.497 441.178 853.997 437.358 852.227 432.458C850.457 427.688 848.957 422.778 847.737 417.878C845.147 408.068 843.377 397.708 842.287 388.308C841.067 377.268 840.787 365.958 838.877 355.048C843.237 344.968 847.457 334.338 850.317 323.438C851.537 322.888 852.767 322.348 853.997 321.658C858.087 335.838 857.267 350.958 858.487 365.818C860.127 388.168 866.257 409.978 874.157 430.968C874.017 394.308 870.477 357.508 863.397 321.528C863.117 320.168 862.847 318.808 862.577 317.438C900.847 297.538 930.137 272.878 948.117 244.528C948.527 244.668 949.067 244.798 949.617 244.938C950.297 245.348 950.977 245.758 951.797 246.158C952.347 247.658 953.027 249.018 953.567 250.518C959.557 265.098 965.697 280.228 976.177 292.218C988.847 306.668 1005.46 325.608 1030.8 329.558C1043.6 343.458 1056.68 354.768 1069.62 363.768C1070.71 364.588 1071.8 365.268 1072.89 366.088C1075.07 367.588 1077.24 368.948 1079.43 370.308C1082.7 372.348 1085.97 374.258 1089.24 376.028C1094.69 379.028 1100 381.618 1105.31 383.938C1105.99 384.758 1106.67 385.578 1107.35 386.528C1107.76 386.938 1108.03 387.348 1108.44 387.888C1108.58 388.028 1108.72 388.168 1108.72 388.298L1108.86 388.438C1109.68 389.388 1110.35 390.488 1111.17 391.438C1112.67 393.348 1114.17 395.258 1115.26 397.428C1116.35 399.338 1116.9 400.978 1117.03 403.148V404.648C1116.89 406.558 1116.48 408.188 1115.94 410.368C1113.08 420.588 1109.26 429.718 1104.63 439.128C1100 448.538 1094.82 457.528 1089.78 466.528C1087.2 471.018 1084.47 475.658 1082.02 480.298C1079.43 485.338 1077.8 490.648 1078.75 496.238C1080.25 504.828 1087.6 510.688 1093.87 515.868C1097.28 518.728 1100.41 521.588 1103.27 524.998C1103.68 525.408 1104.08 525.948 1104.36 526.358C1104.5 526.498 1104.63 526.768 1104.9 526.908C1104.9 526.908 1104.9 527.048 1105.04 527.048C1105.72 527.998 1106.4 528.958 1107.08 529.908C1108.3 531.678 1109.53 533.588 1110.76 535.498C1113.89 540.538 1116.75 545.858 1119.89 551.038C1121.39 553.628 1123.03 556.218 1124.8 558.808C1127.38 562.618 1130.25 566.438 1133.38 569.848L1134.33 570.798L1135.83 572.298C1136.24 572.708 1136.65 573.118 1136.92 573.528L1137.19 573.798C1137.47 574.068 1137.6 574.478 1137.87 574.748C1138.01 575.018 1138.14 575.158 1138.14 575.428V575.698C1138.28 576.108 1138.42 576.648 1138.42 577.058C1138.42 577.058 1138.56 577.878 1138.56 578.148V580.198C1138.56 582.518 1138.29 584.828 1138.56 587.148C1138.7 588.508 1138.97 589.738 1139.38 590.968C1139.79 592.188 1140.33 593.008 1141.42 593.828C1141.97 594.238 1142.78 594.508 1143.33 594.788C1145.92 596.008 1148.64 596.968 1151.64 596.828C1153 596.688 1154.22 596.418 1155.32 595.878C1155.18 596.018 1155.18 596.148 1155.04 596.288C1153.68 598.338 1152.73 601.058 1153.27 603.508C1153.95 606.648 1156.81 607.728 1159.54 608.148C1164.72 608.828 1169.76 609.098 1174.94 608.558C1177.66 608.288 1180.25 607.878 1182.84 607.338C1185.29 606.788 1188.02 606.388 1189.92 604.478C1192.37 602.028 1191.69 598.758 1190.87 595.758C1190.19 593.438 1189.38 590.988 1188.69 588.538C1188.01 586.218 1187.47 583.898 1186.92 581.448C1186.65 580.358 1186.51 579.128 1186.24 578.038C1185.97 576.538 1185.97 576.128 1185.83 574.768C1185.55 572.588 1185.55 570.408 1185.55 568.228V565.228C1185.55 564.548 1185.55 563.868 1185.69 563.188C1185.69 561.958 1185.83 560.868 1185.96 559.648C1186.37 554.738 1186.78 549.698 1187.18 544.788C1187.73 539.878 1188.27 535.518 1189.36 530.478C1191.4 520.528 1195.35 511.128 1196.58 500.908C1199.03 481.008 1192.63 461.378 1189.09 442.168C1187.32 432.488 1186.37 423.088 1185.41 412.998C1185 408.508 1184.46 404.008 1183.92 399.368C1192.5 399.368 1200.67 398.958 1208.03 398.278C1208.44 398.958 1209.25 399.368 1210.07 399.368C1211.16 399.368 1211.98 398.688 1212.38 397.878C1226.82 396.378 1238.4 394.328 1245.76 394.198C1265.92 393.648 1284.85 389.558 1302.83 381.798C1302.97 383.018 1304.06 383.838 1305.28 383.978H1305.42C1306.78 383.978 1307.87 382.888 1307.87 381.528C1307.87 380.978 1307.87 380.298 1308.01 379.478C1317 375.118 1325.85 369.798 1334.44 363.398C1336.35 363.258 1338.39 362.988 1340.29 362.858C1342.88 370.628 1348.87 378.528 1352.14 386.568C1353.5 390.518 1354.32 394.198 1354.19 397.058V398.008C1352.96 410.278 1353.1 422.538 1354.6 434.668C1356.24 448.018 1359.23 461.378 1358.41 474.868C1356.92 500.488 1344.52 524.338 1333.21 546.828C1327.49 558.138 1321.5 569.458 1315.51 580.628C1315.1 581.448 1314.69 582.268 1314.28 583.078C1312.1 587.168 1309.92 591.388 1307.2 594.938C1306.52 595.758 1305.84 596.578 1305.16 597.388C1303.25 599.568 1301.07 600.798 1299.03 602.698C1296.17 605.288 1295.49 609.518 1298.21 612.378C1299.71 614.018 1301.75 615.098 1303.8 616.198C1304.48 616.468 1305.16 616.878 1305.71 617.148C1308.57 618.368 1311.56 619.468 1314.7 620.008C1317.15 620.418 1319.74 620.828 1322.33 620.828H1324.1C1327.1 620.688 1330.91 620.558 1333.64 618.918C1336.36 617.148 1337.32 613.468 1338.41 610.608C1338.41 610.608 1338.41 610.468 1338.55 610.468C1339.78 607.468 1341 604.328 1342.23 601.338C1344.68 595.478 1347.14 589.748 1349.86 584.028C1360.76 560.728 1373.42 538.238 1387.72 516.978C1389.49 514.388 1391.13 511.798 1392.49 509.078C1393.85 505.808 1394.67 502.538 1394.8 499.128C1394.94 495.998 1394.66 492.728 1394.53 489.588C1394.39 486.318 1394.39 483.048 1394.39 479.778C1394.66 467.238 1396.43 454.968 1399.43 442.848C1400.66 437.798 1402.02 432.898 1403.52 427.988C1410.74 434.938 1417.96 442.028 1425.04 449.118C1429.12 453.068 1433.08 457.158 1436.48 461.658C1439.75 465.748 1442.61 470.788 1444.92 475.698C1449.55 485.778 1452.27 497.228 1455 508.128C1457.86 519.848 1460.31 531.708 1460.72 543.698C1461.13 555.278 1459.77 566.188 1456.36 577.358C1456.09 578.308 1455.81 579.268 1455.41 580.088C1453.91 584.448 1452.14 588.538 1450.1 592.758C1449.96 593.168 1449.69 593.578 1449.55 593.848C1449.14 594.668 1448.73 595.348 1448.33 596.028C1448.06 596.438 1447.78 596.978 1447.51 597.388C1447.37 597.658 1447.24 597.798 1447.1 598.068C1447.1 598.068 1446.69 598.608 1446.69 598.748C1446.42 599.158 1446.01 599.568 1445.74 599.838C1445.6 599.978 1445.33 600.248 1445.19 600.378C1445.19 600.378 1445.05 600.518 1444.92 600.518C1444.65 600.788 1444.24 600.928 1443.97 601.058C1444.11 600.918 1442.75 601.338 1443.02 601.338C1441.52 601.608 1440.03 601.608 1438.66 602.428C1437.16 603.248 1436.21 604.878 1435.8 606.518C1434.98 609.788 1436.48 613.058 1439.21 614.828C1441.39 616.328 1444.11 616.878 1446.84 617.148C1449.7 617.558 1452.7 617.828 1455.69 617.828C1461.27 617.828 1466.86 616.878 1472.31 615.238C1475.17 614.418 1477.89 613.328 1480.48 611.968C1482.25 611.148 1484.16 610.328 1484.7 608.288C1485.11 606.648 1484.97 604.748 1484.97 602.978C1484.97 600.528 1485.11 598.068 1484.97 595.478C1484.83 585.398 1484.15 575.308 1482.93 565.368C1482.11 559.228 1481.43 553.098 1481.7 546.828C1481.97 540.968 1483.2 535.248 1484.42 529.388C1486.74 516.978 1487.28 504.578 1487.14 492.048C1487 486.048 1487.55 479.368 1484.42 474.058C1481.7 469.418 1477.47 466.018 1473.94 462.068C1467.67 454.978 1462.36 446.528 1458 437.538C1455.68 432.898 1454.18 429.088 1452.41 424.188C1450.64 419.418 1449.14 414.508 1447.92 409.608C1445.34 399.798 1443.57 389.438 1442.47 380.038C1441.25 368.998 1440.98 357.688 1439.07 346.778C1439.48 345.688 1440.02 344.738 1440.43 343.638C1445.47 342.138 1450.51 340.648 1455.41 339.008C1456.23 338.728 1456.9 338.458 1457.72 338.188C1458 344.588 1458.13 351.128 1458.67 357.538C1460.31 379.888 1466.44 401.698 1474.34 422.688C1474.2 393.248 1471.89 363.808 1467.39 334.778C1520.24 315.298 1559.47 288.038 1581.4 255.328C1582.49 256.008 1583.44 256.558 1584.67 257.378C1585.9 258.598 1587.39 259.558 1588.89 260.368C1594.74 274.818 1600.87 289.538 1611.23 301.398C1620.36 311.888 1631.52 324.698 1646.64 332.468C1646.92 333.148 1647.46 333.958 1648.14 334.378C1648.96 334.788 1649.91 334.788 1650.73 334.518C1653.45 335.608 1656.18 336.698 1659.04 337.518L1659.18 337.658C1662.72 341.608 1666.4 345.288 1670.08 348.838C1670.35 349.108 1670.62 349.378 1670.89 349.518C1671.85 350.478 1672.8 351.298 1673.62 352.108C1674.03 352.378 1674.3 352.788 1674.71 353.058C1675.53 353.878 1676.35 354.558 1677.16 355.378C1677.57 355.788 1677.98 356.058 1678.39 356.468C1679.21 357.148 1680.03 357.968 1680.84 358.648C1681.25 358.918 1681.65 359.328 1682.06 359.598C1682.88 360.278 1683.7 360.958 1684.51 361.638C1684.92 361.918 1685.19 362.188 1685.6 362.588C1686.55 363.408 1687.51 364.088 1688.46 364.908C1688.73 365.048 1688.87 365.318 1689.14 365.458C1691.59 367.368 1693.91 369.138 1696.36 370.908C1696.63 371.178 1697.04 371.318 1697.31 371.588C1698.13 372.268 1699.08 372.818 1699.9 373.368C1700.31 373.638 1700.72 373.908 1701.12 374.188C1701.94 374.728 1702.62 375.278 1703.44 375.828C1703.85 376.098 1704.26 376.368 1704.8 376.648C1705.62 377.188 1706.3 377.598 1707.12 378.138C1707.53 378.418 1707.94 378.688 1708.48 378.958C1709.3 379.508 1709.98 379.918 1710.8 380.318C1711.21 380.588 1711.62 380.868 1712.02 381.138C1712.84 381.688 1713.66 382.088 1714.47 382.638C1714.88 382.778 1715.15 383.048 1715.56 383.188C1716.79 383.868 1717.88 384.548 1719.1 385.098C1724.55 388.098 1729.86 390.688 1735.17 393.008C1740.48 395.318 1745.93 397.368 1751.11 398.998C1749.75 409.768 1749.34 420.528 1749.75 431.298C1750.29 444.788 1752.06 458.148 1750.56 471.638C1747.7 497.118 1735.72 520.288 1724.54 542.228C1718.96 553.268 1713.1 564.168 1707.24 575.068C1706.83 575.888 1706.42 576.568 1706.02 577.388C1703.84 581.338 1701.8 585.428 1699.21 588.968C1698.66 589.788 1697.99 590.608 1697.3 591.288C1695.53 593.338 1693.62 594.428 1691.72 596.328C1689.13 598.778 1688.18 602.868 1690.36 606.008C1691.59 607.648 1693.22 609.008 1694.99 610.098C1695.54 610.508 1696.08 610.778 1696.63 611.048C1698.95 612.548 1701.54 613.638 1704.12 614.458C1706.3 614.998 1708.47 615.548 1710.66 615.678H1712.16C1714.74 615.678 1718.01 615.678 1720.47 614.178C1722.92 612.538 1723.88 608.868 1725.1 606.138C1725.1 606.138 1725.1 605.998 1725.24 605.998C1726.46 603.008 1727.69 600.008 1728.92 597.138C1731.37 591.418 1733.83 585.828 1736.55 580.378C1747.31 557.618 1759.57 535.948 1773.05 515.368C1774.69 512.918 1776.32 510.458 1777.55 507.598C1778.91 504.458 1779.86 501.188 1780.13 497.788C1780.41 494.648 1780.41 491.378 1780.41 488.248C1780.55 484.978 1780.68 481.708 1780.95 478.568C1781.9 466.168 1784.22 453.898 1787.49 441.908C1787.63 442.458 1787.76 442.998 1788.03 443.408C1791.03 452.818 1795.25 461.678 1798.79 470.668C1799.74 472.848 1800.56 475.158 1801.24 477.478C1801.65 478.568 1801.92 479.658 1802.19 480.618C1802.33 481.158 1802.46 481.568 1802.6 482.118C1802.74 482.388 1802.74 482.658 1802.88 482.938C1802.88 483.078 1802.88 483.208 1803.02 483.348V483.618C1803.97 488.118 1804.11 492.608 1804.38 497.248C1804.79 502.288 1806.02 506.788 1809.15 510.738C1809.83 511.558 1810.51 512.378 1811.06 513.188C1811.33 513.598 1811.74 514.008 1811.88 514.548C1811.88 514.548 1812.02 514.688 1812.02 514.828C1812.16 515.098 1812.29 515.508 1812.43 515.778C1812.57 516.188 1812.71 516.728 1812.84 517.138C1812.84 517.418 1812.98 517.548 1812.98 517.818C1812.98 517.958 1813.12 518.098 1813.12 518.228C1813.39 519.318 1813.53 520.548 1813.67 521.638C1815.98 537.578 1816.66 553.528 1815.98 569.338C1815.84 572.748 1814.62 586.108 1814.21 588.558C1813.94 590.878 1813.67 593.188 1812.99 595.368V595.508C1812.85 595.788 1812.85 596.058 1812.72 596.328C1812.58 596.738 1812.31 597.148 1812.17 597.558C1812.17 597.698 1812.03 597.828 1812.03 597.828V598.098C1811.76 598.508 1811.35 599.058 1811.08 599.458C1809.85 601.228 1808.49 602.868 1807.54 604.778C1806.45 606.958 1805.63 609.688 1806.45 612.138C1807.4 615.268 1810.4 615.948 1813.12 616.088C1818.3 616.358 1823.47 616.088 1828.51 614.998C1831.1 614.448 1833.69 613.908 1836.28 613.088C1838.73 612.408 1841.32 611.588 1843.09 609.678C1845.4 607.088 1844.31 603.818 1843.23 600.958C1842.28 598.638 1841.32 596.318 1840.51 594.008C1839.69 591.698 1838.87 589.518 1838.19 587.198C1837.92 586.108 1837.51 585.018 1837.24 583.788C1836.83 582.288 1836.83 582.018 1836.56 580.518C1836.15 578.338 1835.88 576.158 1835.61 573.978C1835.47 573.028 1835.47 571.928 1835.34 570.978C1835.34 570.298 1835.2 569.618 1835.2 568.938C1835.2 567.708 1835.06 566.618 1835.06 565.388C1834.92 560.478 1834.92 555.438 1834.92 550.538C1834.92 545.638 1835.06 541.268 1835.73 536.098C1836.82 526.008 1839.82 516.198 1840.09 505.978C1840.64 485.938 1832.46 466.998 1827.02 448.188C1824.3 438.648 1822.53 429.378 1820.48 419.428C1819.8 415.748 1818.99 411.938 1818.17 408.248C1823.62 408.108 1828.93 407.838 1833.83 407.568C1834.11 408.528 1835.06 409.208 1836.15 409.348C1837.37 409.348 1838.46 408.388 1838.6 407.168C1854.81 405.668 1867.48 403.348 1875.51 403.078C1894.31 402.528 1912.15 398.988 1929.04 392.178C1929.45 392.998 1930.26 393.668 1931.22 393.668H1931.36C1932.72 393.668 1933.81 392.578 1933.81 391.218V389.998C1945.93 384.548 1957.65 377.318 1968.82 368.328C1970.46 377.188 1977.81 386.178 1981.62 395.308C1982.98 399.258 1983.8 402.948 1983.67 405.798V406.748C1982.44 419.018 1982.58 431.278 1984.08 443.408C1985.72 456.768 1988.71 470.118 1987.89 483.608C1986.4 509.238 1974 533.078 1962.69 555.568C1956.97 566.878 1950.98 578.198 1944.98 589.368C1944.57 590.188 1944.16 591.008 1943.76 591.818C1941.58 595.908 1939.4 600.128 1936.68 603.668C1936 604.488 1935.32 605.308 1934.64 606.118C1932.73 608.298 1930.69 609.528 1928.51 611.438C1925.65 614.028 1924.97 618.248 1927.69 621.118C1929.19 622.758 1931.23 623.838 1933.27 624.928C1933.95 625.208 1934.63 625.608 1935.18 625.878C1938.04 627.108 1941.04 628.198 1944.17 628.738C1946.62 629.148 1949.21 629.558 1951.8 629.558H1953.57C1956.56 629.418 1960.38 629.288 1963.11 627.648C1965.83 625.868 1966.79 622.198 1967.88 619.328C1967.88 619.328 1967.88 619.188 1968.02 619.188C1969.24 616.198 1970.47 613.058 1971.7 610.058C1974.15 604.198 1976.61 598.478 1979.33 592.748C1990.23 569.438 2002.89 546.958 2017.19 525.698C2018.96 523.108 2020.6 520.518 2021.96 517.788C2023.32 514.518 2024.14 511.248 2024.28 507.838C2024.42 504.698 2024.14 501.428 2024.01 498.298C2023.87 495.028 2023.87 491.758 2023.87 488.488C2024.14 475.948 2025.91 463.688 2028.91 451.558C2030.13 446.518 2031.5 441.608 2033 436.708C2040.22 443.658 2047.44 450.748 2054.52 457.838C2058.6 461.788 2062.56 465.878 2065.96 470.378C2069.23 474.468 2072.09 479.508 2074.4 484.418C2079.03 494.508 2081.75 505.958 2084.48 516.858C2087.34 528.578 2089.79 540.438 2090.2 552.428C2090.61 564.008 2089.24 574.908 2085.84 586.088C2085.56 587.038 2085.29 587.998 2084.89 588.808C2083.39 593.168 2081.62 597.258 2079.58 601.488C2079.44 601.898 2079.17 602.308 2079.03 602.578C2078.62 603.398 2078.21 604.078 2077.81 604.758C2077.53 605.168 2077.26 605.708 2076.99 606.118C2076.85 606.398 2076.72 606.528 2076.58 606.798C2076.58 606.798 2076.17 607.348 2076.17 607.478C2075.9 607.888 2075.49 608.298 2075.22 608.568L2074.67 609.118C2074.67 609.118 2074.53 609.258 2074.4 609.258C2074.13 609.528 2073.72 609.668 2073.45 609.808C2073.59 609.668 2072.22 610.078 2072.5 610.078C2071 610.358 2069.5 610.358 2068.14 611.168C2066.64 611.988 2065.69 613.618 2065.28 615.258C2064.46 618.528 2065.96 621.798 2068.68 623.568C2070.86 625.068 2073.59 625.608 2076.31 625.888C2079.17 626.298 2082.16 626.568 2085.16 626.568C2090.74 626.568 2096.33 625.618 2101.77 623.978C2104.63 623.158 2107.36 622.068 2109.95 620.708C2111.72 619.888 2113.63 619.068 2114.17 617.028C2114.58 615.388 2114.45 613.478 2114.45 611.708C2114.45 609.258 2114.59 606.798 2114.45 604.218C2114.31 594.138 2113.63 584.048 2112.4 574.098C2111.58 567.968 2110.91 561.828 2111.18 555.558C2111.45 549.698 2112.68 543.978 2113.9 538.118C2116.22 525.718 2116.76 513.318 2116.62 500.778C2116.48 494.788 2117.03 488.108 2113.9 482.788C2111.18 478.158 2106.95 474.748 2103.41 470.798C2097.14 463.708 2091.83 455.258 2087.47 446.268C2085.16 441.628 2083.66 437.818 2081.89 432.908C2080.12 428.138 2078.62 423.238 2077.4 418.328C2074.81 408.518 2073.04 398.158 2071.95 388.748C2070.73 377.708 2070.45 366.398 2068.54 355.498C2071.26 349.358 2073.85 343.098 2076.03 336.558C2127.38 315.978 2165.66 287.498 2187.31 253.828C2187.86 254.108 2188.53 254.378 2189.22 254.378C2189.9 254.788 2190.58 255.198 2191.4 255.598C2191.94 257.098 2192.62 258.458 2193.17 259.958C2199.16 274.538 2205.29 289.668 2215.78 301.658C2228.45 316.108 2245.06 335.048 2270.4 338.998C2283.2 352.898 2296.28 364.208 2309.22 373.198C2310.31 374.018 2311.4 374.698 2312.49 375.518C2314.67 377.018 2316.85 378.378 2319.03 379.738C2322.3 381.788 2325.57 383.688 2328.84 385.458C2334.29 388.458 2339.6 391.048 2344.91 393.368C2345.59 394.188 2346.27 395.008 2346.95 395.958C2347.36 396.368 2347.63 396.778 2348.04 397.318C2348.18 397.458 2348.31 397.588 2348.31 397.728L2348.45 397.868C2349.27 398.818 2349.95 399.908 2350.77 400.858C2352.26 402.768 2353.76 404.678 2354.85 406.858C2355.94 408.768 2356.49 410.398 2356.62 412.578V414.068C2356.48 415.978 2356.08 417.618 2355.53 419.788C2352.67 430.008 2348.85 439.138 2344.22 448.548C2339.59 457.948 2334.41 466.948 2329.38 475.938C2326.79 480.438 2324.07 485.068 2321.61 489.708C2319.02 494.748 2317.39 500.068 2318.34 505.648C2319.84 514.238 2327.19 520.098 2333.46 525.278C2336.87 528.138 2340 530.998 2342.86 534.418C2343.27 534.828 2343.68 535.368 2343.95 535.778C2344.09 535.918 2344.22 536.188 2344.5 536.328C2344.5 536.328 2344.5 536.468 2344.64 536.468C2345.32 537.418 2346 538.378 2346.68 539.328C2347.9 541.098 2349.13 543.008 2350.36 544.908C2353.5 549.958 2356.35 555.268 2359.49 560.448C2360.99 563.038 2362.63 565.628 2364.4 568.218C2366.99 572.038 2369.85 575.848 2372.98 579.258C2373.26 579.538 2373.66 579.938 2373.93 580.218C2374.48 580.758 2374.88 581.168 2375.43 581.708C2375.84 582.118 2376.25 582.528 2376.52 582.938C2376.52 582.938 2376.66 583.078 2376.8 583.208C2377.07 583.488 2377.21 583.888 2377.48 584.158C2377.62 584.438 2377.76 584.568 2377.76 584.838V585.118C2377.9 585.528 2378.03 586.068 2378.03 586.478C2378.03 586.478 2378.17 587.298 2378.17 587.568V589.608C2378.17 591.928 2377.9 594.248 2378.17 596.558C2378.31 597.918 2378.58 599.148 2378.99 600.368C2379.4 601.598 2379.94 602.418 2381.03 603.228C2381.58 603.638 2382.39 603.908 2382.94 604.178C2385.53 605.398 2388.25 606.358 2391.25 606.218C2392.61 606.078 2393.84 605.808 2394.93 605.268C2394.79 605.408 2394.79 605.548 2394.66 605.678C2393.3 607.718 2392.34 610.448 2392.89 612.898C2393.57 616.028 2396.43 617.118 2399.16 617.528C2404.33 618.208 2409.37 618.478 2414.55 617.938C2417.27 617.658 2419.86 617.258 2422.45 616.708C2424.9 616.168 2427.62 615.758 2429.53 613.848C2431.98 611.398 2431.3 608.128 2430.48 605.128C2429.8 602.808 2428.98 600.358 2428.3 597.908C2427.62 595.588 2427.08 593.278 2426.53 590.828C2426.26 589.738 2426.12 588.508 2425.85 587.418C2425.58 585.928 2425.58 585.508 2425.44 584.148C2425.17 581.968 2425.17 579.788 2425.17 577.608V574.618C2425.17 573.938 2425.17 573.258 2425.31 572.568C2425.31 571.348 2425.45 570.248 2425.58 569.028C2425.99 564.118 2426.4 559.078 2426.8 554.178C2427.35 549.268 2427.89 544.908 2428.98 539.868C2431.02 529.918 2434.97 520.518 2436.2 510.298C2438.65 490.398 2432.25 470.778 2428.71 451.558C2426.94 441.878 2425.99 432.478 2425.03 422.398C2424.62 417.898 2424.08 413.408 2423.54 408.768C2429.67 408.768 2435.39 408.498 2440.97 408.218C2440.97 409.718 2440.83 411.218 2440.83 412.718C2440.83 414.078 2441.92 415.308 2443.28 415.308C2444.64 415.308 2445.73 414.218 2445.87 412.858C2445.87 411.358 2446.01 409.718 2446.01 407.948C2463.31 406.448 2477.07 403.858 2485.37 403.728C2503.21 403.318 2519.96 400.048 2536.04 393.918C2536.04 395.278 2535.9 396.368 2535.9 397.188C2535.9 398.548 2536.99 399.778 2538.35 399.778H2538.49C2539.85 399.778 2540.94 398.688 2540.94 397.328C2540.94 395.968 2541.08 394.058 2541.21 391.738C2554.29 386.148 2566.82 378.658 2578.8 368.978C2580.44 377.838 2587.79 386.828 2591.6 395.958C2592.96 399.908 2593.78 403.598 2593.65 406.448V407.398C2592.42 419.668 2592.56 431.928 2594.06 444.058C2595.7 457.408 2598.69 470.768 2597.87 484.258C2596.38 509.888 2583.98 533.728 2572.67 556.218C2566.95 567.528 2560.96 578.848 2554.96 590.018C2554.55 590.838 2554.15 591.658 2553.74 592.468C2551.56 596.558 2549.38 600.778 2546.66 604.318C2545.98 605.138 2545.3 605.958 2544.62 606.768C2542.71 608.948 2540.53 610.178 2538.49 612.088C2535.63 614.678 2534.95 618.898 2537.67 621.758C2539.17 623.398 2541.21 624.488 2543.25 625.578C2543.93 625.848 2544.61 626.258 2545.16 626.528C2548.02 627.758 2551.01 628.848 2554.15 629.388C2556.6 629.798 2559.19 630.208 2561.78 630.208H2563.55C2566.54 630.068 2570.36 629.928 2573.09 628.298C2575.81 626.528 2576.77 622.848 2577.86 619.988C2577.86 619.988 2577.86 619.848 2578 619.848C2579.23 616.848 2580.45 613.718 2581.68 610.718C2584.13 604.858 2586.59 599.138 2589.31 593.408C2600.21 570.098 2612.87 547.618 2627.17 526.358C2628.94 523.768 2630.58 521.178 2631.94 518.448C2633.3 515.178 2634.12 511.908 2634.26 508.498C2634.4 505.358 2634.12 502.088 2633.99 498.958C2633.85 495.688 2633.85 492.418 2633.85 489.148C2634.12 476.608 2635.89 464.348 2638.89 452.218C2640.12 447.178 2641.48 442.268 2642.98 437.368C2650.2 444.318 2657.42 451.408 2664.5 458.498C2668.58 462.448 2672.54 466.538 2675.94 471.038C2679.21 475.128 2682.07 480.168 2684.38 485.078C2689.01 495.168 2691.73 506.618 2694.46 517.518C2697.32 529.238 2699.77 541.098 2700.18 553.088C2700.59 564.678 2699.23 575.578 2695.82 586.758C2695.54 587.708 2695.27 588.668 2694.87 589.478C2693.37 593.838 2691.6 597.928 2689.56 602.148C2689.42 602.558 2689.15 602.968 2689.01 603.238C2688.6 604.058 2688.19 604.738 2687.79 605.418C2687.52 605.828 2687.24 606.378 2686.97 606.778C2686.83 607.048 2686.7 607.188 2686.56 607.458C2686.56 607.458 2686.15 608.008 2686.15 608.138C2685.88 608.548 2685.47 608.958 2685.2 609.228L2684.65 609.778C2684.65 609.778 2684.51 609.918 2684.38 609.918C2684.11 610.188 2683.7 610.328 2683.43 610.468C2683.57 610.328 2682.21 610.738 2682.48 610.738C2680.98 611.008 2679.49 611.008 2678.12 611.828C2676.62 612.648 2675.67 614.278 2675.26 615.918C2674.44 619.188 2675.94 622.458 2678.67 624.228C2680.85 625.728 2683.57 626.278 2686.3 626.548C2689.16 626.958 2692.16 627.228 2695.15 627.228C2700.73 627.228 2706.32 626.278 2711.77 624.638C2714.63 623.818 2717.35 622.728 2719.94 621.368C2721.71 620.548 2723.62 619.728 2724.16 617.688C2724.57 616.048 2724.44 614.148 2724.44 612.378C2724.44 609.928 2724.58 607.468 2724.44 604.888C2724.3 594.798 2723.62 584.718 2722.39 574.768C2721.58 568.628 2720.9 562.498 2721.17 556.228C2719.4 551.318 2720.63 545.598 2721.72 539.738H2721.42ZM643.277 151.188H644.227C643.677 151.328 643.137 151.598 642.587 151.738C642.857 151.458 642.997 151.188 643.267 151.188H643.277ZM368.817 264.988C374.127 267.708 377.947 268.128 381.347 270.848C381.487 270.988 381.627 271.128 381.897 271.258C382.037 271.398 382.167 271.528 382.447 271.668C383.397 272.628 384.357 273.848 385.307 275.488C385.447 275.628 385.577 275.898 385.717 276.038C387.077 279.448 387.767 282.988 387.897 286.528C380.267 279.308 373.317 271.668 367.327 263.488C367.737 264.168 368.277 264.578 368.817 264.988ZM423.717 330.538C424.257 331.088 424.667 331.628 425.207 332.178C425.617 332.728 426.157 333.268 426.567 333.818C425.067 333.278 423.577 332.728 422.207 332.178C422.757 331.498 423.027 330.688 423.027 329.728C423.297 330.008 423.577 330.278 423.707 330.548L423.717 330.538ZM629.937 150.238C630.617 150.918 631.437 151.598 631.977 152.008C633.067 152.828 634.027 153.368 634.977 153.778C629.797 155.008 624.347 156.098 618.907 157.458C622.587 154.868 626.397 152.408 629.937 150.238ZM566.597 220.828C552.977 232.688 542.897 249.448 530.777 263.618C526.967 268.118 522.877 272.478 518.517 276.158C515.927 278.478 513.067 280.518 510.207 282.288C508.567 283.378 507.077 284.338 505.437 285.148C503.397 286.238 501.347 287.188 499.307 288.008C497.807 288.558 496.317 289.098 494.817 289.508C492.907 290.058 491.007 290.458 489.097 290.738C488.147 290.878 487.187 290.878 486.377 291.008H482.287C472.077 290.328 463.217 285.018 455.997 276.968C458.307 277.788 461.177 278.328 462.937 277.918C462.937 276.148 456.537 266.878 454.767 266.338C453.137 265.788 451.087 265.518 449.997 264.158C447.817 261.708 449.317 257.748 448.227 254.758C498.217 243.848 543.027 212.098 581.987 183.618C576.267 193.838 571.087 206.918 566.597 220.818V220.828ZM382.577 299.328C372.907 288.288 366.907 274.388 361.327 260.758C362.007 261.028 362.827 261.438 363.507 261.708C370.457 271.518 378.487 280.788 387.757 289.378V289.648C387.617 291.828 387.617 294.698 389.797 295.238C390.617 295.518 391.437 295.238 392.107 295.648C392.787 296.058 393.057 296.738 393.337 297.418C395.247 302.188 397.287 306.818 399.187 311.588C399.467 309.948 399.737 308.178 400.007 306.548C402.187 311.318 404.227 316.088 406.407 320.858C406.687 319.078 409.267 318.538 410.767 319.498C412.267 320.448 413.087 322.218 413.627 323.988C414.307 325.628 414.857 327.398 415.537 329.038C401.637 321.268 391.147 309.268 382.577 299.328ZM850.047 321.268C850.457 319.628 850.867 317.998 851.267 316.228C851.677 317.448 852.087 318.818 852.497 320.048C851.817 320.458 850.857 320.868 850.047 321.268ZM968.407 256.668C973.717 259.388 977.537 259.808 980.937 262.528C981.077 262.668 981.207 262.798 981.487 262.938C981.627 263.078 981.757 263.208 982.027 263.348C982.977 264.298 983.937 265.528 984.887 267.168C985.027 267.438 985.167 267.578 985.297 267.848C987.067 272.068 987.747 276.708 987.477 281.338C987.477 282.018 987.337 282.838 987.477 283.658C975.217 273.298 965.007 261.988 956.827 250.128C960.367 252.718 964.867 253.808 968.407 256.668ZM1177.76 203.248H1179.12V203.518C1178.44 203.788 1177.9 204.198 1177.21 204.608C1177.35 204.198 1177.62 203.788 1177.76 203.248ZM976.577 291.148C966.497 279.568 960.367 264.848 954.517 250.538C964.597 265.398 977.807 279.168 993.877 291.568C995.507 295.518 997.147 299.468 998.777 303.418C999.047 301.778 999.327 300.008 999.597 298.378C1001.78 303.148 1003.82 307.918 1006 312.688C1006.27 310.908 1008.86 310.368 1010.36 311.328C1011.86 312.288 1012.67 314.048 1013.22 315.818C1014.04 317.998 1014.86 320.318 1015.67 322.498C1015.81 323.038 1016.08 323.588 1016.35 324.138C999.047 316.778 986.517 302.468 976.567 291.158L976.577 291.148ZM1020.03 325.358C1020.57 325.088 1021.12 324.808 1021.52 324.268C1022.2 323.448 1022.47 322.498 1022.61 321.538C1024.38 323.588 1026.01 325.488 1027.78 327.398C1025.2 326.848 1022.47 326.168 1020.02 325.348L1020.03 325.358ZM1151.33 550.778C1151.06 550.778 1150.79 550.778 1150.51 550.638H1149.83C1149.69 549.818 1149.42 548.998 1149.15 548.188C1149.15 548.095 1149.1 548.002 1149.01 547.908C1148.87 547.498 1148.73 547.228 1148.6 546.818C1148.06 545.728 1147.38 544.768 1146.56 543.818C1145.88 542.998 1144.92 542.318 1143.97 541.638C1143.15 541.088 1142.2 540.548 1141.25 539.998C1140.84 539.718 1140.43 539.448 1140.03 539.178C1140.03 539.178 1139.89 539.038 1139.75 539.038C1139.48 538.768 1139.21 538.628 1138.94 538.358C1138.12 537.678 1137.44 536.858 1136.76 536.038C1136.62 535.898 1136.49 535.758 1136.35 535.488C1136.35 535.348 1136.21 535.218 1136.07 535.218C1135.66 534.668 1135.25 534.128 1134.85 533.578C1133.63 531.668 1132.53 529.488 1131.44 527.438C1128.85 522.398 1126.13 517.358 1123.54 512.448C1120.95 507.538 1117.96 502.638 1115.78 497.458V497.178C1115.64 496.908 1115.5 496.638 1115.5 496.358C1115.23 495.678 1115.09 495.138 1114.96 494.448C1114.68 493.498 1114.68 492.538 1114.68 491.178C1114.68 490.768 1114.68 490.358 1114.82 490.088V489.808C1114.96 489.128 1115.09 488.588 1115.23 488.038C1115.64 486.678 1116.05 485.318 1116.59 483.948C1118.22 479.728 1120.13 475.498 1122.44 471.138C1124.76 466.918 1127.21 462.688 1129.79 458.598C1132.65 454.378 1135.1 451.108 1138.24 447.288C1141.37 443.478 1144.78 439.928 1148.32 436.518C1149 435.838 1149.68 435.298 1150.36 434.608C1152.54 443.738 1155.54 452.598 1158.26 461.588C1158.94 463.908 1159.62 466.218 1160.17 468.538C1160.45 469.628 1160.58 470.718 1160.85 471.808C1160.99 472.358 1160.99 472.898 1161.12 473.308C1161.12 473.578 1161.26 473.858 1161.26 474.258V474.938C1161.8 479.578 1161.53 484.068 1161.4 488.568C1161.26 493.608 1162.08 498.248 1164.94 502.468C1165.48 503.288 1166.16 504.238 1166.71 505.058C1166.98 505.468 1167.25 506.008 1167.39 506.418C1167.39 506.418 1167.39 506.558 1167.53 506.688C1167.67 506.958 1167.8 507.368 1167.8 507.778C1167.94 508.328 1168.07 508.728 1168.07 509.278C1168.07 509.548 1168.21 509.688 1168.21 509.958V510.368C1168.35 511.458 1168.35 512.688 1168.49 513.778C1169.31 529.858 1168.49 545.808 1166.17 561.478C1166.03 562.428 1165.9 563.248 1165.76 564.198C1165.35 561.878 1164.4 559.568 1162.62 557.248C1161.12 555.198 1159.21 553.428 1157.04 552.208C1155.95 551.658 1154.86 551.248 1153.63 550.978C1152.81 550.838 1152.13 550.838 1151.31 550.708L1151.33 550.778ZM1336.17 361.478C1336.85 360.938 1337.67 360.258 1338.35 359.708C1338.49 360.258 1338.49 360.658 1338.63 361.208C1337.81 361.348 1336.99 361.348 1336.18 361.478H1336.17ZM1453.31 337.498C1448.95 338.998 1444.46 340.358 1439.83 341.718C1444.32 330.948 1448.41 319.508 1450.86 308.058C1451.54 309.968 1452.22 311.878 1452.77 313.778C1454.95 321.138 1455.76 328.908 1456.18 336.538C1455.23 336.808 1454.27 337.078 1453.32 337.488L1453.31 337.498ZM1597.28 265.948C1602.59 268.678 1606.41 269.088 1609.81 271.808C1609.95 271.948 1610.09 272.088 1610.36 272.218C1610.5 272.358 1610.63 272.488 1610.91 272.628C1611.86 273.578 1612.82 274.808 1613.77 276.438C1613.91 276.578 1614.04 276.848 1614.18 276.988C1615.82 281.078 1616.63 285.568 1616.36 290.068C1606.96 281.348 1598.65 272.218 1591.7 262.398C1593.61 263.488 1595.51 264.438 1597.28 265.938V265.948ZM1652.18 331.368C1652.72 331.918 1653.13 332.458 1653.67 333.008C1654.08 333.558 1654.63 334.098 1655.03 334.648C1653.53 334.108 1652.04 333.558 1650.67 333.008C1651.22 332.328 1651.49 331.518 1651.49 330.558C1651.76 330.968 1651.9 331.238 1652.17 331.378L1652.18 331.368ZM1611.04 300.298C1602.19 290.218 1596.47 277.538 1591.15 264.998C1598.23 274.808 1606.54 283.938 1616.21 292.668C1616.35 294.308 1616.75 295.808 1618.25 296.208C1619.07 296.488 1619.89 296.208 1620.56 296.618C1621.24 297.028 1621.52 297.708 1621.79 298.388C1623.7 303.158 1625.74 307.798 1627.64 312.558C1627.92 310.918 1628.19 309.148 1628.46 307.518C1630.64 312.288 1632.68 317.058 1634.86 321.828C1635.14 320.058 1637.72 319.508 1639.22 320.468C1640.72 321.418 1641.54 323.188 1642.08 324.968C1642.76 326.608 1643.31 328.378 1643.99 330.008C1630.09 322.238 1619.6 310.108 1611.03 300.298H1611.04ZM2215.13 301.258C2204.91 289.538 2198.78 274.548 2192.79 260.098C2192.51 259.418 2192.24 258.738 2191.97 258.058C2192.24 258.198 2192.38 258.328 2192.65 258.468C2196.74 262.418 2202.6 263.238 2206.82 266.778C2212.13 269.508 2215.95 269.918 2219.35 272.638C2219.49 272.778 2219.63 272.908 2219.9 273.048C2220.04 273.188 2220.17 273.318 2220.44 273.458C2221.4 274.408 2222.35 275.638 2223.3 277.268C2223.44 277.548 2223.57 277.678 2223.71 277.948C2225.48 282.168 2226.16 286.808 2225.89 291.438C2225.75 293.618 2225.75 296.478 2227.93 297.018C2228.75 297.298 2229.57 297.018 2230.24 297.428C2230.92 297.838 2231.19 298.518 2231.47 299.198C2233.38 303.968 2235.42 308.608 2237.32 313.368C2237.6 311.728 2237.87 309.958 2238.14 308.328C2240.32 313.098 2242.36 317.868 2244.54 322.638C2244.82 320.868 2247.4 320.318 2248.9 321.278C2250.4 322.228 2251.22 323.998 2251.76 325.778C2252.58 327.958 2253.4 330.268 2254.21 332.458C2254.35 332.998 2254.62 333.548 2254.89 334.098C2237.59 326.878 2225.06 312.558 2215.12 301.258H2215.13ZM2258.58 335.458C2259.13 335.188 2259.67 334.918 2260.08 334.368C2260.76 333.548 2261.03 332.598 2261.17 331.648C2262.94 333.688 2264.58 335.598 2266.35 337.508C2263.63 336.958 2261.04 336.278 2258.58 335.458ZM2389.89 560.878C2389.61 560.878 2389.34 560.878 2389.07 560.738H2388.39C2388.25 559.918 2387.98 559.098 2387.71 558.288C2387.71 558.195 2387.66 558.105 2387.57 558.018C2387.43 557.608 2387.3 557.338 2387.16 556.928C2386.61 555.838 2385.93 554.888 2385.11 553.938C2384.43 553.118 2383.48 552.438 2382.53 551.758C2381.71 551.208 2380.76 550.668 2379.81 550.118C2379.4 549.848 2378.99 549.568 2378.58 549.298C2378.58 549.298 2378.44 549.158 2378.31 549.158C2378.04 548.878 2377.76 548.748 2377.49 548.478C2376.67 547.798 2375.99 546.978 2375.31 546.158C2375.17 546.018 2375.03 545.888 2374.9 545.608C2374.9 545.468 2374.76 545.338 2374.63 545.338C2374.22 544.788 2373.81 544.248 2373.4 543.698C2372.18 541.788 2371.09 539.608 2370 537.568C2367.41 532.518 2364.69 527.478 2362.1 522.578C2359.51 517.678 2356.52 512.768 2354.33 507.588V507.318C2354.19 507.038 2354.06 506.768 2354.06 506.498C2353.78 505.818 2353.65 505.268 2353.51 504.588C2353.24 503.638 2353.24 502.678 2353.24 501.318C2353.24 500.908 2353.24 500.498 2353.38 500.228V499.958C2353.52 499.278 2353.65 498.728 2353.79 498.178C2354.2 496.818 2354.61 495.458 2355.15 494.088C2356.79 489.868 2358.69 485.638 2361 481.278C2363.32 477.058 2365.77 472.828 2368.36 468.738C2371.22 464.518 2373.67 461.248 2376.8 457.428C2379.94 453.608 2383.34 450.068 2386.88 446.658C2387.56 445.978 2388.24 445.438 2388.93 444.748C2391.11 453.878 2394.1 462.738 2396.83 471.728C2397.51 474.048 2398.19 476.368 2398.74 478.678C2399.01 479.768 2399.15 480.858 2399.42 481.948C2399.56 482.488 2399.56 483.038 2399.7 483.438C2399.7 483.718 2399.84 483.988 2399.84 484.398V485.078C2400.38 489.718 2400.11 494.218 2399.98 498.708C2399.84 503.748 2400.66 508.388 2403.52 512.608C2404.06 513.428 2404.74 514.378 2405.29 515.198C2405.56 515.608 2405.83 516.148 2405.97 516.558C2405.97 516.558 2405.97 516.698 2406.11 516.828C2406.25 517.108 2406.38 517.508 2406.38 517.918C2406.52 518.458 2406.65 518.868 2406.65 519.408C2406.65 519.688 2406.79 519.818 2406.79 520.088V520.498C2406.93 521.588 2406.93 522.818 2407.06 523.908C2407.88 539.988 2407.06 555.938 2404.74 571.608C2404.6 572.558 2404.47 573.378 2404.33 574.338C2403.92 572.018 2402.97 569.698 2401.19 567.388C2399.7 565.348 2397.79 563.568 2395.61 562.348C2394.52 561.798 2393.43 561.398 2392.2 561.118C2391.38 560.978 2390.56 560.978 2389.89 560.848V560.878Z" fill="#A88856"/>
</svg>
