<svg width="95" height="84" viewBox="0 0 95 84" fill="none" xmlns="http://www.w3.org/2000/svg">
<path d="M28.4849 84H3.66711V83.7438C3.66711 81.1405 5.78353 79.0241 8.38168 79.0241H23.7703C26.3685 79.0241 28.4849 81.1405 28.4849 83.7438V84Z" fill="white"/>
<path d="M23.2118 46.4326H8.94012V77.5586H23.2118V46.4326Z" fill="white"/>
<path d="M3.66711 39.9962H28.4849V40.2524C28.4849 42.8506 26.3685 44.967 23.7703 44.967H8.38168C5.78353 44.967 3.66711 42.8506 3.66711 40.2524V39.9962Z" fill="white"/>
<path d="M90.642 84H65.8242V83.7438C65.8242 81.1405 67.9406 79.0241 70.5388 79.0241H85.9274C88.5255 79.0241 90.642 81.1405 90.642 83.7438V84Z" fill="white"/>
<path d="M85.3689 46.4326H71.0972V77.5586H85.3689V46.4326Z" fill="white"/>
<path d="M65.8242 39.9962H90.642V40.2524C90.642 42.8506 88.5255 44.967 85.9274 44.967H70.5388C67.9406 44.967 65.8242 42.8506 65.8242 40.2524V39.9962Z" fill="white"/>
<path d="M59.5635 84H34.7457V83.7438C34.7457 81.1405 36.8621 79.0241 39.4603 79.0241H54.8489C57.447 79.0241 59.5635 81.1405 59.5635 83.7438V84Z" fill="white"/>
<path d="M54.2904 46.4326H40.0187V77.5586H54.2904V46.4326Z" fill="white"/>
<path d="M34.7457 39.9962H59.5635V40.2524C59.5635 42.8506 57.447 44.967 54.8489 44.967H39.4603C36.8621 44.967 34.7457 42.8506 34.7457 40.2524V39.9962Z" fill="white"/>
<path d="M46.0797 0.295384L0 27.6901V35.3234H94.3091V27.6901L48.2294 0.295384C47.567 -0.0984612 46.7422 -0.0984612 46.0797 0.295384Z" fill="white"/>
</svg>
