<svg xmlns="http://www.w3.org/2000/svg" width="68" height="54" fill="none" viewBox="0 0 68 54" aria-hidden="true" class="s__gyMw5cOB2ZPkLYN9IEtr" data-test-id="icon" style="display: inline-block;"><path fill="#0C131D" fill-rule="evenodd" d="M47 38c-1.5 0-2-.672-2-1.5s.5-1.5 2-1.5c1.34 0 1.911-.803 2.115-1.09l.006-.009C49.32 33.622 50 32.568 50 31c0-1.5.672-2 1.5-2s1.5.5 1.5 2c0 1.932-.595 3.48-1.496 4.724C50.604 36.968 49.147 38 47 38" clip-rule="evenodd"></path><path fill="#fff" d="M45 36.5c0 .828.5 1.5 2 1.5 2.147 0 3.603-1.032 4.504-2.276C52.404 34.479 53 32.932 53 31c0-1.5-.672-2-1.5-2s-1.5.5-1.5 2c0 1.568-.68 2.622-.879 2.901l-.006.009C48.911 34.197 48.34 35 47 35c-1.5 0-2 .672-2 1.5"></path><path fill="#0C131D" fill-rule="evenodd" d="M8 25.862v2.276C8 39.819 15.203 46 22 46s14-6.18 14-17.862v-2.276c0-6.794-1.82-11.199-4.235-13.863a12 12 0 0 0-.29-.308C29.109 9.26 25.86 8 22 8c-4.02 0-7.378 1.366-9.765 3.999C9.82 14.663 8 19.069 8 25.862" clip-rule="evenodd"></path><path fill="#fff" d="M8 28.138v-2.276C8 19.068 9.82 14.663 12.235 12 14.622 9.366 17.98 8 22 8c3.86 0 7.11 1.26 9.475 3.69q.147.151.29.31C34.18 14.662 36 19.067 36 25.861v2.276C36 39.819 28.797 46 22 46S8 39.82 8 28.138"></path><path fill="#0C131D" fill-rule="evenodd" d="M23 16c5.5 0 10 4.681 10 12.229v1.98C33 37.5 28 42 23 42s-10-4.5-10-11.79v-1.982C13 20.682 17.5 16 23 16m0 22c-1.5 0-2-.672-2-1.5s.5-1.5 2-1.5c1.34 0 1.911-.803 2.115-1.09l.006-.009C25.32 33.622 26 32.568 26 31c0-1.5.672-2 1.5-2s1.5.5 1.5 2c0 1.932-.595 3.48-1.496 4.724C26.604 36.968 25.147 38 23 38" clip-rule="evenodd"></path><path fill="#fff" d="M21 36.5c0 .828.5 1.5 2 1.5 2.147 0 3.604-1.032 4.504-2.276C28.404 34.479 29 32.932 29 31c0-1.5-.672-2-1.5-2s-1.5.5-1.5 2c0 1.568-.68 2.622-.879 2.901l-.006.009C24.911 34.197 24.34 35 23 35c-1.5 0-2 .672-2 1.5"></path><path fill="#0C131D" fill-rule="evenodd" d="M64 25.862C64 10.88 55.941 4 46 4c-4.61 0-8.815 1.48-12 4.56C30.816 5.48 26.61 4 22 4 12.059 4 4 10.879 4 25.862v2.276C4 41.5 12.5 50 22 50c3.89 0 7.613-1.425 10.653-4.027q.699-.597 1.347-1.277.61.64 1.265 1.207C38.32 48.549 42.075 50 46 50c9.5 0 18-8.5 18-21.862zM46 46c6.797 0 14-6.18 14-17.862v-2.276c0-6.794-1.82-11.199-4.235-13.863C53.378 9.366 50.02 8 46 8c-3.86 0-7.11 1.26-9.475 3.69 1.389 2.212 2.416 4.916 2.98 8.133C41.343 17.37 44.025 16 47 16c5.5 0 10 4.681 10 12.229v1.98C57 37.5 52 42 47 42c-3.233 0-6.467-1.882-8.348-5.183-.569 1.7-1.303 3.26-2.174 4.663C39.126 44.465 42.613 46 46 46m1-8c-1.5 0-2-.672-2-1.5s.5-1.5 2-1.5c1.34 0 1.911-.803 2.115-1.09l.006-.009C49.32 33.622 50 32.568 50 31c0-1.5.672-2 1.5-2s1.5.5 1.5 2c0 1.932-.595 3.48-1.496 4.724C50.604 36.968 49.147 38 47 38M8 25.862v2.276C8 39.819 15.203 46 22 46s14-6.18 14-17.862v-2.276c0-6.794-1.82-11.199-4.235-13.863a12 12 0 0 0-.29-.308C29.109 9.26 25.86 8 22 8c-4.02 0-7.378 1.366-9.765 3.999C9.82 14.663 8 19.069 8 25.862" clip-rule="evenodd"></path><path fill="#fff" d="M60 28.138C60 39.819 52.797 46 46 46c-3.387 0-6.874-1.535-9.522-4.52a22.2 22.2 0 0 0 2.174-4.663C40.533 40.118 43.767 42 47 42c5 0 10-4.5 10-11.79v-1.982C57 20.682 52.5 16 47 16c-2.976 0-5.658 1.37-7.495 3.823-.564-3.217-1.591-5.92-2.98-8.132C38.891 9.26 42.14 8 46 8c4.02 0 7.378 1.366 9.765 4C58.18 14.662 60 19.067 60 25.861z"></path><path fill="currentColor" fill-rule="evenodd" d="M0 28.138C0 43.18 9.797 54 22 54c4.365 0 8.514-1.43 12-3.992C37.486 52.57 41.635 54 46 54c12.203 0 22-10.82 22-25.862v-2.276c0-8.19-2.21-14.715-6.309-19.236C57.563 2.072 51.921 0 46 0c-4.298 0-8.457 1.091-12 3.445C30.457 1.091 26.298 0 22 0 16.08 0 10.437 2.073 6.309 6.625 2.209 11.147 0 17.673 0 25.862zm64-2.276C64 10.88 55.941 4 46 4c-4.61 0-8.815 1.48-12 4.56C30.816 5.48 26.61 4 22 4 12.059 4 4 10.879 4 25.862v2.276C4 41.5 12.5 50 22 50c3.89 0 7.613-1.425 10.653-4.027l.081-.07q.656-.567 1.266-1.207.61.64 1.265 1.207C38.322 48.55 42.076 50 46 50c9.5 0 18-8.5 18-21.862z" clip-rule="evenodd"></path></svg>