<svg width="92" height="86" viewBox="0 0 92 86" fill="none" xmlns="http://www.w3.org/2000/svg">
<path d="M11.5234 43.6096H3.19921C2.3203 43.6096 1.51951 43.9729 0.94141 44.551C0.36331 45.1291 0 45.9299 0 46.8088V69.3828C0 70.2617 0.36328 71.0625 0.94141 71.6406C1.51954 72.2187 2.32031 72.582 3.19921 72.582H11.5234V43.6096ZM61.2384 43.1135C59.7618 43.1135 58.4181 43.6955 57.4259 44.6408L57.3283 44.7306C56.3283 45.7306 55.7111 47.1134 55.7111 48.6368C55.7111 50.1095 56.2931 51.4532 57.2423 52.4454L57.3282 52.5392C58.3282 53.5392 59.711 54.1564 61.2384 54.1564C62.7111 54.1564 64.0548 53.5744 65.047 52.6252L65.1407 52.5393C66.1407 51.5393 66.7579 50.1565 66.7579 48.6331C66.7579 47.1175 66.1408 45.7386 65.1368 44.7347C64.1329 43.7308 62.7501 43.1136 61.2345 43.1136L61.2384 43.1135ZM63.0236 46.8479C63.4806 47.301 63.7619 47.9338 63.7619 48.6331C63.7619 49.3284 63.4767 49.9612 62.9924 50.4495C62.5158 50.9026 61.9065 51.1565 61.2385 51.1565C60.5392 51.1565 59.9065 50.8714 59.4182 50.387C58.9689 49.9104 58.7111 49.3011 58.7111 48.6331C58.7111 47.9378 58.9963 47.305 59.4807 46.8167C59.9611 46.3675 60.5705 46.1097 61.2385 46.1097C61.9377 46.1097 62.5705 46.3909 63.0237 46.8441L63.0236 46.8479ZM30.7656 43.1135C29.25 43.1135 27.8711 43.7307 26.8594 44.7385C25.8594 45.7385 25.2422 47.1213 25.2422 48.6369C25.2422 50.1603 25.8594 51.5431 26.8633 52.5392C27.8633 53.5392 29.2461 54.1603 30.7656 54.1603C32.2929 54.1603 33.6758 53.5431 34.6718 52.5392C35.6718 51.5392 36.2929 50.1564 36.2929 48.6369C36.2929 47.1135 35.6757 45.7307 34.6679 44.7307C33.6679 43.7346 32.2851 43.1135 30.7656 43.1135ZM32.5547 46.8518C33.0078 47.3088 33.293 47.9416 33.293 48.637C33.293 49.3362 33.0117 49.969 32.5547 50.4222C32.0977 50.8792 31.4649 51.1605 30.7695 51.1605C30.0703 51.1605 29.4375 50.8792 28.9843 50.4222C28.5273 49.9652 28.246 49.3363 28.246 48.637C28.246 47.9377 28.5273 47.305 28.9843 46.8479C29.4374 46.3948 30.0702 46.1135 30.7695 46.1135C31.4688 46.1135 32.1054 46.3948 32.5586 46.8518H32.5547ZM45.9997 43.1135C44.4763 43.1135 43.0935 43.7307 42.0935 44.7307C41.0935 45.7307 40.4763 47.1135 40.4763 48.6369C40.4763 50.1525 41.0935 51.5353 42.1013 52.5431C43.1013 53.5431 44.4841 54.1603 45.9997 54.1603C47.5153 54.1603 48.8981 53.5431 49.9059 52.5353C50.9059 51.5353 51.5231 50.1525 51.5231 48.6369C51.5231 47.1135 50.9059 45.7307 49.9059 44.7307C48.9098 43.7346 47.5231 43.1135 45.9997 43.1135ZM47.7849 46.8518C48.2419 47.3088 48.5232 47.9377 48.5232 48.637C48.5232 49.3363 48.2419 49.969 47.7849 50.4261C47.3318 50.8792 46.699 51.1605 45.9997 51.1605C45.3004 51.1605 44.6677 50.8792 44.2106 50.4222C43.7575 49.9691 43.4762 49.3363 43.4762 48.637C43.4762 47.9417 43.7614 47.3089 44.2145 46.8518C44.6715 46.3948 45.3004 46.1135 45.9997 46.1135C46.695 46.1135 47.3278 46.3948 47.7849 46.8518ZM45.9997 20.0198C53.902 20.0198 61.0587 23.2229 66.2377 28.4026C71.4174 33.5823 74.6205 40.7386 74.6205 48.6366C74.6205 55.6483 72.0893 62.0776 67.89 67.0626C63.7845 71.9337 58.0814 75.422 51.593 76.7071L47.3352 85.1759C46.968 85.9142 46.0696 86.2111 45.3313 85.8439C45.0305 85.6954 44.804 85.4571 44.6633 85.1759L40.4094 76.7071C33.9211 75.4219 28.2184 71.9337 24.1124 67.0626C19.9132 62.0782 17.3819 55.6526 17.3819 48.6366C17.3819 40.7343 20.585 33.5776 25.7647 28.4026C30.9444 23.2229 38.1017 20.0198 45.9997 20.0198ZM11.5697 40.6098L11.6361 38.1879C11.8939 28.8832 15.8314 20.5239 22.0311 14.4969C28.2303 8.4657 36.6951 4.7586 46.0001 4.7586C55.3051 4.7586 63.7701 8.4656 69.9731 14.4969C76.1723 20.5281 80.1101 28.8839 80.3681 38.1879L80.4345 40.6098H85.2079L85.1376 38.059C84.8446 27.465 80.3603 17.946 73.3016 11.082C66.243 4.2187 56.6066 0 46.0046 0C35.4026 0 25.7666 4.2188 18.7116 11.082C11.653 17.9492 7.16861 27.465 6.87561 38.059L6.8053 40.6098H11.5787H11.5697ZM88.8037 43.6098H80.4795V72.5788H88.8037C89.6826 72.5788 90.4834 72.2155 91.0615 71.6374C91.6396 71.0593 92.0029 70.2585 92.0029 69.3796V46.8056C92.0029 45.9267 91.6396 45.1259 91.0615 44.5478C90.4834 43.9697 89.6826 43.6064 88.8037 43.6064V43.6098Z" fill="white"/>
</svg>
