<svg width="310" height="326" viewBox="0 0 310 326" fill="none" xmlns="http://www.w3.org/2000/svg">
<g clip-path="url(#clip0_13_1925)">
<mask id="mask0_13_1925" style="mask-type:luminance" maskUnits="userSpaceOnUse" x="65" y="136" width="180" height="111">
<path d="M65.625 136.667H244.625V246.51H65.625V136.667Z" fill="white"/>
</mask>
<g mask="url(#mask0_13_1925)">
<path fill-rule="evenodd" clip-rule="evenodd" d="M71.3125 246.031H120.062V172.557C120.062 171.823 120.099 171.089 120.172 170.354C120.245 169.625 120.354 168.896 120.495 168.172C120.641 167.453 120.818 166.74 121.031 166.036C121.245 165.333 121.49 164.641 121.776 163.958C122.057 163.276 122.37 162.615 122.719 161.964C123.063 161.318 123.443 160.688 123.849 160.073C124.26 159.464 124.698 158.87 125.161 158.302C125.63 157.734 126.125 157.188 126.646 156.667C127.167 156.146 127.708 155.651 128.276 155.188C128.849 154.719 129.438 154.281 130.052 153.87C130.661 153.464 131.292 153.083 131.943 152.74C132.589 152.391 133.255 152.078 133.932 151.797C134.615 151.516 135.307 151.266 136.01 151.052C136.714 150.839 137.427 150.661 138.151 150.516C138.87 150.375 139.599 150.266 140.333 150.193C141.062 150.12 141.797 150.083 142.536 150.083H167.536C168.271 150.083 169.005 150.12 169.734 150.193C170.469 150.266 171.198 150.375 171.917 150.516C172.641 150.661 173.354 150.839 174.057 151.052C174.76 151.266 175.453 151.516 176.135 151.797C176.813 152.078 177.479 152.391 178.125 152.74C178.776 153.083 179.406 153.464 180.021 153.87C180.63 154.281 181.224 154.719 181.792 155.188C182.359 155.651 182.906 156.146 183.422 156.667C183.943 157.188 184.438 157.734 184.906 158.302C185.37 158.87 185.807 159.464 186.219 160.073C186.625 160.688 187.005 161.318 187.354 161.964C187.698 162.615 188.016 163.276 188.297 163.958C188.578 164.641 188.823 165.333 189.036 166.036C189.25 166.74 189.427 167.453 189.573 168.172C189.719 168.896 189.823 169.625 189.896 170.354C189.969 171.089 190.005 171.823 190.005 172.557V246.031H244.443V192.021C244.443 190.234 244.354 188.458 244.182 186.682C244.005 184.911 243.745 183.146 243.396 181.401C243.052 179.651 242.615 177.922 242.099 176.219C241.583 174.51 240.984 172.833 240.302 171.188C239.62 169.542 238.854 167.927 238.016 166.359C237.177 164.786 236.26 163.255 235.271 161.776C234.276 160.292 233.219 158.865 232.089 157.484C230.953 156.104 229.76 154.786 228.5 153.526C227.24 152.266 225.917 151.068 224.542 149.938C223.161 148.807 221.729 147.745 220.25 146.755C218.766 145.766 217.24 144.849 215.667 144.01C214.094 143.167 212.484 142.406 210.839 141.724C209.188 141.042 207.516 140.443 205.807 139.927C204.099 139.406 202.375 138.974 200.625 138.625C198.875 138.276 197.115 138.016 195.339 137.844C193.568 137.667 191.786 137.578 190.005 137.578H120.062C118.281 137.578 116.505 137.667 114.729 137.844C112.958 138.016 111.193 138.276 109.448 138.625C107.698 138.974 105.969 139.406 104.266 139.922C102.557 140.443 100.885 141.042 99.2344 141.724C97.5885 142.406 95.9792 143.167 94.4062 144.005C92.8333 144.844 91.3073 145.76 89.8281 146.75C88.3438 147.74 86.9115 148.802 85.5365 149.932C84.1562 151.062 82.8385 152.255 81.5781 153.516C80.3177 154.776 79.1198 156.099 77.9896 157.474C76.8594 158.854 75.7969 160.281 74.8073 161.766C73.8177 163.245 72.901 164.771 72.0625 166.344C71.2187 167.917 70.4583 169.526 69.776 171.172C69.0937 172.818 68.4896 174.495 67.974 176.198C67.4583 177.906 67.0208 179.63 66.6771 181.38C66.3281 183.13 66.0625 184.891 65.8906 186.661C65.7135 188.438 65.625 190.214 65.625 192V246.01L71.3125 246.031Z" fill="white"/>
</g>
<mask id="mask1_13_1925" style="mask-type:luminance" maskUnits="userSpaceOnUse" x="65" y="46" width="56" height="104">
<path d="M65.625 46.5105H121V150H65.625V46.5105Z" fill="white"/>
</mask>
<g mask="url(#mask1_13_1925)">
<path fill-rule="evenodd" clip-rule="evenodd" d="M71.3125 46.8491H120.062V122.677C117.453 122.672 114.849 122.818 112.255 123.11C109.656 123.406 107.089 123.844 104.542 124.427C101.995 125.011 99.4896 125.735 97.026 126.599C94.5625 127.469 92.1563 128.474 89.8073 129.61C87.4583 130.75 85.1771 132.021 82.974 133.417C80.7656 134.818 78.6458 136.333 76.6094 137.969C74.5781 139.61 72.6406 141.354 70.8021 143.214C68.9688 145.068 67.2396 147.026 65.625 149.078V46.8491H71.3125Z" fill="white"/>
</g>
<mask id="mask2_13_1925" style="mask-type:luminance" maskUnits="userSpaceOnUse" x="189" y="46" width="56" height="104">
<path d="M189 46.5105H244.625V150H189V46.5105Z" fill="white"/>
</mask>
<g mask="url(#mask2_13_1925)">
<path fill-rule="evenodd" clip-rule="evenodd" d="M238.745 46.8491H190V122.677C192.609 122.672 195.214 122.818 197.812 123.11C200.406 123.406 202.979 123.844 205.521 124.427C208.068 125.011 210.573 125.735 213.036 126.599C215.5 127.469 217.906 128.474 220.255 129.61C222.609 130.75 224.885 132.021 227.094 133.417C229.297 134.818 231.422 136.333 233.453 137.969C235.49 139.61 237.422 141.354 239.26 143.214C241.099 145.068 242.823 147.026 244.438 149.078V46.8491H238.745Z" fill="white"/>
</g>
<mask id="mask3_13_1925" style="mask-type:luminance" maskUnits="userSpaceOnUse" x="119" y="112" width="71" height="26">
<path d="M119.786 112H189.786V138H119.786V112Z" fill="white"/>
</mask>
<g mask="url(#mask3_13_1925)">
<path d="M136.276 112C135.031 112.026 133.969 112.536 133.042 113.385C133.042 113.385 132.328 113.641 132.161 113.276C131.833 112.557 131.255 112.167 130.927 112.338C130.292 112.672 130.651 114.776 130.354 114.823C129.896 115.156 129.208 115.38 128.974 116.094C128.776 116.703 127.771 116.536 127.562 116.865C127.672 117.302 128.052 117.094 128.302 117.208C127.677 118.338 126.224 118.573 125.26 119.547C125.01 119.958 125.323 120.375 125.234 120.677C125.073 121.26 124.708 121.641 124.625 122.234C124.5 123.125 124.573 124.052 124.135 124.948C123.771 125.812 123.38 126.656 122.896 127.437C122.396 128.24 121.484 128.766 121.114 129.625C120.812 130.323 120.984 131.281 120.875 133.042C120.797 134.104 120.531 134.349 120.526 135.583C120.51 135.776 120.463 135.953 120.406 136.135C120.349 136.328 120.255 136.495 120.182 136.698C120.078 136.995 120.562 137.328 121.776 137.651C121.937 137.698 122.187 137.797 122.219 137.588C122.234 137.302 121.875 137.12 121.724 136.87C121.63 136.719 121.526 136.573 121.469 136.406C121.333 135.99 121.25 135.547 121.271 135.109C121.318 134 121.781 132.661 122.042 131.88C122.292 131.146 124.031 128.99 125.088 127.594C125.536 127.01 126.042 127.042 126.427 126.729C126.917 126.333 127.333 125.901 127.771 125.484C128.021 125.656 128.364 126.854 128.489 127.562C128.614 128.271 128.526 129.042 128.484 129.734C128.443 130.417 128.245 131.026 128.359 131.797C128.672 132.708 129.573 133.193 130.5 134.609C131.167 135.625 131.542 136.359 131.781 136.812C131.823 136.885 131.854 136.953 131.854 137.031C131.854 137.135 131.766 137.219 131.745 137.333C131.687 137.641 132.213 137.901 133.463 138.042C133.63 138.062 133.891 138.125 133.891 137.911C133.864 137.604 133.443 137.552 133.276 137.245C132.974 136.557 132.547 136.141 132.141 135.615C131.432 134.698 130.906 133.786 130.495 132.646C130.354 132.187 130.208 131.875 130.177 131.083C130.151 130.297 130.375 129.891 130.432 129.437C130.489 128.963 130.474 128.463 130.713 127.807C130.958 127.115 131.62 126.213 131.417 125.312C131.286 124.792 130.984 124.463 130.953 124C130.932 123.698 130.995 123.312 131.13 123.115C131.453 122.708 133.172 123.818 134.177 124.198C135.01 124.417 136.495 124.516 137.641 124.219C137.875 124.135 138.062 124.698 138.557 125.01C139.094 125.354 139.927 125.135 140.812 125.896C140.672 127.245 140.594 128.245 140.25 129.453C140.047 130.146 139.724 130.693 139.724 131.562C139.724 132.167 139.838 132.719 139.797 133.255C139.745 133.984 139.474 134.812 139.422 135.599C139.391 136.01 139.536 136.635 139.469 137.146C139.448 137.323 139.328 137.479 139.323 137.651C139.312 137.963 139.87 138.141 141.125 138.088C141.297 138.083 141.562 138.104 141.531 137.896C141.453 137.599 140.979 137.588 140.823 137.333C140.609 136.995 140.62 136.661 140.568 136.167C140.448 135.193 140.562 134.323 140.734 133.427C140.818 133.01 141.031 132.562 141.172 132.224C141.292 131.927 141.375 131.693 141.437 131.411C141.495 131.12 141.489 130.838 141.526 130.526C141.578 130.047 141.672 129.557 141.828 129.068C142.12 128.349 142.375 127.687 142.88 126.969C143.599 127.63 144.557 128.26 145.203 129.104C145.672 129.724 145.932 130.526 145.844 131.37C145.812 131.635 145.703 131.896 145.422 132.135C144.573 132.901 144 134.25 142.875 134.646C142.651 134.724 142.401 134.557 142.161 134.573C141.849 134.599 141.739 135.177 141.932 136.417C141.958 136.583 141.969 136.849 142.172 136.797C142.463 136.687 142.396 136.266 142.656 136.026C143.5 135.354 143.739 135.682 144.219 135.104C144.708 134.531 145.193 133.948 145.698 133.323C146.13 132.802 146.542 132.281 147.125 131.724C147.333 131.531 147.547 131.344 147.703 131.078C147.802 130.937 147.885 130.802 147.917 130.646C147.995 130.224 147.568 129.984 147.307 129.682C146.948 129.297 146.51 128.792 146.239 128.391C146.161 128.276 144.432 125.479 144.489 125.229C145.26 124.797 145.849 124.161 146.208 123.271C147.229 123.078 148.094 122.969 148.922 123.031C149.156 123.052 149.391 123.115 149.625 123.135C150.031 123.172 150.385 123.047 150.917 122.88C151.771 122.609 152.755 122.172 153.208 121.818C153.338 121.713 156.495 119.047 156.974 118.021C157.114 117.641 157.094 117.24 157.307 116.963C157.474 116.755 157.802 116.713 158.052 116.588C158.864 116.286 158.943 115.401 160.005 114.937C160.088 114.901 160.167 114.885 160.25 114.875C161.062 118.943 162.489 124.344 165.406 128.01C166.917 129.906 168.828 131.338 171.26 131.849C173.323 132.281 175.739 132.052 178.583 130.917C178.588 130.927 178.594 130.937 178.594 130.948C178.682 131.24 178.849 131.562 179.172 131.62C179.453 131.667 179.802 131.828 179.76 132.172C179.739 132.542 179.292 132.484 179.114 132.734C178.875 132.974 179.088 133.396 179.385 133.448C179.656 133.51 179.927 133.411 180.198 133.427C180.448 133.422 180.724 133.391 180.922 133.219C181.203 133.12 181.104 133.432 181.016 133.573C180.864 134.021 180.849 134.521 181.031 134.969C181.12 135.245 181.151 135.536 181.198 135.818C181.172 136.141 181.255 136.49 181.057 136.771C180.901 137.052 180.807 137.385 180.854 137.708C180.88 137.979 181.135 138.115 181.328 138.26C181.557 138.463 181.859 138.443 182.135 138.458C182.443 138.479 182.745 138.505 183.052 138.469C183.391 138.234 182.979 137.885 182.729 137.812C182.51 137.599 182.104 137.5 182.078 137.151C182.104 136.833 182.062 136.516 182.135 136.208C182.193 136.078 182.042 135.62 182.297 135.823C182.474 136.073 182.734 136.245 183.031 136.302C183.432 136.396 183.849 136.344 184.255 136.349C184.614 136.354 184.974 136.328 185.328 136.38C185.594 136.443 185.88 136.573 186.146 136.443C186.344 136.172 186.708 136.401 186.682 136.693C186.703 137.016 186.766 137.323 186.818 137.635C186.885 137.995 187.172 137.953 187.505 137.771C187.823 137.594 188.229 137.568 188.521 137.422C189.026 137.24 189.364 137.062 189.797 136.932C189.943 136.604 189.453 136.573 189.245 136.51C188.844 136.427 188.422 136.599 188.036 136.427C187.698 136.302 187.505 135.969 187.271 135.719C187.073 135.495 187.078 135.182 186.943 134.927C186.838 134.641 186.802 134.333 186.708 134.047C186.646 133.76 186.609 133.469 186.526 133.187C186.458 132.693 186.359 132.208 186.318 131.713C186.37 131.297 186.083 130.963 185.953 130.594C185.786 130.286 185.771 129.927 185.609 129.62C185.437 129.38 185.187 129.177 185.135 128.87C185.068 128.677 184.88 128.37 185.088 128.224C185.391 128.198 185.505 128.547 185.672 128.74C185.859 128.979 186.026 129.318 186.37 129.328C186.667 129.391 187 129.13 186.776 128.828C186.578 128.552 186.37 128.281 186.239 127.958C186.088 127.734 185.87 127.568 185.734 127.333C185.583 127.115 185.531 126.844 185.354 126.641C185.167 126.391 185.078 126.083 185.021 125.781C185 125.354 185.135 124.948 185.203 124.531C185.26 124 185.052 123.479 185.104 122.948C185.109 122.588 185.13 122.224 185.042 121.87C185 121.609 184.958 121.302 185.141 121.083C185.359 120.828 185.812 121.187 185.943 120.844C185.953 120.667 186.016 120.49 186.156 120.406C186.198 120.38 186.281 120.385 186.312 120.359C186.516 120.172 186.323 119.885 186.286 119.672C186.198 119.338 186.505 119.062 186.458 118.74C186.338 118.479 186.073 118.276 185.802 118.198C184.568 117.948 184.047 118.953 184.266 120.031C184.385 120.37 184.161 120.661 183.958 120.906C183.776 121.255 183.354 121.026 183.052 121.073C182.833 121.057 182.641 121.198 182.547 121.391C182.38 121.734 182.208 122.078 181.989 122.391C181.771 122.734 181.505 123.052 181.312 123.411C181.182 123.734 181.146 124.083 181.083 124.427C181.042 124.88 181.057 125.344 180.989 125.797C180.932 126.187 181.094 126.557 181.099 126.943C180.969 127.219 180.786 127.49 180.802 127.812C180.708 128.219 180.516 128.588 180.354 128.969C180.255 129.193 180.083 129.375 179.87 129.49C179.547 129.734 179.224 129.979 178.922 130.25C178.844 130.338 178.739 130.437 178.667 130.542C175.781 131.734 173.364 131.969 171.328 131.542C168.979 131.047 167.13 129.667 165.651 127.812C162.812 124.24 161.38 118.901 160.568 114.854C160.739 114.849 160.906 114.828 161.036 114.724C161.203 114.594 161.354 114.422 161.338 114.167C161.333 113.745 160.812 113.083 160.302 112.896C160.036 112.797 159.547 112.906 159.219 112.927C158.724 112.958 158.286 113.021 157.859 113.167C157.292 113.01 156.802 112.656 156.052 112.99C156.052 112.99 155.526 112.437 155.266 112.578C155.104 112.667 155.062 113.49 155.062 113.495C154.838 113.734 154.588 113.937 154.364 114.385C154.141 114.87 153.984 115.156 153.734 115.474C153.526 115.734 153.432 116.036 153.271 116.312C152.849 117.026 152.276 117.526 151.958 118.427C151.51 119.13 151.094 119.182 150.588 119.255C149.437 119.391 148.437 118.984 147.479 118.458C146.307 117.948 145.229 117.338 144.167 116.234C143.948 115.911 144.458 115.531 144.333 115.099C144.198 114.682 143.755 114.693 143.427 114.37C142.937 113.885 143.016 112.943 142.286 112.672C141.713 112.49 141.505 114.073 141.094 113.661C139.661 112.187 138.161 112.073 136.818 112.021C136.635 112 136.453 111.995 136.276 112ZM181.599 129.526C181.385 129.797 181.667 130.125 181.599 130.427C181.594 130.865 181.583 131.302 181.583 131.74C181.526 132.047 181.198 131.859 181.01 131.901C180.672 131.906 180.333 131.766 180.083 131.547C179.87 131.328 180.068 131.057 180.292 130.953C180.5 130.797 180.734 130.677 180.958 130.542C181.266 130.271 181.286 129.802 181.599 129.526Z" fill="white"/>
</g>
<mask id="mask4_13_1925" style="mask-type:luminance" maskUnits="userSpaceOnUse" x="65" y="5" width="30" height="43">
<path d="M65.4583 5.23438H94.3333V47.2344H65.4583V5.23438Z" fill="white"/>
</mask>
<g mask="url(#mask4_13_1925)">
<path d="M93.6405 5.23438C92.729 6.92708 91.9894 7.82292 91.1821 8.29688C83.7186 12.6719 78.7811 15.9896 76.2759 18.0938C73.3957 20.5156 71.1717 22.7813 69.5363 24.8542C65.4634 30 66.0675 47.5 66.7863 47.474C67.505 47.4427 87.6196 47.0365 94.0675 46.9271L93.6405 5.23438Z" fill="white" fill-opacity="0.996"/>
</g>
<mask id="mask5_13_1925" style="mask-type:luminance" maskUnits="userSpaceOnUse" x="93" y="5" width="29" height="43">
<path d="M93 5.23438H121.458V47.2344H93V5.23438Z" fill="white"/>
</mask>
<g mask="url(#mask5_13_1925)">
<path d="M93.6405 5.23438C94.5468 6.92708 95.2864 7.82292 96.0937 8.29688C103.562 12.6719 108.5 15.9896 111.005 18.0938C113.885 20.5156 116.104 22.7813 117.74 24.8542C121.812 30 121.213 47.5 120.49 47.474C119.771 47.4427 99.6614 47.0365 93.2083 46.9271L93.6405 5.23438Z" fill="white" fill-opacity="0.996"/>
</g>
<mask id="mask6_13_1925" style="mask-type:luminance" maskUnits="userSpaceOnUse" x="189" y="6" width="30" height="43">
<path d="M189.01 6.23438H218.333V48.2344H189.01V6.23438Z" fill="white"/>
</mask>
<g mask="url(#mask6_13_1925)">
<path d="M217.193 6.23438C216.281 7.92708 215.542 8.82292 214.734 9.29688C207.266 13.6719 202.328 16.9896 199.823 19.0938C196.943 21.5156 194.724 23.7813 193.089 25.8542C189.016 31 189.62 48.5 190.339 48.474C191.057 48.4427 211.167 48.0365 217.62 47.9271L217.193 6.23438Z" fill="white" fill-opacity="0.996"/>
</g>
<mask id="mask7_13_1925" style="mask-type:luminance" maskUnits="userSpaceOnUse" x="215" y="6" width="30" height="43">
<path d="M215.667 6.23438H245V48.2344H215.667V6.23438Z" fill="white"/>
</mask>
<g mask="url(#mask7_13_1925)">
<path d="M217.188 6.23438C218.099 7.92708 218.839 8.82292 219.646 9.29688C227.115 13.6719 232.052 16.9896 234.557 19.0938C237.438 21.5156 239.656 23.7813 241.292 25.8542C245.365 31 244.76 48.5 244.042 48.474C243.323 48.4427 223.214 48.0365 216.76 47.9271L217.188 6.23438Z" fill="white" fill-opacity="0.996"/>
</g>
<mask id="mask8_13_1925" style="mask-type:luminance" maskUnits="userSpaceOnUse" x="218" y="111" width="21" height="2">
<path d="M218.229 111.333H238.333V112.667H218.229V111.333Z" fill="white"/>
</mask>
<g mask="url(#mask8_13_1925)">
<path d="M237.734 111.677H218.432C218.328 111.677 218.276 111.625 218.276 111.521C218.276 111.422 218.328 111.37 218.432 111.37H237.734C237.839 111.37 237.891 111.422 237.891 111.521C237.891 111.625 237.839 111.677 237.734 111.677Z" fill="#DDDCDB"/>
</g>
<path d="M240.969 114.396H222.76C222.656 114.396 222.604 114.344 222.604 114.245C222.604 114.141 222.656 114.089 222.76 114.089H240.969C241.073 114.089 241.125 114.141 241.125 114.245C241.125 114.344 241.073 114.396 240.969 114.396Z" fill="#DDDCDB"/>
<mask id="mask9_13_1925" style="mask-type:luminance" maskUnits="userSpaceOnUse" x="226" y="108" width="19" height="2">
<path d="M226.333 108.536H244.229V110H226.333V108.536Z" fill="white"/>
</mask>
<g mask="url(#mask9_13_1925)">
<path d="M244.167 108.849H227.422C227.318 108.849 227.266 108.797 227.266 108.693C227.266 108.588 227.318 108.536 227.422 108.536H244.167C244.271 108.536 244.323 108.588 244.323 108.693C244.323 108.797 244.271 108.849 244.167 108.849Z" fill="#DDDCDB"/>
</g>
<path d="M237.88 117.167H219.672C219.568 117.167 219.516 117.12 219.516 117.016C219.516 116.911 219.568 116.859 219.672 116.859H237.88C237.979 116.859 238.031 116.911 238.031 117.016C238.031 117.12 237.979 117.167 237.88 117.167Z" fill="#DDDCDB"/>
<path d="M225.089 114.287C224.984 114.287 224.932 114.234 224.932 114.135V111.521C224.932 111.422 224.984 111.37 225.089 111.37C225.188 111.37 225.24 111.422 225.24 111.521V114.135C225.24 114.234 225.188 114.287 225.089 114.287Z" fill="#DDDCDB"/>
<path d="M232.443 114.287C232.338 114.287 232.286 114.234 232.286 114.135V111.521C232.286 111.422 232.338 111.37 232.443 111.37C232.547 111.37 232.594 111.422 232.594 111.521V114.135C232.594 114.234 232.547 114.287 232.443 114.287Z" fill="#DDDCDB"/>
<mask id="mask10_13_1925" style="mask-type:luminance" maskUnits="userSpaceOnUse" x="231" y="116" width="2" height="4">
<path d="M231.667 116.667H233V119.537H231.667V116.667Z" fill="white"/>
</mask>
<g mask="url(#mask10_13_1925)">
<path d="M232.432 119.87C232.328 119.87 232.276 119.818 232.276 119.714V117.104C232.276 117 232.328 116.948 232.432 116.948C232.531 116.948 232.583 117 232.583 117.104V119.714C232.583 119.818 232.531 119.87 232.432 119.87Z" fill="#DDDCDB"/>
</g>
<path d="M235.964 111.677C235.859 111.677 235.807 111.625 235.807 111.521V108.911C235.807 108.807 235.859 108.755 235.964 108.755C236.063 108.755 236.115 108.807 236.115 108.911V111.521C236.115 111.625 236.063 111.677 235.964 111.677Z" fill="#DDDCDB"/>
<path d="M228.604 117.115C228.505 117.115 228.453 117.068 228.453 116.964V114.349C228.453 114.25 228.505 114.198 228.604 114.198C228.708 114.198 228.76 114.25 228.76 114.349V116.964C228.76 117.068 228.708 117.115 228.604 117.115Z" fill="#DDDCDB"/>
<path d="M228.604 111.635C228.505 111.635 228.453 111.583 228.453 111.479V108.87C228.453 108.766 228.505 108.714 228.604 108.714C228.708 108.714 228.76 108.766 228.76 108.87V111.479C228.76 111.583 228.708 111.635 228.604 111.635Z" fill="#DDDCDB"/>
<path d="M235.964 117.115C235.859 117.115 235.807 117.068 235.807 116.964V114.349C235.807 114.25 235.859 114.198 235.964 114.198C236.063 114.198 236.115 114.25 236.115 114.349V116.964C236.115 117.068 236.063 117.115 235.964 117.115Z" fill="#DDDCDB"/>
<mask id="mask11_13_1925" style="mask-type:luminance" maskUnits="userSpaceOnUse" x="225" y="116" width="2" height="4">
<path d="M225 116.667H226.333V119.537H225V116.667Z" fill="white"/>
</mask>
<g mask="url(#mask11_13_1925)">
<path d="M225.203 119.755C225.099 119.755 225.047 119.703 225.047 119.604V116.99C225.047 116.891 225.099 116.839 225.203 116.839C225.302 116.839 225.354 116.891 225.354 116.99V119.604C225.354 119.703 225.302 119.755 225.203 119.755Z" fill="#DDDCDB"/>
</g>
<mask id="mask12_13_1925" style="mask-type:luminance" maskUnits="userSpaceOnUse" x="66" y="96" width="21" height="2">
<path d="M66.2812 96.6667H86.3333V98.0001H66.2812V96.6667Z" fill="white"/>
</mask>
<g mask="url(#mask12_13_1925)">
<path d="M85.7865 97.4479H66.4844C66.3802 97.4479 66.3281 97.3958 66.3281 97.2969C66.3281 97.1927 66.3802 97.1406 66.4844 97.1406H85.7865C85.8906 97.1406 85.9427 97.1927 85.9427 97.2969C85.9427 97.3958 85.8906 97.4479 85.7865 97.4479Z" fill="#DDDCDB"/>
</g>
<path d="M89.0208 100.172H70.8125C70.7083 100.172 70.6562 100.12 70.6562 100.016C70.6562 99.9114 70.7083 99.8645 70.8125 99.8645H89.0208C89.125 99.8645 89.1771 99.9114 89.1771 100.016C89.1771 100.12 89.125 100.172 89.0208 100.172Z" fill="#DDDCDB"/>
<mask id="mask13_13_1925" style="mask-type:luminance" maskUnits="userSpaceOnUse" x="74" y="94" width="19" height="2">
<path d="M74.3333 94.3125H92.2812V95.3333H74.3333V94.3125Z" fill="white"/>
</mask>
<g mask="url(#mask13_13_1925)">
<path d="M92.2187 94.6198H75.4739C75.3697 94.6198 75.3176 94.5677 75.3176 94.4688C75.3176 94.3646 75.3697 94.3125 75.4739 94.3125H92.2187C92.3228 94.3125 92.3749 94.3646 92.3749 94.4688C92.3749 94.5677 92.3228 94.6198 92.2187 94.6198Z" fill="#DDDCDB"/>
</g>
<path d="M85.9322 102.943H67.7187C67.6197 102.943 67.5676 102.891 67.5676 102.787C67.5676 102.688 67.6197 102.635 67.7187 102.635H85.9322C86.0312 102.635 86.0833 102.688 86.0833 102.787C86.0833 102.891 86.0312 102.943 85.9322 102.943Z" fill="#DDDCDB"/>
<path d="M73.1406 100.062C73.0365 100.062 72.9844 100.01 72.9844 99.9062V97.2969C72.9844 97.1927 73.0365 97.1406 73.1406 97.1406C73.2396 97.1406 73.2917 97.1927 73.2917 97.2969V99.9062C73.2917 100.01 73.2396 100.062 73.1406 100.062Z" fill="#DDDCDB"/>
<path d="M80.4949 100.062C80.3907 100.062 80.3386 100.01 80.3386 99.9062V97.2969C80.3386 97.1927 80.3907 97.1406 80.4949 97.1406C80.5938 97.1406 80.6459 97.1927 80.6459 97.2969V99.9062C80.6459 100.01 80.5938 100.062 80.4949 100.062Z" fill="#DDDCDB"/>
<mask id="mask14_13_1925" style="mask-type:luminance" maskUnits="userSpaceOnUse" x="79" y="102" width="2" height="4">
<path d="M79.6667 102H81.0001V105.312H79.6667V102Z" fill="white"/>
</mask>
<g mask="url(#mask14_13_1925)">
<path d="M80.4792 105.641C80.3802 105.641 80.3281 105.588 80.3281 105.49V102.875C80.3281 102.776 80.3802 102.724 80.4792 102.724C80.5833 102.724 80.6354 102.776 80.6354 102.875V105.49C80.6354 105.588 80.5833 105.641 80.4792 105.641Z" fill="#DDDCDB"/>
</g>
<mask id="mask15_13_1925" style="mask-type:luminance" maskUnits="userSpaceOnUse" x="83" y="94" width="2" height="4">
<path d="M83.6667 94.3125H85.0001V98H83.6667V94.3125Z" fill="white"/>
</mask>
<g mask="url(#mask15_13_1925)">
<path d="M84.0104 97.4479C83.9115 97.4479 83.8594 97.3958 83.8594 97.2969V94.6823C83.8594 94.5833 83.9115 94.5312 84.0104 94.5312C84.1146 94.5312 84.1667 94.5833 84.1667 94.6823V97.2969C84.1667 97.3958 84.1146 97.4479 84.0104 97.4479Z" fill="#DDDCDB"/>
</g>
<path d="M76.6562 102.891C76.552 102.891 76.5051 102.839 76.5051 102.734V100.125C76.5051 100.021 76.552 99.9688 76.6562 99.9688C76.7603 99.9688 76.8124 100.021 76.8124 100.125V102.734C76.8124 102.839 76.7603 102.891 76.6562 102.891Z" fill="#DDDCDB"/>
<mask id="mask16_13_1925" style="mask-type:luminance" maskUnits="userSpaceOnUse" x="75" y="94" width="2" height="4">
<path d="M75.6667 94.3125H77.0001V98H75.6667V94.3125Z" fill="white"/>
</mask>
<g mask="url(#mask16_13_1925)">
<path d="M76.6564 97.4062C76.5522 97.4062 76.5054 97.3541 76.5054 97.2551V94.6405C76.5054 94.5416 76.5522 94.4895 76.6564 94.4895C76.7606 94.4895 76.8127 94.5416 76.8127 94.6405V97.2551C76.8127 97.3541 76.7606 97.4062 76.6564 97.4062Z" fill="#DDDCDB"/>
</g>
<path d="M84.0104 102.891C83.9115 102.891 83.8594 102.839 83.8594 102.734V100.125C83.8594 100.021 83.9115 99.9688 84.0104 99.9688C84.1146 99.9688 84.1667 100.021 84.1667 100.125V102.734C84.1667 102.839 84.1146 102.891 84.0104 102.891Z" fill="#DDDCDB"/>
<mask id="mask17_13_1925" style="mask-type:luminance" maskUnits="userSpaceOnUse" x="73" y="102" width="2" height="4">
<path d="M73 102H74.3333V105.312H73V102Z" fill="white"/>
</mask>
<g mask="url(#mask17_13_1925)">
<path d="M73.2499 105.531C73.151 105.531 73.0989 105.479 73.0989 105.375V102.766C73.0989 102.661 73.151 102.609 73.2499 102.609C73.3541 102.609 73.4062 102.661 73.4062 102.766V105.375C73.4062 105.479 73.3541 105.531 73.2499 105.531Z" fill="#DDDCDB"/>
</g>
<mask id="mask18_13_1925" style="mask-type:luminance" maskUnits="userSpaceOnUse" x="66" y="48" width="21" height="2">
<path d="M66.2812 48.6667H86.3333V50.0001H66.2812V48.6667Z" fill="white"/>
</mask>
<g mask="url(#mask18_13_1925)">
<path d="M85.7865 49.6459H66.4844C66.3802 49.6459 66.3281 49.5938 66.3281 49.4949C66.3281 49.3907 66.3802 49.3386 66.4844 49.3386H85.7865C85.8906 49.3386 85.9427 49.3907 85.9427 49.4949C85.9427 49.5938 85.8906 49.6459 85.7865 49.6459Z" fill="#DDDCDB"/>
</g>
<path d="M89.0208 52.3647H70.8125C70.7083 52.3647 70.6562 52.3178 70.6562 52.2136C70.6562 52.1095 70.7083 52.0574 70.8125 52.0574H89.0208C89.125 52.0574 89.1771 52.1095 89.1771 52.2136C89.1771 52.3178 89.125 52.3647 89.0208 52.3647Z" fill="#DDDCDB"/>
<mask id="mask19_13_1925" style="mask-type:luminance" maskUnits="userSpaceOnUse" x="74" y="46" width="19" height="2">
<path d="M74.3333 46.5105H92.2812V47.3334H74.3333V46.5105Z" fill="white"/>
</mask>
<g mask="url(#mask19_13_1925)">
<path d="M92.2187 46.8178H75.4739C75.3697 46.8178 75.3176 46.7657 75.3176 46.6615C75.3176 46.5626 75.3697 46.5105 75.4739 46.5105H92.2187C92.3228 46.5105 92.3749 46.5626 92.3749 46.6615C92.3749 46.7657 92.3228 46.8178 92.2187 46.8178Z" fill="#DDDCDB"/>
</g>
<path d="M85.9322 55.1405H67.7187C67.6197 55.1405 67.5676 55.0885 67.5676 54.9843C67.5676 54.8801 67.6197 54.8333 67.7187 54.8333H85.9322C86.0312 54.8333 86.0833 54.8801 86.0833 54.9843C86.0833 55.0885 86.0312 55.1405 85.9322 55.1405Z" fill="#DDDCDB"/>
<path d="M73.1406 52.2553C73.0365 52.2553 72.9844 52.2084 72.9844 52.1042V49.4949C72.9844 49.3907 73.0365 49.3386 73.1406 49.3386C73.2396 49.3386 73.2917 49.3907 73.2917 49.4949V52.1042C73.2917 52.2084 73.2396 52.2553 73.1406 52.2553Z" fill="#DDDCDB"/>
<path d="M80.4949 52.2553C80.3907 52.2553 80.3386 52.2084 80.3386 52.1042V49.4949C80.3386 49.3907 80.3907 49.3386 80.4949 49.3386C80.5938 49.3386 80.6459 49.3907 80.6459 49.4949V52.1042C80.6459 52.2084 80.5938 52.2553 80.4949 52.2553Z" fill="#DDDCDB"/>
<mask id="mask20_13_1925" style="mask-type:luminance" maskUnits="userSpaceOnUse" x="79" y="54" width="2" height="4">
<path d="M79.6667 54H81.0001V57.5104H79.6667V54Z" fill="white"/>
</mask>
<g mask="url(#mask20_13_1925)">
<path d="M80.4792 57.8385C80.3802 57.8385 80.3281 57.7865 80.3281 57.6875V55.0729C80.3281 54.9687 80.3802 54.9219 80.4792 54.9219C80.5833 54.9219 80.6354 54.9687 80.6354 55.0729V57.6875C80.6354 57.7865 80.5833 57.8385 80.4792 57.8385Z" fill="#DDDCDB"/>
</g>
<mask id="mask21_13_1925" style="mask-type:luminance" maskUnits="userSpaceOnUse" x="83" y="46" width="2" height="4">
<path d="M83.6667 46.5105H85.0001V50.0001H83.6667V46.5105Z" fill="white"/>
</mask>
<g mask="url(#mask21_13_1925)">
<path d="M84.0104 49.6459C83.9115 49.6459 83.8594 49.5938 83.8594 49.4949V46.8803C83.8594 46.7761 83.9115 46.7292 84.0104 46.7292C84.1146 46.7292 84.1667 46.7761 84.1667 46.8803V49.4949C84.1667 49.5938 84.1146 49.6459 84.0104 49.6459Z" fill="#DDDCDB"/>
</g>
<path d="M76.6562 55.0886C76.552 55.0886 76.5051 55.0365 76.5051 54.9324V52.323C76.5051 52.2188 76.552 52.1667 76.6562 52.1667C76.7603 52.1667 76.8124 52.2188 76.8124 52.323V54.9324C76.8124 55.0365 76.7603 55.0886 76.6562 55.0886Z" fill="#DDDCDB"/>
<mask id="mask22_13_1925" style="mask-type:luminance" maskUnits="userSpaceOnUse" x="75" y="46" width="2" height="4">
<path d="M75.6667 46.5105H77.0001V50.0001H75.6667V46.5105Z" fill="white"/>
</mask>
<g mask="url(#mask22_13_1925)">
<path d="M76.6564 49.6042C76.5522 49.6042 76.5054 49.5522 76.5054 49.448V46.8386C76.5054 46.7345 76.5522 46.6824 76.6564 46.6824C76.7606 46.6824 76.8127 46.7345 76.8127 46.8386V49.448C76.8127 49.5522 76.7606 49.6042 76.6564 49.6042Z" fill="#DDDCDB"/>
</g>
<path d="M84.0104 55.0886C83.9115 55.0886 83.8594 55.0365 83.8594 54.9324V52.323C83.8594 52.2188 83.9115 52.1667 84.0104 52.1667C84.1146 52.1667 84.1667 52.2188 84.1667 52.323V54.9324C84.1667 55.0365 84.1146 55.0886 84.0104 55.0886Z" fill="#DDDCDB"/>
<mask id="mask23_13_1925" style="mask-type:luminance" maskUnits="userSpaceOnUse" x="73" y="54" width="2" height="4">
<path d="M73 54H74.3333V57.5104H73V54Z" fill="white"/>
</mask>
<g mask="url(#mask23_13_1925)">
<path d="M73.2499 57.7292C73.151 57.7292 73.0989 57.6772 73.0989 57.573V54.9636C73.0989 54.8595 73.151 54.8074 73.2499 54.8074C73.3541 54.8074 73.4062 54.8595 73.4062 54.9636V57.573C73.4062 57.6772 73.3541 57.7292 73.2499 57.7292Z" fill="#DDDCDB"/>
</g>
<path d="M65.5167 291.801V302.843H59.2458V275.343H65.5167V286.301H74.3708V275.343H80.6417V302.843H74.3708V291.801H65.5167Z" fill="white"/>
<path d="M116.814 275.343L127.918 302.843H121.189L119.147 297.343H108.689L106.647 302.843H99.9177L111.022 275.343H116.814ZM117.022 291.843L113.959 283.843H113.897L110.814 291.843H117.022Z" fill="white"/>
<path d="M153.47 275.343V297.343H162.928V302.843H147.199V275.343H153.47Z" fill="white"/>
<path d="M192.85 302.843L181.308 275.343H188.371L195.308 293.405L202.246 275.343H209.308L197.788 302.843H192.85Z" fill="white"/>
<path d="M242.548 275.343L253.652 302.843H246.923L244.881 297.343H234.423L232.381 302.843H225.652L236.756 275.343H242.548ZM242.756 291.843L239.694 283.843H239.631L236.548 291.843H242.756Z" fill="white"/>
<path d="M2.44377 318.634H0.1521C0.1521 318.275 0.1521 317.921 0.1521 317.572C0.1521 317.228 0.1521 316.874 0.1521 316.509H7.0896C7.0896 316.874 7.0896 317.228 7.0896 317.572C7.0896 317.921 7.0896 318.275 7.0896 318.634H4.79793V325.843C4.40731 325.843 4.01147 325.843 3.61043 325.843C3.21981 325.843 2.82918 325.843 2.44377 325.843V318.634Z" fill="white"/>
<path d="M15.9549 322.53L17.7674 325.488V325.843H15.1007L13.4966 323.093H12.2674V325.843C11.8612 325.843 11.4601 325.843 11.0591 325.843C10.6528 325.843 10.257 325.843 9.87158 325.843C9.87158 324.291 9.87158 322.733 9.87158 321.176C9.87158 319.624 9.87158 318.067 9.87158 316.509C10.5487 316.509 11.231 316.509 11.9132 316.509C12.606 316.509 13.2935 316.509 13.9757 316.509C14.5851 316.509 15.1112 316.624 15.5591 316.843C16.0018 317.067 16.3612 317.358 16.6424 317.718C16.9185 318.082 17.1112 318.483 17.2257 318.926C17.3351 319.374 17.356 319.822 17.2882 320.28C17.231 320.728 17.0903 321.15 16.8716 321.551C16.6476 321.942 16.3403 322.27 15.9549 322.53ZM13.9757 320.947C14.2257 320.947 14.4237 320.874 14.5799 320.718C14.7466 320.567 14.856 320.379 14.9132 320.155C14.981 319.921 14.9862 319.692 14.9341 319.468C14.8768 319.233 14.7726 319.041 14.6216 318.884C14.4653 318.718 14.2518 318.634 13.9757 318.634C13.6945 318.634 13.4132 318.634 13.1216 318.634C12.8299 318.634 12.5435 318.634 12.2674 318.634C12.2674 319.025 12.2674 319.416 12.2674 319.801C12.2674 320.192 12.2674 320.572 12.2674 320.947H13.9757Z" fill="white"/>
<path d="M26.4797 325.843L25.938 324.676H22.2505L21.7088 325.843H19.3755V325.488L23.563 316.384H24.6047L28.813 325.488V325.843H26.4797ZM25.1463 322.613L24.0838 320.155L23.0422 322.613H25.1463Z" fill="white"/>
<path d="M32.6567 316.509L34.8442 321.801H34.9067L37.0525 316.509H39.3442V316.863L35.3858 325.947H34.365L30.365 316.863V316.509H32.6567Z" fill="white"/>
<path d="M47.888 316.509C47.888 316.858 47.888 317.212 47.888 317.572C47.888 317.921 47.888 318.275 47.888 318.634C47.4141 318.634 47.0026 318.634 46.6589 318.634C46.3099 318.634 45.9609 318.634 45.6172 318.634C45.2839 318.634 44.888 318.634 44.4297 318.634V319.968H47.5964C47.5964 320.317 47.5964 320.671 47.5964 321.03C47.5964 321.379 47.5964 321.733 47.5964 322.093H44.4297C44.4297 322.358 44.4297 322.629 44.4297 322.905C44.4297 323.171 44.4297 323.442 44.4297 323.718C44.888 323.718 45.2943 323.718 45.6589 323.718C46.0182 323.718 46.3776 323.718 46.7422 323.718C47.1172 323.718 47.5339 323.718 47.9922 323.718C47.9922 324.067 47.9922 324.421 47.9922 324.78C47.9922 325.129 47.9922 325.483 47.9922 325.843C47.2682 325.843 46.5859 325.843 45.9505 325.843C45.3255 325.843 44.7005 325.843 44.0755 325.843C43.4505 325.843 42.7734 325.843 42.0547 325.843C42.0547 324.275 42.0547 322.712 42.0547 321.155C42.0547 319.603 42.0547 318.051 42.0547 316.509C42.7734 316.509 43.4349 316.509 44.0339 316.509C44.6432 316.509 45.2526 316.509 45.8672 316.509C46.4766 316.509 47.1484 316.509 47.888 316.509Z" fill="white"/>
<path d="M53.7807 316.509C53.7807 317.207 53.7807 317.78 53.7807 318.238C53.7807 318.686 53.7807 319.061 53.7807 319.363C53.7807 319.655 53.7807 319.905 53.7807 320.113C53.7807 320.322 53.7807 320.525 53.7807 320.718C53.7807 320.916 53.7807 321.134 53.7807 321.384C53.7807 321.624 53.7807 321.926 53.7807 322.301C53.7807 322.666 53.7807 323.129 53.7807 323.697H57.1557C57.1557 324.103 57.1557 324.462 57.1557 324.78C57.1557 325.087 57.1557 325.442 57.1557 325.843C56.1973 325.843 55.2286 325.843 54.2598 325.843C53.2859 325.843 52.3223 325.843 51.364 325.843V316.509C51.7651 316.509 52.1609 316.509 52.5515 316.509C52.9526 316.509 53.364 316.509 53.7807 316.509Z" fill="white"/>
<path d="M69.7729 316.655C69.95 316.655 70.1167 316.655 70.2729 316.655C70.424 316.655 70.5907 316.655 70.7729 316.655L72.3563 321.613H72.3979L72.8146 320.03L74.0021 316.509H76.3771V316.863L73.1479 325.926H71.7729L70.2729 321.447H70.2313L68.7313 325.926H67.4188L64.1479 316.863V316.509H66.5438L67.7521 320.03L68.1688 321.613H68.2104L69.7729 316.655Z" fill="white"/>
<path d="M81.8796 323.759H83.0671C83.0671 324.15 83.0671 324.499 83.0671 324.801C83.0671 325.093 83.0671 325.442 83.0671 325.843C82.2754 325.843 81.4837 325.843 80.6921 325.843C79.9108 325.843 79.1296 325.843 78.3379 325.843C78.3379 325.442 78.3379 325.093 78.3379 324.801C78.3379 324.499 78.3379 324.15 78.3379 323.759H79.5254V318.593H78.4212C78.4212 318.192 78.4212 317.843 78.4212 317.551C78.4212 317.249 78.4212 316.9 78.4212 316.509C79.1816 316.509 79.9421 316.509 80.6921 316.509C81.4525 316.509 82.2181 316.509 82.9837 316.509C82.9837 316.9 82.9837 317.249 82.9837 317.551C82.9837 317.843 82.9837 318.192 82.9837 318.593H81.8796V323.759Z" fill="white"/>
<path d="M87.3349 318.634H85.0432C85.0432 318.275 85.0432 317.921 85.0432 317.572C85.0432 317.228 85.0432 316.874 85.0432 316.509H91.9807C91.9807 316.874 91.9807 317.228 91.9807 317.572C91.9807 317.921 91.9807 318.275 91.9807 318.634H89.689V325.843C89.2984 325.843 88.9026 325.843 88.5015 325.843C88.1109 325.843 87.7203 325.843 87.3349 325.843V318.634Z" fill="white"/>
<path d="M102.554 316.509V325.843C102.148 325.843 101.742 325.843 101.325 325.843C100.919 325.843 100.518 325.843 100.117 325.843V322.093H97.2419V325.843C96.8253 325.843 96.4086 325.843 95.9919 325.843C95.5857 325.843 95.1899 325.843 94.8044 325.843V316.509C95.1899 316.509 95.5857 316.509 95.9919 316.509C96.4086 316.509 96.8253 316.509 97.2419 316.509V319.905H100.117V316.509C100.518 316.509 100.919 316.509 101.325 316.509C101.742 316.509 102.148 316.509 102.554 316.509Z" fill="white"/>
<path d="M112.646 318.634H110.355C110.355 318.275 110.355 317.921 110.355 317.572C110.355 317.228 110.355 316.874 110.355 316.509H117.292C117.292 316.874 117.292 317.228 117.292 317.572C117.292 317.921 117.292 318.275 117.292 318.634H115.001V325.843C114.61 325.843 114.214 325.843 113.813 325.843C113.422 325.843 113.032 325.843 112.646 325.843V318.634Z" fill="white"/>
<path d="M127.866 316.509V325.843C127.46 325.843 127.053 325.843 126.637 325.843C126.231 325.843 125.83 325.843 125.428 325.843V322.093H122.553V325.843C122.137 325.843 121.72 325.843 121.303 325.843C120.897 325.843 120.501 325.843 120.116 325.843V316.509C120.501 316.509 120.897 316.509 121.303 316.509C121.72 316.509 122.137 316.509 122.553 316.509V319.905H125.428V316.509C125.83 316.509 126.231 316.509 126.637 316.509C127.053 316.509 127.46 316.509 127.866 316.509Z" fill="white"/>
<path d="M137.418 316.509C137.418 316.858 137.418 317.212 137.418 317.572C137.418 317.921 137.418 318.275 137.418 318.634C136.944 318.634 136.532 318.634 136.189 318.634C135.84 318.634 135.491 318.634 135.147 318.634C134.814 318.634 134.418 318.634 133.959 318.634V319.968H137.126C137.126 320.317 137.126 320.671 137.126 321.03C137.126 321.379 137.126 321.733 137.126 322.093H133.959C133.959 322.358 133.959 322.629 133.959 322.905C133.959 323.171 133.959 323.442 133.959 323.718C134.418 323.718 134.824 323.718 135.189 323.718C135.548 323.718 135.907 323.718 136.272 323.718C136.647 323.718 137.064 323.718 137.522 323.718C137.522 324.067 137.522 324.421 137.522 324.78C137.522 325.129 137.522 325.483 137.522 325.843C136.798 325.843 136.116 325.843 135.48 325.843C134.855 325.843 134.23 325.843 133.605 325.843C132.98 325.843 132.303 325.843 131.584 325.843C131.584 324.275 131.584 322.712 131.584 321.155C131.584 319.603 131.584 318.051 131.584 316.509C132.303 316.509 132.965 316.509 133.564 316.509C134.173 316.509 134.782 316.509 135.397 316.509C136.006 316.509 136.678 316.509 137.418 316.509Z" fill="white"/>
<path d="M151.33 322.822H148.33V325.843C147.939 325.843 147.538 325.843 147.121 325.843C146.715 325.843 146.314 325.843 145.913 325.843V316.509C146.856 316.509 147.819 316.509 148.809 316.509C149.809 316.509 150.778 316.509 151.726 316.509C151.726 316.9 151.726 317.254 151.726 317.572C151.726 317.895 151.726 318.249 151.726 318.634H148.33V320.676H151.33C151.33 321.082 151.33 321.436 151.33 321.738C151.33 322.046 151.33 322.405 151.33 322.822Z" fill="white"/>
<path d="M157.293 316.509C157.293 317.207 157.293 317.78 157.293 318.238C157.293 318.686 157.293 319.061 157.293 319.363C157.293 319.655 157.293 319.905 157.293 320.113C157.293 320.322 157.293 320.525 157.293 320.718C157.293 320.916 157.293 321.134 157.293 321.384C157.293 321.624 157.293 321.926 157.293 322.301C157.293 322.666 157.293 323.129 157.293 323.697H160.668C160.668 324.103 160.668 324.462 160.668 324.78C160.668 325.087 160.668 325.442 160.668 325.843C159.709 325.843 158.741 325.843 157.772 325.843C156.798 325.843 155.834 325.843 154.876 325.843V316.509C155.277 316.509 155.673 316.509 156.063 316.509C156.465 316.509 156.876 316.509 157.293 316.509Z" fill="white"/>
<path d="M169.578 325.843L169.036 324.676H165.349L164.807 325.843H162.474V325.488L166.661 316.384H167.703L171.911 325.488V325.843H169.578ZM168.245 322.613L167.182 320.155L166.141 322.613H168.245Z" fill="white"/>
<path d="M175.755 316.509L177.943 321.801H178.005L180.151 316.509H182.443V316.863L178.484 325.947H177.464L173.464 316.863V316.509H175.755Z" fill="white"/>
<path d="M194.153 321.197C194.153 322.004 194.013 322.712 193.736 323.322C193.471 323.921 193.111 324.421 192.653 324.822C192.205 325.228 191.7 325.53 191.132 325.738C190.559 325.947 189.971 326.051 189.361 326.051C188.763 326.051 188.179 325.947 187.611 325.738C187.039 325.53 186.528 325.228 186.07 324.822C185.611 324.421 185.242 323.921 184.966 323.322C184.7 322.712 184.57 322.004 184.57 321.197C184.57 320.379 184.7 319.671 184.966 319.072C185.242 318.462 185.611 317.957 186.07 317.551C186.528 317.15 187.039 316.853 187.611 316.655C188.179 316.447 188.763 316.343 189.361 316.343C189.971 316.343 190.559 316.447 191.132 316.655C191.7 316.853 192.205 317.15 192.653 317.551C193.111 317.957 193.471 318.462 193.736 319.072C194.013 319.671 194.153 320.379 194.153 321.197ZM187.028 321.197C187.028 321.754 187.138 322.218 187.361 322.593C187.596 322.968 187.888 323.254 188.236 323.447C188.596 323.629 188.971 323.718 189.361 323.718C189.763 323.718 190.138 323.629 190.486 323.447C190.846 323.254 191.138 322.968 191.361 322.593C191.596 322.218 191.716 321.754 191.716 321.197C191.716 320.629 191.596 320.165 191.361 319.801C191.138 319.426 190.846 319.15 190.486 318.968C190.138 318.775 189.763 318.676 189.361 318.676C188.971 318.676 188.596 318.775 188.236 318.968C187.888 319.15 187.596 319.426 187.361 319.801C187.138 320.165 187.028 320.629 187.028 321.197Z" fill="white"/>
<path d="M203.345 322.53L205.157 325.488V325.843H202.491L200.886 323.093H199.657V325.843C199.251 325.843 198.85 325.843 198.449 325.843C198.043 325.843 197.647 325.843 197.261 325.843C197.261 324.291 197.261 322.733 197.261 321.176C197.261 319.624 197.261 318.067 197.261 316.509C197.939 316.509 198.621 316.509 199.303 316.509C199.996 316.509 200.683 316.509 201.366 316.509C201.975 316.509 202.501 316.624 202.949 316.843C203.392 317.067 203.751 317.358 204.032 317.718C204.308 318.082 204.501 318.483 204.616 318.926C204.725 319.374 204.746 319.822 204.678 320.28C204.621 320.728 204.48 321.15 204.261 321.551C204.038 321.942 203.73 322.27 203.345 322.53ZM201.366 320.947C201.616 320.947 201.814 320.874 201.97 320.718C202.136 320.567 202.246 320.379 202.303 320.155C202.371 319.921 202.376 319.692 202.324 319.468C202.267 319.233 202.163 319.041 202.011 318.884C201.855 318.718 201.642 318.634 201.366 318.634C201.084 318.634 200.803 318.634 200.511 318.634C200.22 318.634 199.933 318.634 199.657 318.634C199.657 319.025 199.657 319.416 199.657 319.801C199.657 320.192 199.657 320.572 199.657 320.947H201.366Z" fill="white"/>
<path d="M221.931 321.197C221.931 322.004 221.79 322.712 221.514 323.322C221.248 323.921 220.889 324.421 220.431 324.822C219.983 325.228 219.477 325.53 218.91 325.738C218.337 325.947 217.748 326.051 217.139 326.051C216.54 326.051 215.957 325.947 215.389 325.738C214.816 325.53 214.306 325.228 213.847 324.822C213.389 324.421 213.019 323.921 212.743 323.322C212.477 322.712 212.347 322.004 212.347 321.197C212.347 320.379 212.477 319.671 212.743 319.072C213.019 318.462 213.389 317.957 213.847 317.551C214.306 317.15 214.816 316.853 215.389 316.655C215.957 316.447 216.54 316.343 217.139 316.343C217.748 316.343 218.337 316.447 218.91 316.655C219.477 316.853 219.983 317.15 220.431 317.551C220.889 317.957 221.248 318.462 221.514 319.072C221.79 319.671 221.931 320.379 221.931 321.197ZM214.806 321.197C214.806 321.754 214.915 322.218 215.139 322.593C215.373 322.968 215.665 323.254 216.014 323.447C216.373 323.629 216.748 323.718 217.139 323.718C217.54 323.718 217.915 323.629 218.264 323.447C218.623 323.254 218.915 322.968 219.139 322.593C219.373 322.218 219.493 321.754 219.493 321.197C219.493 320.629 219.373 320.165 219.139 319.801C218.915 319.426 218.623 319.15 218.264 318.968C217.915 318.775 217.54 318.676 217.139 318.676C216.748 318.676 216.373 318.775 216.014 318.968C215.665 319.15 215.373 319.426 215.139 319.801C214.915 320.165 214.806 320.629 214.806 321.197Z" fill="white"/>
<path d="M230.476 322.822H227.476V325.843C227.086 325.843 226.685 325.843 226.268 325.843C225.862 325.843 225.461 325.843 225.06 325.843V316.509C226.002 316.509 226.966 316.509 227.955 316.509C228.955 316.509 229.924 316.509 230.872 316.509C230.872 316.9 230.872 317.254 230.872 317.572C230.872 317.895 230.872 318.249 230.872 318.634H227.476V320.676H230.476C230.476 321.082 230.476 321.436 230.476 321.738C230.476 322.046 230.476 322.405 230.476 322.822Z" fill="white"/>
<path d="M240.417 318.634H238.125C238.125 318.275 238.125 317.921 238.125 317.572C238.125 317.228 238.125 316.874 238.125 316.509H245.062C245.062 316.874 245.062 317.228 245.062 317.572C245.062 317.921 245.062 318.275 245.062 318.634H242.771V325.843C242.38 325.843 241.984 325.843 241.583 325.843C241.193 325.843 240.802 325.843 240.417 325.843V318.634Z" fill="white"/>
<path d="M255.636 316.509V325.843C255.23 325.843 254.824 325.843 254.407 325.843C254.001 325.843 253.6 325.843 253.199 325.843V322.093H250.324V325.843C249.907 325.843 249.49 325.843 249.074 325.843C248.667 325.843 248.272 325.843 247.886 325.843V316.509C248.272 316.509 248.667 316.509 249.074 316.509C249.49 316.509 249.907 316.509 250.324 316.509V319.905H253.199V316.509C253.6 316.509 254.001 316.509 254.407 316.509C254.824 316.509 255.23 316.509 255.636 316.509Z" fill="white"/>
<path d="M265.188 316.509C265.188 316.858 265.188 317.212 265.188 317.572C265.188 317.921 265.188 318.275 265.188 318.634C264.714 318.634 264.303 318.634 263.959 318.634C263.61 318.634 263.261 318.634 262.917 318.634C262.584 318.634 262.188 318.634 261.73 318.634V319.968H264.896C264.896 320.317 264.896 320.671 264.896 321.03C264.896 321.379 264.896 321.733 264.896 322.093H261.73C261.73 322.358 261.73 322.629 261.73 322.905C261.73 323.171 261.73 323.442 261.73 323.718C262.188 323.718 262.594 323.718 262.959 323.718C263.318 323.718 263.678 323.718 264.042 323.718C264.417 323.718 264.834 323.718 265.292 323.718C265.292 324.067 265.292 324.421 265.292 324.78C265.292 325.129 265.292 325.483 265.292 325.843C264.568 325.843 263.886 325.843 263.251 325.843C262.626 325.843 262.001 325.843 261.376 325.843C260.751 325.843 260.073 325.843 259.355 325.843C259.355 324.275 259.355 322.712 259.355 321.155C259.355 319.603 259.355 318.051 259.355 316.509C260.073 316.509 260.735 316.509 261.334 316.509C261.943 316.509 262.553 316.509 263.167 316.509C263.777 316.509 264.448 316.509 265.188 316.509Z" fill="white"/>
<path d="M279.517 316.509C279.517 316.858 279.517 317.212 279.517 317.572C279.517 317.921 279.517 318.275 279.517 318.634C279.043 318.634 278.632 318.634 278.288 318.634C277.939 318.634 277.59 318.634 277.246 318.634C276.913 318.634 276.517 318.634 276.059 318.634V319.968H279.225C279.225 320.317 279.225 320.671 279.225 321.03C279.225 321.379 279.225 321.733 279.225 322.093H276.059C276.059 322.358 276.059 322.629 276.059 322.905C276.059 323.171 276.059 323.442 276.059 323.718C276.517 323.718 276.923 323.718 277.288 323.718C277.647 323.718 278.007 323.718 278.371 323.718C278.746 323.718 279.163 323.718 279.621 323.718C279.621 324.067 279.621 324.421 279.621 324.78C279.621 325.129 279.621 325.483 279.621 325.843C278.897 325.843 278.215 325.843 277.579 325.843C276.954 325.843 276.329 325.843 275.704 325.843C275.079 325.843 274.402 325.843 273.684 325.843C273.684 324.275 273.684 322.712 273.684 321.155C273.684 319.603 273.684 318.051 273.684 316.509C274.402 316.509 275.064 316.509 275.663 316.509C276.272 316.509 276.882 316.509 277.496 316.509C278.105 316.509 278.777 316.509 279.517 316.509Z" fill="white"/>
<path d="M288.951 325.843L288.409 324.676H284.722L284.18 325.843H281.847V325.488L286.034 316.384H287.076L291.284 325.488V325.843H288.951ZM287.618 322.613L286.555 320.155L285.514 322.613H287.618Z" fill="white"/>
<path d="M295.482 322.989C295.482 323.228 295.576 323.416 295.774 323.551C295.967 323.692 296.212 323.791 296.503 323.843C296.805 323.884 297.097 323.884 297.378 323.843C297.67 323.801 297.91 323.718 298.107 323.593C298.3 323.457 298.399 323.275 298.399 323.051C298.399 322.832 298.321 322.671 298.17 322.572C298.014 322.462 297.805 322.384 297.545 322.343C297.295 322.291 297.014 322.254 296.712 322.239C296.029 322.186 295.43 322.067 294.92 321.884C294.42 321.692 294.029 321.395 293.753 320.989C293.472 320.587 293.326 320.051 293.316 319.384C293.3 318.801 293.42 318.311 293.67 317.905C293.93 317.489 294.274 317.155 294.691 316.905C295.118 316.655 295.587 316.499 296.087 316.426C296.597 316.343 297.113 316.343 297.628 316.426C298.139 316.499 298.607 316.655 299.024 316.905C299.451 317.155 299.795 317.489 300.045 317.905C300.305 318.311 300.441 318.801 300.441 319.384C300.024 319.384 299.639 319.384 299.295 319.384C298.946 319.384 298.571 319.384 298.17 319.384C298.17 319.134 298.087 318.942 297.92 318.801C297.753 318.65 297.535 318.551 297.274 318.509C297.024 318.468 296.774 318.478 296.524 318.53C296.274 318.572 296.055 318.666 295.878 318.801C295.696 318.942 295.597 319.124 295.587 319.343C295.571 319.582 295.628 319.77 295.753 319.905C295.889 320.03 296.071 320.124 296.295 320.176C296.529 320.218 296.785 320.259 297.066 320.301C297.524 320.358 297.967 320.426 298.399 320.509C298.842 320.582 299.238 320.707 299.587 320.884C299.93 321.067 300.212 321.332 300.42 321.676C300.628 322.025 300.732 322.489 300.732 323.072C300.732 323.629 300.592 324.108 300.316 324.509C300.035 324.916 299.675 325.239 299.232 325.489C298.785 325.739 298.285 325.895 297.732 325.968C297.191 326.051 296.649 326.051 296.107 325.968C295.576 325.895 295.092 325.739 294.649 325.489C294.201 325.239 293.842 324.905 293.566 324.489C293.3 324.072 293.175 323.572 293.191 322.989C293.576 322.989 293.951 322.989 294.316 322.989C294.691 322.989 295.076 322.989 295.482 322.989Z" fill="white"/>
<path d="M305.182 318.634H302.89C302.89 318.275 302.89 317.921 302.89 317.572C302.89 317.228 302.89 316.874 302.89 316.509H309.827C309.827 316.874 309.827 317.228 309.827 317.572C309.827 317.921 309.827 318.275 309.827 318.634H307.536V325.843C307.145 325.843 306.749 325.843 306.348 325.843C305.958 325.843 305.567 325.843 305.182 325.843V318.634Z" fill="white"/>
<mask id="mask24_13_1925" style="mask-type:luminance" maskUnits="userSpaceOnUse" x="85" y="48" width="20" height="2">
<path d="M85.2083 48.6667H105V50.0001H85.2083V48.6667Z" fill="white"/>
</mask>
<g mask="url(#mask24_13_1925)">
<path d="M104.713 49.6459H85.4062C85.3072 49.6459 85.2551 49.5938 85.2551 49.4949C85.2551 49.3907 85.3072 49.3386 85.4062 49.3386H104.713C104.818 49.3386 104.87 49.3907 104.87 49.4949C104.87 49.5938 104.818 49.6459 104.713 49.6459Z" fill="#DDDCDB"/>
</g>
<path d="M107.948 52.3647H89.7395C89.6353 52.3647 89.5833 52.3178 89.5833 52.2136C89.5833 52.1095 89.6353 52.0574 89.7395 52.0574H107.948C108.052 52.0574 108.104 52.1095 108.104 52.2136C108.104 52.3178 108.052 52.3647 107.948 52.3647Z" fill="#DDDCDB"/>
<mask id="mask25_13_1925" style="mask-type:luminance" maskUnits="userSpaceOnUse" x="93" y="46" width="19" height="2">
<path d="M93 46.5105H111.208V47.3334H93V46.5105Z" fill="white"/>
</mask>
<g mask="url(#mask25_13_1925)">
<path d="M111.146 46.8178H94.4011C94.297 46.8178 94.2449 46.7657 94.2449 46.6615C94.2449 46.5626 94.297 46.5105 94.4011 46.5105H111.146C111.25 46.5105 111.302 46.5626 111.302 46.6615C111.302 46.7657 111.25 46.8178 111.146 46.8178Z" fill="#DDDCDB"/>
</g>
<path d="M104.859 55.1405H86.6459C86.547 55.1405 86.4949 55.0885 86.4949 54.9843C86.4949 54.8801 86.547 54.8333 86.6459 54.8333H104.859C104.958 54.8333 105.01 54.8801 105.01 54.9843C105.01 55.0885 104.958 55.1405 104.859 55.1405Z" fill="#DDDCDB"/>
<path d="M92.0624 52.2553C91.9635 52.2553 91.9114 52.2084 91.9114 52.1042V49.4949C91.9114 49.3907 91.9635 49.3386 92.0624 49.3386C92.1666 49.3386 92.2187 49.3907 92.2187 49.4949V52.1042C92.2187 52.2084 92.1666 52.2553 92.0624 52.2553Z" fill="#DDDCDB"/>
<path d="M99.4219 52.2553C99.3177 52.2553 99.2656 52.2084 99.2656 52.1042V49.4949C99.2656 49.3907 99.3177 49.3386 99.4219 49.3386C99.5208 49.3386 99.5729 49.3907 99.5729 49.4949V52.1042C99.5729 52.2084 99.5208 52.2553 99.4219 52.2553Z" fill="#DDDCDB"/>
<mask id="mask26_13_1925" style="mask-type:luminance" maskUnits="userSpaceOnUse" x="98" y="54" width="2" height="4">
<path d="M98.3333 54H99.6666V57.5104H98.3333V54Z" fill="white"/>
</mask>
<g mask="url(#mask26_13_1925)">
<path d="M99.4062 57.8385C99.3072 57.8385 99.2551 57.7865 99.2551 57.6875V55.0729C99.2551 54.9687 99.3072 54.9219 99.4062 54.9219C99.5103 54.9219 99.5624 54.9687 99.5624 55.0729V57.6875C99.5624 57.7865 99.5103 57.8385 99.4062 57.8385Z" fill="#DDDCDB"/>
</g>
<mask id="mask27_13_1925" style="mask-type:luminance" maskUnits="userSpaceOnUse" x="102" y="46" width="2" height="4">
<path d="M102.333 46.5105H103.667V50.0001H102.333V46.5105Z" fill="white"/>
</mask>
<g mask="url(#mask27_13_1925)">
<path d="M102.937 49.6459C102.838 49.6459 102.786 49.5938 102.786 49.4949V46.8803C102.786 46.7761 102.838 46.7292 102.937 46.7292C103.042 46.7292 103.094 46.7761 103.094 46.8803V49.4949C103.094 49.5938 103.042 49.6459 102.937 49.6459Z" fill="#DDDCDB"/>
</g>
<path d="M95.5834 55.0886C95.4792 55.0886 95.4324 55.0365 95.4324 54.9324V52.323C95.4324 52.2188 95.4792 52.1667 95.5834 52.1667C95.6876 52.1667 95.7397 52.2188 95.7397 52.323V54.9324C95.7397 55.0365 95.6876 55.0886 95.5834 55.0886Z" fill="#DDDCDB"/>
<mask id="mask28_13_1925" style="mask-type:luminance" maskUnits="userSpaceOnUse" x="94" y="46" width="3" height="4">
<path d="M94.3333 46.5105H96.9999V50.0001H94.3333V46.5105Z" fill="white"/>
</mask>
<g mask="url(#mask28_13_1925)">
<path d="M95.5832 49.6042C95.479 49.6042 95.4321 49.5522 95.4321 49.448V46.8386C95.4321 46.7345 95.479 46.6824 95.5832 46.6824C95.6873 46.6824 95.7394 46.7345 95.7394 46.8386V49.448C95.7394 49.5522 95.6873 49.6042 95.5832 49.6042Z" fill="#DDDCDB"/>
</g>
<path d="M102.937 55.0886C102.838 55.0886 102.786 55.0365 102.786 54.9324V52.323C102.786 52.2188 102.838 52.1667 102.937 52.1667C103.042 52.1667 103.094 52.2188 103.094 52.323V54.9324C103.094 55.0365 103.042 55.0886 102.937 55.0886Z" fill="#DDDCDB"/>
<mask id="mask29_13_1925" style="mask-type:luminance" maskUnits="userSpaceOnUse" x="91" y="54" width="2" height="4">
<path d="M91.6667 54H93.0001V57.5104H91.6667V54Z" fill="white"/>
</mask>
<g mask="url(#mask29_13_1925)">
<path d="M92.1772 57.7292C92.0782 57.7292 92.0261 57.6772 92.0261 57.573V54.9636C92.0261 54.8595 92.0782 54.8074 92.1772 54.8074C92.2813 54.8074 92.3334 54.8595 92.3334 54.9636V57.573C92.3334 57.6772 92.2813 57.7292 92.1772 57.7292Z" fill="#DDDCDB"/>
</g>
<mask id="mask30_13_1925" style="mask-type:luminance" maskUnits="userSpaceOnUse" x="93" y="80" width="22" height="2">
<path d="M93.6406 80.6667H114.333V82.0001H93.6406V80.6667Z" fill="white"/>
</mask>
<g mask="url(#mask30_13_1925)">
<path d="M113.151 81.6459H93.8437C93.7395 81.6459 93.6926 81.5938 93.6926 81.4949C93.6926 81.3907 93.7395 81.3386 93.8437 81.3386H113.151C113.25 81.3386 113.302 81.3907 113.302 81.4949C113.302 81.5938 113.25 81.6459 113.151 81.6459Z" fill="#DDDCDB"/>
</g>
<path d="M116.385 84.3647H98.1718C98.0728 84.3647 98.0208 84.3178 98.0208 84.2136C98.0208 84.1095 98.0728 84.0574 98.1718 84.0574H116.385C116.484 84.0574 116.536 84.1095 116.536 84.2136C116.536 84.3178 116.484 84.3647 116.385 84.3647Z" fill="#DDDCDB"/>
<mask id="mask31_13_1925" style="mask-type:luminance" maskUnits="userSpaceOnUse" x="102" y="78" width="18" height="2">
<path d="M102.333 78.5105H119.641V79.3334H102.333V78.5105Z" fill="white"/>
</mask>
<g mask="url(#mask31_13_1925)">
<path d="M119.583 78.8178H102.833C102.729 78.8178 102.682 78.7657 102.682 78.6615C102.682 78.5626 102.729 78.5105 102.833 78.5105H119.583C119.682 78.5105 119.734 78.5626 119.734 78.6615C119.734 78.7657 119.682 78.8178 119.583 78.8178Z" fill="#DDDCDB"/>
</g>
<path d="M113.292 87.1405H95.0833C94.9791 87.1405 94.927 87.0885 94.927 86.9843C94.927 86.8801 94.9791 86.8333 95.0833 86.8333H113.292C113.396 86.8333 113.448 86.8801 113.448 86.9843C113.448 87.0885 113.396 87.1405 113.292 87.1405Z" fill="#DDDCDB"/>
<path d="M100.5 84.2605C100.396 84.2605 100.349 84.2084 100.349 84.1042V81.4949C100.349 81.3907 100.396 81.3386 100.5 81.3386C100.604 81.3386 100.656 81.3907 100.656 81.4949V84.1042C100.656 84.2084 100.604 84.2605 100.5 84.2605Z" fill="#DDDCDB"/>
<path d="M107.854 84.2605C107.75 84.2605 107.703 84.2084 107.703 84.1042V81.4949C107.703 81.3907 107.75 81.3386 107.854 81.3386C107.958 81.3386 108.01 81.3907 108.01 81.4949V84.1042C108.01 84.2084 107.958 84.2605 107.854 84.2605Z" fill="#DDDCDB"/>
<mask id="mask32_13_1925" style="mask-type:luminance" maskUnits="userSpaceOnUse" x="107" y="86" width="2" height="4">
<path d="M107.667 86H109V89.5104H107.667V86Z" fill="white"/>
</mask>
<g mask="url(#mask32_13_1925)">
<path d="M107.844 89.8385C107.74 89.8385 107.688 89.7865 107.688 89.6875V87.0729C107.688 86.9687 107.74 86.9219 107.844 86.9219C107.948 86.9219 107.995 86.9687 107.995 87.0729V89.6875C107.995 89.7865 107.948 89.8385 107.844 89.8385Z" fill="#DDDCDB"/>
</g>
<mask id="mask33_13_1925" style="mask-type:luminance" maskUnits="userSpaceOnUse" x="110" y="78" width="2" height="4">
<path d="M110.333 78.5105H111.667V82.0001H110.333V78.5105Z" fill="white"/>
</mask>
<g mask="url(#mask33_13_1925)">
<path d="M111.375 81.6459C111.271 81.6459 111.219 81.5938 111.219 81.4949V78.8803C111.219 78.7761 111.271 78.7292 111.375 78.7292C111.479 78.7292 111.526 78.7761 111.526 78.8803V81.4949C111.526 81.5938 111.479 81.6459 111.375 81.6459Z" fill="#DDDCDB"/>
</g>
<path d="M104.021 87.0886C103.917 87.0886 103.865 87.0365 103.865 86.9324V84.323C103.865 84.2188 103.917 84.1667 104.021 84.1667C104.12 84.1667 104.172 84.2188 104.172 84.323V86.9324C104.172 87.0365 104.12 87.0886 104.021 87.0886Z" fill="#DDDCDB"/>
<mask id="mask34_13_1925" style="mask-type:luminance" maskUnits="userSpaceOnUse" x="103" y="78" width="2" height="4">
<path d="M103.667 78.5105H105V82.0001H103.667V78.5105Z" fill="white"/>
</mask>
<g mask="url(#mask34_13_1925)">
<path d="M104.021 81.6042C103.917 81.6042 103.865 81.5522 103.865 81.448V78.8386C103.865 78.7345 103.917 78.6824 104.021 78.6824C104.12 78.6824 104.172 78.7345 104.172 78.8386V81.448C104.172 81.5522 104.12 81.6042 104.021 81.6042Z" fill="#DDDCDB"/>
</g>
<path d="M111.375 87.0886C111.271 87.0886 111.219 87.0365 111.219 86.9324V84.323C111.219 84.2188 111.271 84.1667 111.375 84.1667C111.479 84.1667 111.526 84.2188 111.526 84.323V86.9324C111.526 87.0365 111.479 87.0886 111.375 87.0886Z" fill="#DDDCDB"/>
<mask id="mask35_13_1925" style="mask-type:luminance" maskUnits="userSpaceOnUse" x="99" y="86" width="2" height="4">
<path d="M99.6667 86H101V89.5104H99.6667V86Z" fill="white"/>
</mask>
<g mask="url(#mask35_13_1925)">
<path d="M100.615 89.7292C100.511 89.7292 100.458 89.6772 100.458 89.573V86.9636C100.458 86.8595 100.511 86.8074 100.615 86.8074C100.719 86.8074 100.766 86.8595 100.766 86.9636V89.573C100.766 89.6772 100.719 89.7292 100.615 89.7292Z" fill="#DDDCDB"/>
</g>
<mask id="mask36_13_1925" style="mask-type:luminance" maskUnits="userSpaceOnUse" x="207" y="50" width="21" height="2">
<path d="M207.516 50H227.667V51.3333H207.516V50Z" fill="white"/>
</mask>
<g mask="url(#mask36_13_1925)">
<path d="M227.021 50.6459H207.719C207.615 50.6459 207.562 50.5938 207.562 50.4949C207.562 50.3907 207.615 50.3386 207.719 50.3386H227.021C227.125 50.3386 227.177 50.3907 227.177 50.4949C227.177 50.5938 227.125 50.6459 227.021 50.6459Z" fill="#DDDCDB"/>
</g>
<path d="M230.255 53.3647H212.047C211.943 53.3647 211.891 53.3178 211.891 53.2136C211.891 53.1095 211.943 53.0574 212.047 53.0574H230.255C230.359 53.0574 230.411 53.1095 230.411 53.2136C230.411 53.3178 230.359 53.3647 230.255 53.3647Z" fill="#DDDCDB"/>
<mask id="mask37_13_1925" style="mask-type:luminance" maskUnits="userSpaceOnUse" x="215" y="47" width="19" height="2">
<path d="M215.667 47.5105H233.516V48.6667H215.667V47.5105Z" fill="white"/>
</mask>
<g mask="url(#mask37_13_1925)">
<path d="M233.453 47.8178H216.708C216.604 47.8178 216.552 47.7657 216.552 47.6615C216.552 47.5626 216.604 47.5105 216.708 47.5105H233.453C233.557 47.5105 233.61 47.5626 233.61 47.6615C233.61 47.7657 233.557 47.8178 233.453 47.8178Z" fill="#DDDCDB"/>
</g>
<path d="M227.167 56.1405H208.958C208.854 56.1405 208.802 56.0885 208.802 55.9843C208.802 55.8801 208.854 55.8333 208.958 55.8333H227.167C227.266 55.8333 227.318 55.8801 227.318 55.9843C227.318 56.0885 227.266 56.1405 227.167 56.1405Z" fill="#DDDCDB"/>
<path d="M214.375 53.2553C214.271 53.2553 214.219 53.2084 214.219 53.1042V50.4949C214.219 50.3907 214.271 50.3386 214.375 50.3386C214.474 50.3386 214.526 50.3907 214.526 50.4949V53.1042C214.526 53.2084 214.474 53.2553 214.375 53.2553Z" fill="#DDDCDB"/>
<path d="M221.729 53.2553C221.625 53.2553 221.573 53.2084 221.573 53.1042V50.4949C221.573 50.3907 221.625 50.3386 221.729 50.3386C221.833 50.3386 221.88 50.3907 221.88 50.4949V53.1042C221.88 53.2084 221.833 53.2553 221.729 53.2553Z" fill="#DDDCDB"/>
<mask id="mask38_13_1925" style="mask-type:luminance" maskUnits="userSpaceOnUse" x="221" y="55" width="2" height="4">
<path d="M221 55.3333H222.333V58.5103H221V55.3333Z" fill="white"/>
</mask>
<g mask="url(#mask38_13_1925)">
<path d="M221.714 58.8385C221.615 58.8385 221.562 58.7865 221.562 58.6875V56.0729C221.562 55.9687 221.615 55.9219 221.714 55.9219C221.818 55.9219 221.87 55.9687 221.87 56.0729V58.6875C221.87 58.7865 221.818 58.8385 221.714 58.8385Z" fill="#DDDCDB"/>
</g>
<mask id="mask39_13_1925" style="mask-type:luminance" maskUnits="userSpaceOnUse" x="225" y="47" width="2" height="5">
<path d="M225 47.5105H226.333V51.3334H225V47.5105Z" fill="white"/>
</mask>
<g mask="url(#mask39_13_1925)">
<path d="M225.245 50.6459C225.146 50.6459 225.094 50.5938 225.094 50.4949V47.8803C225.094 47.7761 225.146 47.7292 225.245 47.7292C225.349 47.7292 225.401 47.7761 225.401 47.8803V50.4949C225.401 50.5938 225.349 50.6459 225.245 50.6459Z" fill="#DDDCDB"/>
</g>
<path d="M217.891 56.0886C217.792 56.0886 217.74 56.0365 217.74 55.9324V53.323C217.74 53.2188 217.792 53.1667 217.891 53.1667C217.995 53.1667 218.047 53.2188 218.047 53.323V55.9324C218.047 56.0365 217.995 56.0886 217.891 56.0886Z" fill="#DDDCDB"/>
<mask id="mask40_13_1925" style="mask-type:luminance" maskUnits="userSpaceOnUse" x="217" y="47" width="2" height="5">
<path d="M217 47.5105H218.333V51.3334H217V47.5105Z" fill="white"/>
</mask>
<g mask="url(#mask40_13_1925)">
<path d="M217.891 50.6042C217.792 50.6042 217.74 50.5522 217.74 50.448V47.8386C217.74 47.7345 217.792 47.6824 217.891 47.6824C217.995 47.6824 218.047 47.7345 218.047 47.8386V50.448C218.047 50.5522 217.995 50.6042 217.891 50.6042Z" fill="#DDDCDB"/>
</g>
<path d="M225.245 56.0886C225.146 56.0886 225.094 56.0365 225.094 55.9324V53.323C225.094 53.2188 225.146 53.1667 225.245 53.1667C225.349 53.1667 225.401 53.2188 225.401 53.323V55.9324C225.401 56.0365 225.349 56.0886 225.245 56.0886Z" fill="#DDDCDB"/>
<mask id="mask41_13_1925" style="mask-type:luminance" maskUnits="userSpaceOnUse" x="214" y="55" width="2" height="4">
<path d="M214.333 55.3333H215.667V58.5103H214.333V55.3333Z" fill="white"/>
</mask>
<g mask="url(#mask41_13_1925)">
<path d="M214.49 58.729C214.385 58.729 214.333 58.6769 214.333 58.5728V55.9634C214.333 55.8592 214.385 55.8071 214.49 55.8071C214.588 55.8071 214.641 55.8592 214.641 55.9634V58.5728C214.641 58.6769 214.588 58.729 214.49 58.729Z" fill="#DDDCDB"/>
</g>
<mask id="mask42_13_1925" style="mask-type:luminance" maskUnits="userSpaceOnUse" x="190" y="50" width="21" height="2">
<path d="M190.047 50H210.333V51.3333H190.047V50Z" fill="white"/>
</mask>
<g mask="url(#mask42_13_1925)">
<path d="M209.552 50.6459H190.25C190.146 50.6459 190.094 50.5938 190.094 50.4949C190.094 50.3907 190.146 50.3386 190.25 50.3386H209.552C209.656 50.3386 209.708 50.3907 209.708 50.4949C209.708 50.5938 209.656 50.6459 209.552 50.6459Z" fill="#DDDCDB"/>
</g>
<path d="M212.786 53.3647H194.578C194.474 53.3647 194.422 53.3178 194.422 53.2136C194.422 53.1095 194.474 53.0574 194.578 53.0574H212.786C212.891 53.0574 212.943 53.1095 212.943 53.2136C212.943 53.3178 212.891 53.3647 212.786 53.3647Z" fill="#DDDCDB"/>
<mask id="mask43_13_1925" style="mask-type:luminance" maskUnits="userSpaceOnUse" x="198" y="47" width="19" height="2">
<path d="M198.333 47.5105H216.047V48.6667H198.333V47.5105Z" fill="white"/>
</mask>
<g mask="url(#mask43_13_1925)">
<path d="M215.984 47.8178H199.24C199.135 47.8178 199.083 47.7657 199.083 47.6615C199.083 47.5626 199.135 47.5105 199.24 47.5105H215.984C216.088 47.5105 216.141 47.5626 216.141 47.6615C216.141 47.7657 216.088 47.8178 215.984 47.8178Z" fill="#DDDCDB"/>
</g>
<path d="M209.698 56.1405H191.484C191.385 56.1405 191.333 56.0885 191.333 55.9843C191.333 55.8801 191.385 55.8333 191.484 55.8333H209.698C209.797 55.8333 209.849 55.8801 209.849 55.9843C209.849 56.0885 209.797 56.1405 209.698 56.1405Z" fill="#DDDCDB"/>
<path d="M196.906 53.2553C196.802 53.2553 196.75 53.2084 196.75 53.1042V50.4949C196.75 50.3907 196.802 50.3386 196.906 50.3386C197.005 50.3386 197.057 50.3907 197.057 50.4949V53.1042C197.057 53.2084 197.005 53.2553 196.906 53.2553Z" fill="#DDDCDB"/>
<path d="M204.26 53.2553C204.156 53.2553 204.104 53.2084 204.104 53.1042V50.4949C204.104 50.3907 204.156 50.3386 204.26 50.3386C204.359 50.3386 204.412 50.3907 204.412 50.4949V53.1042C204.412 53.2084 204.359 53.2553 204.26 53.2553Z" fill="#DDDCDB"/>
<mask id="mask44_13_1925" style="mask-type:luminance" maskUnits="userSpaceOnUse" x="203" y="55" width="2" height="4">
<path d="M203.667 55.3333H205V58.5103H203.667V55.3333Z" fill="white"/>
</mask>
<g mask="url(#mask44_13_1925)">
<path d="M204.245 58.8385C204.146 58.8385 204.094 58.7865 204.094 58.6875V56.0729C204.094 55.9687 204.146 55.9219 204.245 55.9219C204.349 55.9219 204.401 55.9687 204.401 56.0729V58.6875C204.401 58.7865 204.349 58.8385 204.245 58.8385Z" fill="#DDDCDB"/>
</g>
<mask id="mask45_13_1925" style="mask-type:luminance" maskUnits="userSpaceOnUse" x="206" y="47" width="3" height="5">
<path d="M206.333 47.5105H209V51.3334H206.333V47.5105Z" fill="white"/>
</mask>
<g mask="url(#mask45_13_1925)">
<path d="M207.776 50.6459C207.677 50.6459 207.625 50.5938 207.625 50.4949V47.8803C207.625 47.7761 207.677 47.7292 207.776 47.7292C207.88 47.7292 207.932 47.7761 207.932 47.8803V50.4949C207.932 50.5938 207.88 50.6459 207.776 50.6459Z" fill="#DDDCDB"/>
</g>
<path d="M200.422 56.0886C200.323 56.0886 200.271 56.0365 200.271 55.9324V53.323C200.271 53.2188 200.323 53.1667 200.422 53.1667C200.526 53.1667 200.578 53.2188 200.578 53.323V55.9324C200.578 56.0365 200.526 56.0886 200.422 56.0886Z" fill="#DDDCDB"/>
<mask id="mask46_13_1925" style="mask-type:luminance" maskUnits="userSpaceOnUse" x="199" y="47" width="2" height="5">
<path d="M199.667 47.5105H201V51.3334H199.667V47.5105Z" fill="white"/>
</mask>
<g mask="url(#mask46_13_1925)">
<path d="M200.422 50.6042C200.323 50.6042 200.271 50.5522 200.271 50.448V47.8386C200.271 47.7345 200.323 47.6824 200.422 47.6824C200.526 47.6824 200.578 47.7345 200.578 47.8386V50.448C200.578 50.5522 200.526 50.6042 200.422 50.6042Z" fill="#DDDCDB"/>
</g>
<path d="M207.776 56.0886C207.677 56.0886 207.625 56.0365 207.625 55.9324V53.323C207.625 53.2188 207.677 53.1667 207.776 53.1667C207.88 53.1667 207.932 53.2188 207.932 53.323V55.9324C207.932 56.0365 207.88 56.0886 207.776 56.0886Z" fill="#DDDCDB"/>
<mask id="mask47_13_1925" style="mask-type:luminance" maskUnits="userSpaceOnUse" x="195" y="55" width="4" height="4">
<path d="M195.667 55.3333H198.333V58.5103H195.667V55.3333Z" fill="white"/>
</mask>
<g mask="url(#mask47_13_1925)">
<path d="M197.016 58.729C196.917 58.729 196.865 58.6769 196.865 58.5728V55.9634C196.865 55.8592 196.917 55.8071 197.016 55.8071C197.12 55.8071 197.172 55.8592 197.172 55.9634V58.5728C197.172 58.6769 197.12 58.729 197.016 58.729Z" fill="#DDDCDB"/>
</g>
<mask id="mask48_13_1925" style="mask-type:luminance" maskUnits="userSpaceOnUse" x="190" y="84" width="21" height="4">
<path d="M190.047 84.6667H210.333V87.3334H190.047V84.6667Z" fill="white"/>
</mask>
<g mask="url(#mask48_13_1925)">
<path d="M209.552 86.0781H190.25C190.146 86.0781 190.094 86.026 190.094 85.9219C190.094 85.8177 190.146 85.7656 190.25 85.7656H209.552C209.656 85.7656 209.708 85.8177 209.708 85.9219C209.708 86.026 209.656 86.0781 209.552 86.0781Z" fill="#DDDCDB"/>
</g>
<path d="M212.786 88.7968H194.578C194.474 88.7968 194.422 88.7447 194.422 88.6405C194.422 88.5416 194.474 88.4895 194.578 88.4895H212.786C212.891 88.4895 212.943 88.5416 212.943 88.6405C212.943 88.7447 212.891 88.7968 212.786 88.7968Z" fill="#DDDCDB"/>
<mask id="mask49_13_1925" style="mask-type:luminance" maskUnits="userSpaceOnUse" x="198" y="82" width="19" height="2">
<path d="M198.333 82.9375H216.047V83.3333H198.333V82.9375Z" fill="white"/>
</mask>
<g mask="url(#mask49_13_1925)">
<path d="M215.984 83.2448H199.24C199.135 83.2448 199.083 83.1979 199.083 83.0938C199.083 82.9896 199.135 82.9375 199.24 82.9375H215.984C216.088 82.9375 216.141 82.9896 216.141 83.0938C216.141 83.1979 216.088 83.2448 215.984 83.2448Z" fill="#DDDCDB"/>
</g>
<path d="M209.698 91.5678H191.484C191.385 91.5678 191.333 91.5157 191.333 91.4167C191.333 91.3126 191.385 91.2605 191.484 91.2605H209.698C209.797 91.2605 209.849 91.3126 209.849 91.4167C209.849 91.5157 209.797 91.5678 209.698 91.5678Z" fill="#DDDCDB"/>
<path d="M196.906 88.6875C196.802 88.6875 196.75 88.6354 196.75 88.5312V85.9219C196.75 85.8177 196.802 85.7656 196.906 85.7656C197.005 85.7656 197.057 85.8177 197.057 85.9219V88.5312C197.057 88.6354 197.005 88.6875 196.906 88.6875Z" fill="#DDDCDB"/>
<path d="M204.26 88.6875C204.156 88.6875 204.104 88.6354 204.104 88.5312V85.9219C204.104 85.8177 204.156 85.7656 204.26 85.7656C204.359 85.7656 204.412 85.8177 204.412 85.9219V88.5312C204.412 88.6354 204.359 88.6875 204.26 88.6875Z" fill="#DDDCDB"/>
<mask id="mask50_13_1925" style="mask-type:luminance" maskUnits="userSpaceOnUse" x="203" y="91" width="2" height="3">
<path d="M203.667 91.3333H205V93.9374H203.667V91.3333Z" fill="white"/>
</mask>
<g mask="url(#mask50_13_1925)">
<path d="M204.245 94.2708C204.146 94.2708 204.094 94.2187 204.094 94.1145V91.5051C204.094 91.401 204.146 91.3489 204.245 91.3489C204.349 91.3489 204.401 91.401 204.401 91.5051V94.1145C204.401 94.2187 204.349 94.2708 204.245 94.2708Z" fill="#DDDCDB"/>
</g>
<mask id="mask51_13_1925" style="mask-type:luminance" maskUnits="userSpaceOnUse" x="206" y="82" width="3" height="6">
<path d="M206.333 82.9375H209V87.3333H206.333V82.9375Z" fill="white"/>
</mask>
<g mask="url(#mask51_13_1925)">
<path d="M207.776 86.0781C207.677 86.0781 207.625 86.026 207.625 85.9219V83.3125C207.625 83.2083 207.677 83.1562 207.776 83.1562C207.88 83.1562 207.932 83.2083 207.932 83.3125V85.9219C207.932 86.026 207.88 86.0781 207.776 86.0781Z" fill="#DDDCDB"/>
</g>
<path d="M200.422 91.5155C200.323 91.5155 200.271 91.4635 200.271 91.3645V88.7499C200.271 88.6458 200.323 88.5989 200.422 88.5989C200.526 88.5989 200.578 88.6458 200.578 88.7499V91.3645C200.578 91.4635 200.526 91.5155 200.422 91.5155Z" fill="#DDDCDB"/>
<mask id="mask52_13_1925" style="mask-type:luminance" maskUnits="userSpaceOnUse" x="199" y="82" width="2" height="6">
<path d="M199.667 82.9375H201V87.3333H199.667V82.9375Z" fill="white"/>
</mask>
<g mask="url(#mask52_13_1925)">
<path d="M200.422 86.0312C200.323 86.0312 200.271 85.9843 200.271 85.8801V83.2708C200.271 83.1666 200.323 83.1145 200.422 83.1145C200.526 83.1145 200.578 83.1666 200.578 83.2708V85.8801C200.578 85.9843 200.526 86.0312 200.422 86.0312Z" fill="#DDDCDB"/>
</g>
<path d="M207.776 91.5155C207.677 91.5155 207.625 91.4635 207.625 91.3645V88.7499C207.625 88.6458 207.677 88.5989 207.776 88.5989C207.88 88.5989 207.932 88.6458 207.932 88.7499V91.3645C207.932 91.4635 207.88 91.5155 207.776 91.5155Z" fill="#DDDCDB"/>
<mask id="mask53_13_1925" style="mask-type:luminance" maskUnits="userSpaceOnUse" x="195" y="90" width="4" height="4">
<path d="M195.667 90H198.333V93.9375H195.667V90Z" fill="white"/>
</mask>
<g mask="url(#mask53_13_1925)">
<path d="M197.016 94.1562C196.917 94.1562 196.865 94.1041 196.865 94.0051V91.3905C196.865 91.2864 196.917 91.2395 197.016 91.2395C197.12 91.2395 197.172 91.2864 197.172 91.3905V94.0051C197.172 94.1041 197.12 94.1562 197.016 94.1562Z" fill="#DDDCDB"/>
</g>
<mask id="mask54_13_1925" style="mask-type:luminance" maskUnits="userSpaceOnUse" x="210" y="84" width="21" height="4">
<path d="M210.167 84.6667H230.333V87.3334H210.167V84.6667Z" fill="white"/>
</mask>
<g mask="url(#mask54_13_1925)">
<path d="M229.672 86.0781H210.37C210.266 86.0781 210.214 86.026 210.214 85.9219C210.214 85.8177 210.266 85.7656 210.37 85.7656H229.672C229.776 85.7656 229.828 85.8177 229.828 85.9219C229.828 86.026 229.776 86.0781 229.672 86.0781Z" fill="#DDDCDB"/>
</g>
<path d="M232.906 88.7968H214.698C214.594 88.7968 214.542 88.7447 214.542 88.6405C214.542 88.5416 214.594 88.4895 214.698 88.4895H232.906C233.01 88.4895 233.063 88.5416 233.063 88.6405C233.063 88.7447 233.01 88.7968 232.906 88.7968Z" fill="#DDDCDB"/>
<mask id="mask55_13_1925" style="mask-type:luminance" maskUnits="userSpaceOnUse" x="218" y="82" width="19" height="2">
<path d="M218.333 82.9375H236.167V83.3333H218.333V82.9375Z" fill="white"/>
</mask>
<g mask="url(#mask55_13_1925)">
<path d="M236.104 83.2448H219.359C219.255 83.2448 219.203 83.1979 219.203 83.0938C219.203 82.9896 219.255 82.9375 219.359 82.9375H236.104C236.208 82.9375 236.26 82.9896 236.26 83.0938C236.26 83.1979 236.208 83.2448 236.104 83.2448Z" fill="#DDDCDB"/>
</g>
<path d="M229.818 91.5678H211.604C211.505 91.5678 211.453 91.5157 211.453 91.4167C211.453 91.3126 211.505 91.2605 211.604 91.2605H229.818C229.917 91.2605 229.969 91.3126 229.969 91.4167C229.969 91.5157 229.917 91.5678 229.818 91.5678Z" fill="#DDDCDB"/>
<path d="M217.026 88.6875C216.922 88.6875 216.87 88.6354 216.87 88.5312V85.9219C216.87 85.8177 216.922 85.7656 217.026 85.7656C217.125 85.7656 217.177 85.8177 217.177 85.9219V88.5312C217.177 88.6354 217.125 88.6875 217.026 88.6875Z" fill="#DDDCDB"/>
<path d="M224.38 88.6875C224.276 88.6875 224.224 88.6354 224.224 88.5312V85.9219C224.224 85.8177 224.276 85.7656 224.38 85.7656C224.484 85.7656 224.531 85.8177 224.531 85.9219V88.5312C224.531 88.6354 224.484 88.6875 224.38 88.6875Z" fill="#DDDCDB"/>
<mask id="mask56_13_1925" style="mask-type:luminance" maskUnits="userSpaceOnUse" x="223" y="91" width="2" height="3">
<path d="M223.667 91.3333H225V93.9374H223.667V91.3333Z" fill="white"/>
</mask>
<g mask="url(#mask56_13_1925)">
<path d="M224.365 94.2708C224.266 94.2708 224.214 94.2187 224.214 94.1145V91.5051C224.214 91.401 224.266 91.3489 224.365 91.3489C224.469 91.3489 224.521 91.401 224.521 91.5051V94.1145C224.521 94.2187 224.469 94.2708 224.365 94.2708Z" fill="#DDDCDB"/>
</g>
<mask id="mask57_13_1925" style="mask-type:luminance" maskUnits="userSpaceOnUse" x="227" y="82" width="2" height="6">
<path d="M227.667 82.9375H229V87.3333H227.667V82.9375Z" fill="white"/>
</mask>
<g mask="url(#mask57_13_1925)">
<path d="M227.896 86.0781C227.797 86.0781 227.745 86.026 227.745 85.9219V83.3125C227.745 83.2083 227.797 83.1562 227.896 83.1562C228 83.1562 228.052 83.2083 228.052 83.3125V85.9219C228.052 86.026 228 86.0781 227.896 86.0781Z" fill="#DDDCDB"/>
</g>
<path d="M220.542 91.5155C220.443 91.5155 220.391 91.4635 220.391 91.3645V88.7499C220.391 88.6458 220.443 88.5989 220.542 88.5989C220.646 88.5989 220.698 88.6458 220.698 88.7499V91.3645C220.698 91.4635 220.646 91.5155 220.542 91.5155Z" fill="#DDDCDB"/>
<mask id="mask58_13_1925" style="mask-type:luminance" maskUnits="userSpaceOnUse" x="219" y="82" width="2" height="6">
<path d="M219.667 82.9375H221V87.3333H219.667V82.9375Z" fill="white"/>
</mask>
<g mask="url(#mask58_13_1925)">
<path d="M220.542 86.0312C220.443 86.0312 220.391 85.9843 220.391 85.8801V83.2708C220.391 83.1666 220.443 83.1145 220.542 83.1145C220.646 83.1145 220.698 83.1666 220.698 83.2708V85.8801C220.698 85.9843 220.646 86.0312 220.542 86.0312Z" fill="#DDDCDB"/>
</g>
<path d="M227.896 91.5155C227.797 91.5155 227.745 91.4635 227.745 91.3645V88.7499C227.745 88.6458 227.797 88.5989 227.896 88.5989C228 88.5989 228.052 88.6458 228.052 88.7499V91.3645C228.052 91.4635 228 91.5155 227.896 91.5155Z" fill="#DDDCDB"/>
<mask id="mask59_13_1925" style="mask-type:luminance" maskUnits="userSpaceOnUse" x="215" y="90" width="4" height="4">
<path d="M215.667 90H218.333V93.9375H215.667V90Z" fill="white"/>
</mask>
<g mask="url(#mask59_13_1925)">
<path d="M217.135 94.1562C217.036 94.1562 216.984 94.1041 216.984 94.0051V91.3905C216.984 91.2864 217.036 91.2395 217.135 91.2395C217.24 91.2395 217.292 91.2864 217.292 91.3905V94.0051C217.292 94.1041 217.24 94.1562 217.135 94.1562Z" fill="#DDDCDB"/>
</g>
</g>
<defs>
<clipPath id="clip0_13_1925">
<rect width="310" height="326" fill="white"/>
</clipPath>
</defs>
</svg>
