<svg width="202" height="310" viewBox="0 0 202 310" fill="none" xmlns="http://www.w3.org/2000/svg">
<g clip-path="url(#clip0_13_1925)">
<mask id="mask0_13_1925" style="mask-type:luminance" maskUnits="userSpaceOnUse" x="11" y="136" width="180" height="111">
<path d="M11.625 136.667H190.625V246.511H11.625V136.667Z" fill="white"/>
</mask>
<g mask="url(#mask0_13_1925)">
<path fill-rule="evenodd" clip-rule="evenodd" d="M17.3125 246.031H66.0625V172.557C66.0625 171.823 66.099 171.089 66.1719 170.354C66.2448 169.625 66.3542 168.896 66.4948 168.172C66.6406 167.453 66.8177 166.74 67.0313 166.036C67.2448 165.333 67.4896 164.641 67.776 163.958C68.0573 163.276 68.3698 162.615 68.7188 161.964C69.0625 161.318 69.4427 160.688 69.849 160.073C70.2604 159.464 70.6979 158.87 71.1615 158.302C71.6302 157.734 72.125 157.188 72.6458 156.667C73.1667 156.146 73.7083 155.651 74.276 155.188C74.849 154.719 75.4375 154.281 76.0521 153.87C76.6615 153.464 77.2917 153.083 77.9427 152.74C78.5885 152.391 79.2552 152.078 79.9323 151.797C80.6146 151.516 81.3073 151.266 82.0104 151.052C82.7135 150.839 83.4271 150.661 84.151 150.516C84.8698 150.375 85.599 150.266 86.3333 150.193C87.0625 150.12 87.7969 150.083 88.5365 150.083H113.536C114.271 150.083 115.005 150.12 115.734 150.193C116.469 150.266 117.198 150.375 117.917 150.516C118.641 150.661 119.354 150.839 120.057 151.052C120.76 151.266 121.453 151.516 122.135 151.797C122.813 152.078 123.479 152.391 124.125 152.74C124.776 153.083 125.406 153.464 126.021 153.87C126.63 154.281 127.224 154.719 127.792 155.188C128.359 155.651 128.906 156.146 129.422 156.667C129.943 157.188 130.438 157.734 130.906 158.302C131.37 158.87 131.807 159.464 132.219 160.073C132.625 160.688 133.005 161.318 133.354 161.964C133.698 162.615 134.016 163.276 134.297 163.958C134.578 164.641 134.823 165.333 135.036 166.036C135.25 166.74 135.427 167.453 135.573 168.172C135.719 168.896 135.823 169.625 135.896 170.354C135.969 171.089 136.005 171.823 136.005 172.557V246.031H190.443V192.021C190.443 190.234 190.354 188.458 190.182 186.682C190.005 184.911 189.745 183.146 189.396 181.401C189.052 179.651 188.615 177.922 188.099 176.219C187.583 174.51 186.984 172.833 186.302 171.188C185.62 169.542 184.854 167.927 184.016 166.359C183.177 164.786 182.26 163.255 181.271 161.776C180.276 160.292 179.219 158.865 178.089 157.484C176.953 156.104 175.76 154.786 174.5 153.526C173.24 152.266 171.917 151.068 170.542 149.938C169.161 148.807 167.729 147.745 166.25 146.755C164.766 145.766 163.24 144.849 161.667 144.01C160.094 143.167 158.484 142.406 156.839 141.724C155.188 141.042 153.516 140.443 151.807 139.927C150.099 139.406 148.375 138.974 146.625 138.625C144.875 138.276 143.115 138.016 141.339 137.844C139.568 137.667 137.786 137.578 136.005 137.578H66.0625C64.2813 137.578 62.5052 137.667 60.7292 137.844C58.9583 138.016 57.1927 138.276 55.4479 138.625C53.6979 138.974 51.9688 139.406 50.2656 139.922C48.5573 140.443 46.8854 141.042 45.2344 141.724C43.5885 142.406 41.9792 143.167 40.4063 144.005C38.8333 144.844 37.3073 145.76 35.8281 146.75C34.3437 147.74 32.9115 148.802 31.5365 149.932C30.1563 151.063 28.8385 152.255 27.5781 153.516C26.3177 154.776 25.1198 156.099 23.9896 157.474C22.8594 158.854 21.7969 160.281 20.8073 161.766C19.8177 163.245 18.901 164.771 18.0625 166.344C17.2187 167.917 16.4583 169.526 15.776 171.172C15.0937 172.818 14.4896 174.495 13.974 176.198C13.4583 177.906 13.0208 179.63 12.6771 181.38C12.3281 183.13 12.0625 184.891 11.8906 186.661C11.7135 188.438 11.625 190.214 11.625 192V246.01L17.3125 246.031Z" fill="#A88856"/>
</g>
<mask id="mask1_13_1925" style="mask-type:luminance" maskUnits="userSpaceOnUse" x="11" y="46" width="56" height="104">
<path d="M11.625 46.5105H67V150H11.625V46.5105Z" fill="white"/>
</mask>
<g mask="url(#mask1_13_1925)">
<path fill-rule="evenodd" clip-rule="evenodd" d="M17.3125 46.8491H66.0625V122.677C63.4531 122.672 60.849 122.818 58.2552 123.11C55.6563 123.406 53.0885 123.844 50.5417 124.427C47.9948 125.011 45.4896 125.735 43.026 126.599C40.5625 127.469 38.1563 128.474 35.8073 129.61C33.4583 130.75 31.1771 132.021 28.974 133.417C26.7656 134.818 24.6458 136.333 22.6094 137.969C20.5781 139.61 18.6406 141.354 16.8021 143.214C14.9688 145.068 13.2396 147.026 11.625 149.078V46.8491H17.3125Z" fill="#DFAF68"/>
</g>
<mask id="mask2_13_1925" style="mask-type:luminance" maskUnits="userSpaceOnUse" x="135" y="46" width="56" height="104">
<path d="M135 46.5105H190.625V150H135V46.5105Z" fill="white"/>
</mask>
<g mask="url(#mask2_13_1925)">
<path fill-rule="evenodd" clip-rule="evenodd" d="M184.745 46.8491H136V122.677C138.609 122.672 141.214 122.818 143.813 123.11C146.406 123.406 148.979 123.844 151.521 124.427C154.068 125.011 156.573 125.735 159.036 126.599C161.5 127.469 163.906 128.474 166.255 129.61C168.609 130.75 170.885 132.021 173.094 133.417C175.297 134.818 177.422 136.333 179.453 137.969C181.49 139.61 183.422 141.354 185.26 143.214C187.099 145.068 188.823 147.026 190.438 149.078V46.8491H184.745Z" fill="#DFAF68"/>
</g>
<mask id="mask3_13_1925" style="mask-type:luminance" maskUnits="userSpaceOnUse" x="65" y="112" width="71" height="26">
<path d="M65.7864 112H135.786V138H65.7864V112Z" fill="white"/>
</mask>
<g mask="url(#mask3_13_1925)">
<path d="M82.2759 112C81.0311 112.026 79.9686 112.536 79.0416 113.385C79.0416 113.385 78.328 113.641 78.1614 113.276C77.8332 112.557 77.2551 112.167 76.927 112.338C76.2916 112.672 76.6509 114.776 76.3541 114.823C75.8957 115.156 75.2082 115.38 74.9739 116.094C74.7759 116.703 73.7707 116.536 73.5624 116.865C73.6718 117.302 74.052 117.094 74.302 117.208C73.677 118.338 72.2239 118.573 71.2603 119.547C71.0103 119.958 71.3228 120.375 71.2343 120.677C71.0728 121.26 70.7082 121.641 70.6249 122.234C70.4999 123.125 70.5728 124.052 70.1353 124.948C69.7707 125.812 69.3801 126.656 68.8957 127.437C68.3957 128.24 67.4843 128.766 67.1145 129.625C66.8124 130.323 66.9843 131.281 66.8749 133.042C66.7968 134.104 66.5311 134.349 66.5259 135.583C66.5103 135.776 66.4634 135.953 66.4061 136.135C66.3489 136.328 66.2551 136.495 66.1822 136.698C66.078 136.995 66.5624 137.328 67.7759 137.651C67.9374 137.698 68.1874 137.797 68.2186 137.588C68.2343 137.302 67.8749 137.12 67.7239 136.87C67.6301 136.719 67.5259 136.573 67.4686 136.406C67.3332 135.99 67.2499 135.547 67.2707 135.109C67.3176 134 67.7811 132.661 68.0416 131.88C68.2916 131.146 70.0311 128.99 71.0884 127.594C71.5364 127.01 72.0416 127.042 72.427 126.729C72.9166 126.333 73.3332 125.901 73.7707 125.484C74.0207 125.656 74.3645 126.854 74.4895 127.562C74.6145 128.271 74.5259 129.042 74.4843 129.734C74.4426 130.417 74.2447 131.026 74.3593 131.797C74.6718 132.708 75.5728 133.193 76.4999 134.609C77.1666 135.625 77.5416 136.359 77.7811 136.812C77.8228 136.885 77.8541 136.953 77.8541 137.031C77.8541 137.135 77.7655 137.219 77.7447 137.333C77.6874 137.641 78.2134 137.901 79.4634 138.042C79.6301 138.062 79.8905 138.125 79.8905 137.911C79.8645 137.604 79.4426 137.552 79.2759 137.245C78.9739 136.557 78.5468 136.141 78.1405 135.615C77.4322 134.698 76.9061 133.786 76.4947 132.646C76.3541 132.187 76.2082 131.875 76.177 131.083C76.1509 130.297 76.3749 129.891 76.4322 129.437C76.4895 128.963 76.4739 128.463 76.7134 127.807C76.9582 127.115 77.6197 126.213 77.4166 125.312C77.2864 124.792 76.9843 124.463 76.953 124C76.9322 123.698 76.9947 123.312 77.1301 123.115C77.453 122.708 79.1718 123.818 80.177 124.198C81.0103 124.417 82.4947 124.516 83.6405 124.219C83.8749 124.135 84.0624 124.698 84.5572 125.01C85.0936 125.354 85.927 125.135 86.8124 125.896C86.6718 127.245 86.5936 128.245 86.2499 129.453C86.0468 130.146 85.7239 130.693 85.7239 131.562C85.7239 132.167 85.8384 132.719 85.7968 133.255C85.7447 133.984 85.4739 134.812 85.4218 135.599C85.3905 136.01 85.5364 136.635 85.4686 137.146C85.4478 137.323 85.328 137.479 85.3228 137.651C85.3124 137.963 85.8697 138.141 87.1249 138.088C87.2968 138.083 87.5624 138.104 87.5311 137.896C87.453 137.599 86.9791 137.588 86.8228 137.333C86.6093 136.995 86.6197 136.661 86.5676 136.167C86.4478 135.193 86.5624 134.323 86.7343 133.427C86.8176 133.01 87.0311 132.562 87.1718 132.224C87.2916 131.927 87.3749 131.693 87.4374 131.411C87.4947 131.12 87.4895 130.838 87.5259 130.526C87.578 130.047 87.6718 129.557 87.828 129.068C88.1197 128.349 88.3749 127.687 88.8801 126.969C89.5989 127.63 90.5572 128.26 91.203 129.104C91.6718 129.724 91.9322 130.526 91.8436 131.37C91.8124 131.635 91.703 131.896 91.4218 132.135C90.5728 132.901 89.9999 134.25 88.8749 134.646C88.6509 134.724 88.4009 134.557 88.1614 134.573C87.8489 134.599 87.7395 135.177 87.9322 136.417C87.9582 136.583 87.9686 136.849 88.1718 136.797C88.4634 136.687 88.3957 136.266 88.6561 136.026C89.4999 135.354 89.7395 135.682 90.2186 135.104C90.7082 134.531 91.1926 133.948 91.6978 133.323C92.1301 132.802 92.5416 132.281 93.1249 131.724C93.3332 131.531 93.5468 131.344 93.703 131.078C93.802 130.937 93.8853 130.802 93.9166 130.646C93.9947 130.224 93.5676 129.984 93.3072 129.682C92.9478 129.297 92.5103 128.792 92.2395 128.391C92.1614 128.276 90.4322 125.479 90.4895 125.229C91.2603 124.797 91.8489 124.161 92.2082 123.271C93.2291 123.078 94.0936 122.969 94.9218 123.031C95.1561 123.052 95.3905 123.115 95.6249 123.135C96.0311 123.172 96.3853 123.047 96.9166 122.88C97.7707 122.609 98.7551 122.172 99.2082 121.818C99.3384 121.713 102.495 119.047 102.974 118.021C103.114 117.641 103.094 117.24 103.307 116.963C103.474 116.755 103.802 116.713 104.052 116.588C104.864 116.286 104.943 115.401 106.005 114.937C106.088 114.901 106.167 114.885 106.25 114.875C107.062 118.943 108.489 124.344 111.406 128.01C112.917 129.906 114.828 131.338 117.26 131.849C119.323 132.281 121.739 132.052 124.583 130.917C124.588 130.927 124.594 130.937 124.594 130.948C124.682 131.24 124.849 131.562 125.172 131.62C125.453 131.667 125.802 131.828 125.76 132.172C125.739 132.542 125.292 132.484 125.114 132.734C124.875 132.974 125.088 133.396 125.385 133.448C125.656 133.51 125.927 133.411 126.198 133.427C126.448 133.422 126.724 133.391 126.922 133.219C127.203 133.12 127.104 133.432 127.016 133.573C126.864 134.021 126.849 134.521 127.031 134.969C127.12 135.245 127.151 135.536 127.198 135.818C127.172 136.141 127.255 136.49 127.057 136.771C126.901 137.052 126.807 137.385 126.854 137.708C126.88 137.979 127.135 138.115 127.328 138.26C127.557 138.463 127.859 138.443 128.135 138.458C128.443 138.479 128.745 138.505 129.052 138.469C129.391 138.234 128.979 137.885 128.729 137.812C128.51 137.599 128.104 137.5 128.078 137.151C128.104 136.833 128.062 136.516 128.135 136.208C128.193 136.078 128.042 135.62 128.297 135.823C128.474 136.073 128.734 136.245 129.031 136.302C129.432 136.396 129.849 136.344 130.255 136.349C130.614 136.354 130.974 136.328 131.328 136.38C131.594 136.443 131.88 136.573 132.146 136.443C132.344 136.172 132.708 136.401 132.682 136.693C132.703 137.016 132.766 137.323 132.818 137.635C132.885 137.995 133.172 137.953 133.505 137.771C133.823 137.594 134.229 137.568 134.521 137.422C135.026 137.24 135.364 137.062 135.797 136.932C135.943 136.604 135.453 136.573 135.245 136.51C134.844 136.427 134.422 136.599 134.036 136.427C133.698 136.302 133.505 135.969 133.271 135.719C133.073 135.495 133.078 135.182 132.943 134.927C132.838 134.641 132.802 134.333 132.708 134.047C132.646 133.76 132.609 133.469 132.526 133.187C132.458 132.693 132.359 132.208 132.318 131.713C132.37 131.297 132.083 130.963 131.953 130.594C131.786 130.286 131.771 129.927 131.609 129.62C131.437 129.38 131.187 129.177 131.135 128.87C131.068 128.677 130.88 128.37 131.088 128.224C131.391 128.198 131.505 128.547 131.672 128.74C131.859 128.979 132.026 129.318 132.37 129.328C132.667 129.391 133 129.13 132.776 128.828C132.578 128.552 132.37 128.281 132.239 127.958C132.088 127.734 131.87 127.568 131.734 127.333C131.583 127.115 131.531 126.844 131.354 126.641C131.167 126.391 131.078 126.083 131.021 125.781C131 125.354 131.135 124.948 131.203 124.531C131.26 124 131.052 123.479 131.104 122.948C131.109 122.588 131.13 122.224 131.042 121.87C131 121.609 130.958 121.302 131.141 121.083C131.359 120.828 131.812 121.187 131.943 120.844C131.953 120.667 132.016 120.49 132.156 120.406C132.198 120.38 132.281 120.385 132.312 120.359C132.516 120.172 132.323 119.885 132.286 119.672C132.198 119.338 132.505 119.062 132.458 118.74C132.338 118.479 132.073 118.276 131.802 118.198C130.568 117.948 130.047 118.953 130.266 120.031C130.385 120.37 130.161 120.661 129.958 120.906C129.776 121.255 129.354 121.026 129.052 121.073C128.833 121.057 128.641 121.198 128.547 121.391C128.38 121.734 128.208 122.078 127.989 122.391C127.771 122.734 127.505 123.052 127.312 123.411C127.182 123.734 127.146 124.083 127.083 124.427C127.042 124.88 127.057 125.344 126.989 125.797C126.932 126.187 127.094 126.557 127.099 126.943C126.969 127.219 126.786 127.49 126.802 127.812C126.708 128.219 126.516 128.588 126.354 128.969C126.255 129.193 126.083 129.375 125.87 129.49C125.547 129.734 125.224 129.979 124.922 130.25C124.844 130.338 124.739 130.437 124.667 130.542C121.781 131.734 119.364 131.969 117.328 131.542C114.979 131.047 113.13 129.667 111.651 127.812C108.812 124.24 107.38 118.901 106.568 114.854C106.739 114.849 106.906 114.828 107.036 114.724C107.203 114.594 107.354 114.422 107.338 114.167C107.333 113.745 106.812 113.083 106.302 112.896C106.036 112.797 105.547 112.906 105.219 112.927C104.724 112.958 104.286 113.021 103.859 113.167C103.292 113.01 102.802 112.656 102.052 112.99C102.052 112.99 101.526 112.437 101.266 112.578C101.104 112.667 101.062 113.49 101.062 113.495C100.838 113.734 100.588 113.937 100.364 114.385C100.141 114.87 99.9843 115.156 99.7343 115.474C99.5259 115.734 99.4322 116.036 99.2707 116.312C98.8489 117.026 98.2759 117.526 97.9582 118.427C97.5103 119.13 97.0936 119.182 96.5884 119.255C95.4374 119.391 94.4374 118.984 93.4791 118.458C92.3072 117.948 91.2291 117.338 90.1666 116.234C89.9478 115.911 90.4582 115.531 90.3332 115.099C90.1978 114.682 89.7551 114.693 89.427 114.37C88.9374 113.885 89.0155 112.943 88.2864 112.672C87.7134 112.49 87.5051 114.073 87.0936 113.661C85.6614 112.187 84.1614 112.073 82.8176 112.021C82.6353 112 82.453 111.995 82.2759 112ZM127.599 129.526C127.385 129.797 127.667 130.125 127.599 130.427C127.594 130.865 127.583 131.302 127.583 131.74C127.526 132.047 127.198 131.859 127.01 131.901C126.672 131.906 126.333 131.766 126.083 131.547C125.87 131.328 126.068 131.057 126.292 130.953C126.5 130.797 126.734 130.677 126.958 130.542C127.266 130.271 127.286 129.802 127.599 129.526Z" fill="#A88856"/>
</g>
<mask id="mask4_13_1925" style="mask-type:luminance" maskUnits="userSpaceOnUse" x="11" y="5" width="30" height="43">
<path d="M11.4583 5.23438H40.3333V47.2344H11.4583V5.23438Z" fill="white"/>
</mask>
<g mask="url(#mask4_13_1925)">
<path d="M39.6405 5.23438C38.729 6.92708 37.9894 7.82292 37.1821 8.29688C29.7186 12.6719 24.7811 15.9896 22.2759 18.0938C19.3957 20.5156 17.1717 22.7813 15.5363 24.8542C11.4634 30 12.0675 47.5 12.7863 47.474C13.505 47.4427 33.6196 47.0365 40.0675 46.9271L39.6405 5.23438Z" fill="#DFAF68" fill-opacity="0.996"/>
</g>
<mask id="mask5_13_1925" style="mask-type:luminance" maskUnits="userSpaceOnUse" x="39" y="5" width="29" height="43">
<path d="M39 5.23438H67.4583V47.2344H39V5.23438Z" fill="white"/>
</mask>
<g mask="url(#mask5_13_1925)">
<path d="M39.6405 5.23438C40.5468 6.92708 41.2864 7.82292 42.0937 8.29688C49.5624 12.6719 54.4999 15.9896 57.0051 18.0938C59.8853 20.5156 62.1041 22.7813 63.7395 24.8542C67.8124 30 67.2135 47.5 66.4895 47.474C65.7708 47.4427 45.6614 47.0365 39.2083 46.9271L39.6405 5.23438Z" fill="#DFAF68" fill-opacity="0.996"/>
</g>
<mask id="mask6_13_1925" style="mask-type:luminance" maskUnits="userSpaceOnUse" x="135" y="6" width="30" height="43">
<path d="M135.01 6.23438H164.333V48.2344H135.01V6.23438Z" fill="white"/>
</mask>
<g mask="url(#mask6_13_1925)">
<path d="M163.193 6.23438C162.281 7.92708 161.542 8.82292 160.734 9.29688C153.266 13.6719 148.328 16.9896 145.823 19.0938C142.943 21.5156 140.724 23.7813 139.089 25.8542C135.016 31 135.62 48.5 136.339 48.474C137.057 48.4427 157.167 48.0365 163.62 47.9271L163.193 6.23438Z" fill="#DFAF68" fill-opacity="0.996"/>
</g>
<mask id="mask7_13_1925" style="mask-type:luminance" maskUnits="userSpaceOnUse" x="161" y="6" width="30" height="43">
<path d="M161.667 6.23438H191V48.2344H161.667V6.23438Z" fill="white"/>
</mask>
<g mask="url(#mask7_13_1925)">
<path d="M163.188 6.23438C164.099 7.92708 164.839 8.82292 165.646 9.29688C173.115 13.6719 178.052 16.9896 180.557 19.0938C183.438 21.5156 185.656 23.7813 187.292 25.8542C191.365 31 190.76 48.5 190.042 48.474C189.323 48.4427 169.214 48.0365 162.76 47.9271L163.188 6.23438Z" fill="#DFAF68" fill-opacity="0.996"/>
</g>
<mask id="mask8_13_1925" style="mask-type:luminance" maskUnits="userSpaceOnUse" x="164" y="111" width="21" height="2">
<path d="M164.229 111.333H184.333V112.667H164.229V111.333Z" fill="white"/>
</mask>
<g mask="url(#mask8_13_1925)">
<path d="M183.734 111.677H164.432C164.328 111.677 164.276 111.625 164.276 111.521C164.276 111.422 164.328 111.37 164.432 111.37H183.734C183.839 111.37 183.891 111.422 183.891 111.521C183.891 111.625 183.839 111.677 183.734 111.677Z" fill="#DDDCDB"/>
</g>
<path d="M186.969 114.396H168.76C168.656 114.396 168.604 114.344 168.604 114.245C168.604 114.141 168.656 114.089 168.76 114.089H186.969C187.073 114.089 187.125 114.141 187.125 114.245C187.125 114.344 187.073 114.396 186.969 114.396Z" fill="#DDDCDB"/>
<mask id="mask9_13_1925" style="mask-type:luminance" maskUnits="userSpaceOnUse" x="172" y="108" width="19" height="2">
<path d="M172.333 108.536H190.229V110H172.333V108.536Z" fill="white"/>
</mask>
<g mask="url(#mask9_13_1925)">
<path d="M190.167 108.849H173.422C173.318 108.849 173.266 108.797 173.266 108.693C173.266 108.588 173.318 108.536 173.422 108.536H190.167C190.271 108.536 190.323 108.588 190.323 108.693C190.323 108.797 190.271 108.849 190.167 108.849Z" fill="#DDDCDB"/>
</g>
<path d="M183.88 117.167H165.672C165.568 117.167 165.516 117.12 165.516 117.016C165.516 116.911 165.568 116.859 165.672 116.859H183.88C183.979 116.859 184.031 116.911 184.031 117.016C184.031 117.12 183.979 117.167 183.88 117.167Z" fill="#DDDCDB"/>
<path d="M171.089 114.287C170.984 114.287 170.932 114.234 170.932 114.135V111.521C170.932 111.422 170.984 111.37 171.089 111.37C171.188 111.37 171.24 111.422 171.24 111.521V114.135C171.24 114.234 171.188 114.287 171.089 114.287Z" fill="#DDDCDB"/>
<path d="M178.443 114.287C178.338 114.287 178.286 114.234 178.286 114.135V111.521C178.286 111.422 178.338 111.37 178.443 111.37C178.547 111.37 178.594 111.422 178.594 111.521V114.135C178.594 114.234 178.547 114.287 178.443 114.287Z" fill="#DDDCDB"/>
<mask id="mask10_13_1925" style="mask-type:luminance" maskUnits="userSpaceOnUse" x="177" y="116" width="2" height="4">
<path d="M177.667 116.667H179V119.537H177.667V116.667Z" fill="white"/>
</mask>
<g mask="url(#mask10_13_1925)">
<path d="M178.432 119.87C178.328 119.87 178.276 119.818 178.276 119.714V117.104C178.276 117 178.328 116.948 178.432 116.948C178.531 116.948 178.583 117 178.583 117.104V119.714C178.583 119.818 178.531 119.87 178.432 119.87Z" fill="#DDDCDB"/>
</g>
<path d="M181.964 111.677C181.859 111.677 181.807 111.625 181.807 111.521V108.911C181.807 108.807 181.859 108.755 181.964 108.755C182.063 108.755 182.115 108.807 182.115 108.911V111.521C182.115 111.625 182.063 111.677 181.964 111.677Z" fill="#DDDCDB"/>
<path d="M174.604 117.115C174.505 117.115 174.453 117.068 174.453 116.964V114.349C174.453 114.25 174.505 114.198 174.604 114.198C174.708 114.198 174.76 114.25 174.76 114.349V116.964C174.76 117.068 174.708 117.115 174.604 117.115Z" fill="#DDDCDB"/>
<path d="M174.604 111.635C174.505 111.635 174.453 111.583 174.453 111.479V108.87C174.453 108.766 174.505 108.714 174.604 108.714C174.708 108.714 174.76 108.766 174.76 108.87V111.479C174.76 111.583 174.708 111.635 174.604 111.635Z" fill="#DDDCDB"/>
<path d="M181.964 117.115C181.859 117.115 181.807 117.068 181.807 116.964V114.349C181.807 114.25 181.859 114.198 181.964 114.198C182.063 114.198 182.115 114.25 182.115 114.349V116.964C182.115 117.068 182.063 117.115 181.964 117.115Z" fill="#DDDCDB"/>
<mask id="mask11_13_1925" style="mask-type:luminance" maskUnits="userSpaceOnUse" x="171" y="116" width="2" height="4">
<path d="M171 116.667H172.333V119.537H171V116.667Z" fill="white"/>
</mask>
<g mask="url(#mask11_13_1925)">
<path d="M171.203 119.755C171.099 119.755 171.047 119.703 171.047 119.604V116.99C171.047 116.891 171.099 116.839 171.203 116.839C171.302 116.839 171.354 116.891 171.354 116.99V119.604C171.354 119.703 171.302 119.755 171.203 119.755Z" fill="#DDDCDB"/>
</g>
<mask id="mask12_13_1925" style="mask-type:luminance" maskUnits="userSpaceOnUse" x="12" y="96" width="21" height="2">
<path d="M12.2812 96.6667H32.3333V98.0001H12.2812V96.6667Z" fill="white"/>
</mask>
<g mask="url(#mask12_13_1925)">
<path d="M31.7865 97.4479H12.4844C12.3802 97.4479 12.3281 97.3958 12.3281 97.2969C12.3281 97.1927 12.3802 97.1406 12.4844 97.1406H31.7865C31.8906 97.1406 31.9427 97.1927 31.9427 97.2969C31.9427 97.3958 31.8906 97.4479 31.7865 97.4479Z" fill="#DDDCDB"/>
</g>
<path d="M35.0208 100.172H16.8125C16.7083 100.172 16.6562 100.12 16.6562 100.016C16.6562 99.9114 16.7083 99.8645 16.8125 99.8645H35.0208C35.125 99.8645 35.1771 99.9114 35.1771 100.016C35.1771 100.12 35.125 100.172 35.0208 100.172Z" fill="#DDDCDB"/>
<mask id="mask13_13_1925" style="mask-type:luminance" maskUnits="userSpaceOnUse" x="20" y="94" width="19" height="2">
<path d="M20.3333 94.3125H38.2812V95.3333H20.3333V94.3125Z" fill="white"/>
</mask>
<g mask="url(#mask13_13_1925)">
<path d="M38.2187 94.6198H21.4739C21.3697 94.6198 21.3176 94.5677 21.3176 94.4688C21.3176 94.3646 21.3697 94.3125 21.4739 94.3125H38.2187C38.3228 94.3125 38.3749 94.3646 38.3749 94.4688C38.3749 94.5677 38.3228 94.6198 38.2187 94.6198Z" fill="#DDDCDB"/>
</g>
<path d="M31.9322 102.943H13.7187C13.6197 102.943 13.5676 102.891 13.5676 102.787C13.5676 102.688 13.6197 102.635 13.7187 102.635H31.9322C32.0312 102.635 32.0833 102.688 32.0833 102.787C32.0833 102.891 32.0312 102.943 31.9322 102.943Z" fill="#DDDCDB"/>
<path d="M19.1406 100.063C19.0365 100.063 18.9844 100.01 18.9844 99.9063V97.2969C18.9844 97.1927 19.0365 97.1406 19.1406 97.1406C19.2396 97.1406 19.2917 97.1927 19.2917 97.2969V99.9063C19.2917 100.01 19.2396 100.063 19.1406 100.063Z" fill="#DDDCDB"/>
<path d="M26.4949 100.063C26.3907 100.063 26.3386 100.01 26.3386 99.9063V97.2969C26.3386 97.1927 26.3907 97.1406 26.4949 97.1406C26.5938 97.1406 26.6459 97.1927 26.6459 97.2969V99.9063C26.6459 100.01 26.5938 100.063 26.4949 100.063Z" fill="#DDDCDB"/>
<mask id="mask14_13_1925" style="mask-type:luminance" maskUnits="userSpaceOnUse" x="25" y="102" width="2" height="4">
<path d="M25.6667 102H27.0001V105.313H25.6667V102Z" fill="white"/>
</mask>
<g mask="url(#mask14_13_1925)">
<path d="M26.4792 105.641C26.3802 105.641 26.3281 105.588 26.3281 105.49V102.875C26.3281 102.776 26.3802 102.724 26.4792 102.724C26.5833 102.724 26.6354 102.776 26.6354 102.875V105.49C26.6354 105.588 26.5833 105.641 26.4792 105.641Z" fill="#DDDCDB"/>
</g>
<mask id="mask15_13_1925" style="mask-type:luminance" maskUnits="userSpaceOnUse" x="29" y="94" width="2" height="4">
<path d="M29.6667 94.3125H31.0001V98H29.6667V94.3125Z" fill="white"/>
</mask>
<g mask="url(#mask15_13_1925)">
<path d="M30.0104 97.4479C29.9115 97.4479 29.8594 97.3958 29.8594 97.2969V94.6823C29.8594 94.5833 29.9115 94.5312 30.0104 94.5312C30.1146 94.5312 30.1667 94.5833 30.1667 94.6823V97.2969C30.1667 97.3958 30.1146 97.4479 30.0104 97.4479Z" fill="#DDDCDB"/>
</g>
<path d="M22.6562 102.891C22.552 102.891 22.5051 102.839 22.5051 102.734V100.125C22.5051 100.021 22.552 99.9688 22.6562 99.9688C22.7603 99.9688 22.8124 100.021 22.8124 100.125V102.734C22.8124 102.839 22.7603 102.891 22.6562 102.891Z" fill="#DDDCDB"/>
<mask id="mask16_13_1925" style="mask-type:luminance" maskUnits="userSpaceOnUse" x="21" y="94" width="2" height="4">
<path d="M21.6667 94.3125H23.0001V98H21.6667V94.3125Z" fill="white"/>
</mask>
<g mask="url(#mask16_13_1925)">
<path d="M22.6564 97.4062C22.5522 97.4062 22.5054 97.3541 22.5054 97.2551V94.6405C22.5054 94.5416 22.5522 94.4895 22.6564 94.4895C22.7606 94.4895 22.8127 94.5416 22.8127 94.6405V97.2551C22.8127 97.3541 22.7606 97.4062 22.6564 97.4062Z" fill="#DDDCDB"/>
</g>
<path d="M30.0104 102.891C29.9115 102.891 29.8594 102.839 29.8594 102.734V100.125C29.8594 100.021 29.9115 99.9688 30.0104 99.9688C30.1146 99.9688 30.1667 100.021 30.1667 100.125V102.734C30.1667 102.839 30.1146 102.891 30.0104 102.891Z" fill="#DDDCDB"/>
<mask id="mask17_13_1925" style="mask-type:luminance" maskUnits="userSpaceOnUse" x="19" y="102" width="2" height="4">
<path d="M19 102H20.3333V105.313H19V102Z" fill="white"/>
</mask>
<g mask="url(#mask17_13_1925)">
<path d="M19.2499 105.531C19.151 105.531 19.0989 105.479 19.0989 105.375V102.766C19.0989 102.661 19.151 102.609 19.2499 102.609C19.3541 102.609 19.4062 102.661 19.4062 102.766V105.375C19.4062 105.479 19.3541 105.531 19.2499 105.531Z" fill="#DDDCDB"/>
</g>
<mask id="mask18_13_1925" style="mask-type:luminance" maskUnits="userSpaceOnUse" x="12" y="48" width="21" height="2">
<path d="M12.2812 48.6667H32.3333V50.0001H12.2812V48.6667Z" fill="white"/>
</mask>
<g mask="url(#mask18_13_1925)">
<path d="M31.7865 49.6459H12.4844C12.3802 49.6459 12.3281 49.5938 12.3281 49.4949C12.3281 49.3907 12.3802 49.3386 12.4844 49.3386H31.7865C31.8906 49.3386 31.9427 49.3907 31.9427 49.4949C31.9427 49.5938 31.8906 49.6459 31.7865 49.6459Z" fill="#DDDCDB"/>
</g>
<path d="M35.0208 52.3647H16.8125C16.7083 52.3647 16.6562 52.3178 16.6562 52.2136C16.6562 52.1095 16.7083 52.0574 16.8125 52.0574H35.0208C35.125 52.0574 35.1771 52.1095 35.1771 52.2136C35.1771 52.3178 35.125 52.3647 35.0208 52.3647Z" fill="#DDDCDB"/>
<mask id="mask19_13_1925" style="mask-type:luminance" maskUnits="userSpaceOnUse" x="20" y="46" width="19" height="2">
<path d="M20.3333 46.5105H38.2812V47.3334H20.3333V46.5105Z" fill="white"/>
</mask>
<g mask="url(#mask19_13_1925)">
<path d="M38.2187 46.8178H21.4739C21.3697 46.8178 21.3176 46.7657 21.3176 46.6615C21.3176 46.5626 21.3697 46.5105 21.4739 46.5105H38.2187C38.3228 46.5105 38.3749 46.5626 38.3749 46.6615C38.3749 46.7657 38.3228 46.8178 38.2187 46.8178Z" fill="#DDDCDB"/>
</g>
<path d="M31.9322 55.1405H13.7187C13.6197 55.1405 13.5676 55.0885 13.5676 54.9843C13.5676 54.8801 13.6197 54.8333 13.7187 54.8333H31.9322C32.0312 54.8333 32.0833 54.8801 32.0833 54.9843C32.0833 55.0885 32.0312 55.1405 31.9322 55.1405Z" fill="#DDDCDB"/>
<path d="M19.1406 52.2553C19.0365 52.2553 18.9844 52.2084 18.9844 52.1042V49.4949C18.9844 49.3907 19.0365 49.3386 19.1406 49.3386C19.2396 49.3386 19.2917 49.3907 19.2917 49.4949V52.1042C19.2917 52.2084 19.2396 52.2553 19.1406 52.2553Z" fill="#DDDCDB"/>
<path d="M26.4949 52.2553C26.3907 52.2553 26.3386 52.2084 26.3386 52.1042V49.4949C26.3386 49.3907 26.3907 49.3386 26.4949 49.3386C26.5938 49.3386 26.6459 49.3907 26.6459 49.4949V52.1042C26.6459 52.2084 26.5938 52.2553 26.4949 52.2553Z" fill="#DDDCDB"/>
<mask id="mask20_13_1925" style="mask-type:luminance" maskUnits="userSpaceOnUse" x="25" y="54" width="2" height="4">
<path d="M25.6667 54H27.0001V57.5104H25.6667V54Z" fill="white"/>
</mask>
<g mask="url(#mask20_13_1925)">
<path d="M26.4792 57.8385C26.3802 57.8385 26.3281 57.7865 26.3281 57.6875V55.0729C26.3281 54.9687 26.3802 54.9219 26.4792 54.9219C26.5833 54.9219 26.6354 54.9687 26.6354 55.0729V57.6875C26.6354 57.7865 26.5833 57.8385 26.4792 57.8385Z" fill="#DDDCDB"/>
</g>
<mask id="mask21_13_1925" style="mask-type:luminance" maskUnits="userSpaceOnUse" x="29" y="46" width="2" height="4">
<path d="M29.6667 46.5105H31.0001V50.0001H29.6667V46.5105Z" fill="white"/>
</mask>
<g mask="url(#mask21_13_1925)">
<path d="M30.0104 49.6459C29.9115 49.6459 29.8594 49.5938 29.8594 49.4949V46.8803C29.8594 46.7761 29.9115 46.7292 30.0104 46.7292C30.1146 46.7292 30.1667 46.7761 30.1667 46.8803V49.4949C30.1667 49.5938 30.1146 49.6459 30.0104 49.6459Z" fill="#DDDCDB"/>
</g>
<path d="M22.6562 55.0886C22.552 55.0886 22.5051 55.0365 22.5051 54.9324V52.323C22.5051 52.2188 22.552 52.1667 22.6562 52.1667C22.7603 52.1667 22.8124 52.2188 22.8124 52.323V54.9324C22.8124 55.0365 22.7603 55.0886 22.6562 55.0886Z" fill="#DDDCDB"/>
<mask id="mask22_13_1925" style="mask-type:luminance" maskUnits="userSpaceOnUse" x="21" y="46" width="2" height="4">
<path d="M21.6667 46.5105H23.0001V50.0001H21.6667V46.5105Z" fill="white"/>
</mask>
<g mask="url(#mask22_13_1925)">
<path d="M22.6564 49.6042C22.5522 49.6042 22.5054 49.5522 22.5054 49.448V46.8386C22.5054 46.7345 22.5522 46.6824 22.6564 46.6824C22.7606 46.6824 22.8127 46.7345 22.8127 46.8386V49.448C22.8127 49.5522 22.7606 49.6042 22.6564 49.6042Z" fill="#DDDCDB"/>
</g>
<path d="M30.0104 55.0886C29.9115 55.0886 29.8594 55.0365 29.8594 54.9324V52.323C29.8594 52.2188 29.9115 52.1667 30.0104 52.1667C30.1146 52.1667 30.1667 52.2188 30.1667 52.323V54.9324C30.1667 55.0365 30.1146 55.0886 30.0104 55.0886Z" fill="#DDDCDB"/>
<mask id="mask23_13_1925" style="mask-type:luminance" maskUnits="userSpaceOnUse" x="19" y="54" width="2" height="4">
<path d="M19 54H20.3333V57.5104H19V54Z" fill="white"/>
</mask>
<g mask="url(#mask23_13_1925)">
<path d="M19.2499 57.7292C19.151 57.7292 19.0989 57.6772 19.0989 57.573V54.9636C19.0989 54.8595 19.151 54.8074 19.2499 54.8074C19.3541 54.8074 19.4062 54.8595 19.4062 54.9636V57.573C19.4062 57.6772 19.3541 57.7292 19.2499 57.7292Z" fill="#DDDCDB"/>
</g>
<path d="M11.5167 291.801V302.843H5.24585V275.343H11.5167V286.301H20.3709V275.343H26.6417V302.843H20.3709V291.801H11.5167Z" fill="#A88856"/>
<path d="M62.8136 275.343L73.9177 302.843H67.1886L65.1469 297.343H54.6886L52.6469 302.843H45.9177L57.0219 275.343H62.8136ZM63.0219 291.843L59.9594 283.843H59.8969L56.8136 291.843H63.0219Z" fill="#A88856"/>
<path d="M99.4698 275.343V297.343H108.928V302.843H93.199V275.343H99.4698Z" fill="#A88856"/>
<path d="M138.85 302.843L127.308 275.343H134.371L141.308 293.405L148.246 275.343H155.308L143.788 302.843H138.85Z" fill="#A88856"/>
<path d="M188.548 275.343L199.652 302.843H192.923L190.881 297.343H180.423L178.381 302.843H171.652L182.756 275.343H188.548ZM188.756 291.843L185.694 283.843H185.631L182.548 291.843H188.756Z" fill="#A88856"/>
<mask id="mask24_13_1925" style="mask-type:luminance" maskUnits="userSpaceOnUse" x="31" y="48" width="20" height="2">
<path d="M31.2083 48.6667H50.9999V50.0001H31.2083V48.6667Z" fill="white"/>
</mask>
<g mask="url(#mask24_13_1925)">
<path d="M50.7135 49.6459H31.4062C31.3072 49.6459 31.2551 49.5938 31.2551 49.4949C31.2551 49.3907 31.3072 49.3386 31.4062 49.3386H50.7135C50.8176 49.3386 50.8697 49.3907 50.8697 49.4949C50.8697 49.5938 50.8176 49.6459 50.7135 49.6459Z" fill="#DDDCDB"/>
</g>
<path d="M53.9478 52.3647H35.7395C35.6353 52.3647 35.5833 52.3178 35.5833 52.2136C35.5833 52.1095 35.6353 52.0574 35.7395 52.0574H53.9478C54.052 52.0574 54.1041 52.1095 54.1041 52.2136C54.1041 52.3178 54.052 52.3647 53.9478 52.3647Z" fill="#DDDCDB"/>
<mask id="mask25_13_1925" style="mask-type:luminance" maskUnits="userSpaceOnUse" x="39" y="46" width="19" height="2">
<path d="M39 46.5105H57.2083V47.3334H39V46.5105Z" fill="white"/>
</mask>
<g mask="url(#mask25_13_1925)">
<path d="M57.1459 46.8178H40.4011C40.297 46.8178 40.2449 46.7657 40.2449 46.6615C40.2449 46.5626 40.297 46.5105 40.4011 46.5105H57.1459C57.2501 46.5105 57.3022 46.5626 57.3022 46.6615C57.3022 46.7657 57.2501 46.8178 57.1459 46.8178Z" fill="#DDDCDB"/>
</g>
<path d="M50.8595 55.1405H32.6459C32.547 55.1405 32.4949 55.0885 32.4949 54.9843C32.4949 54.8801 32.547 54.8333 32.6459 54.8333H50.8595C50.9584 54.8333 51.0105 54.8801 51.0105 54.9843C51.0105 55.0885 50.9584 55.1405 50.8595 55.1405Z" fill="#DDDCDB"/>
<path d="M38.0624 52.2553C37.9635 52.2553 37.9114 52.2084 37.9114 52.1042V49.4949C37.9114 49.3907 37.9635 49.3386 38.0624 49.3386C38.1666 49.3386 38.2187 49.3907 38.2187 49.4949V52.1042C38.2187 52.2084 38.1666 52.2553 38.0624 52.2553Z" fill="#DDDCDB"/>
<path d="M45.4219 52.2553C45.3177 52.2553 45.2656 52.2084 45.2656 52.1042V49.4949C45.2656 49.3907 45.3177 49.3386 45.4219 49.3386C45.5208 49.3386 45.5729 49.3907 45.5729 49.4949V52.1042C45.5729 52.2084 45.5208 52.2553 45.4219 52.2553Z" fill="#DDDCDB"/>
<mask id="mask26_13_1925" style="mask-type:luminance" maskUnits="userSpaceOnUse" x="44" y="54" width="2" height="4">
<path d="M44.3333 54H45.6666V57.5104H44.3333V54Z" fill="white"/>
</mask>
<g mask="url(#mask26_13_1925)">
<path d="M45.4062 57.8385C45.3072 57.8385 45.2551 57.7865 45.2551 57.6875V55.0729C45.2551 54.9687 45.3072 54.9219 45.4062 54.9219C45.5103 54.9219 45.5624 54.9687 45.5624 55.0729V57.6875C45.5624 57.7865 45.5103 57.8385 45.4062 57.8385Z" fill="#DDDCDB"/>
</g>
<mask id="mask27_13_1925" style="mask-type:luminance" maskUnits="userSpaceOnUse" x="48" y="46" width="2" height="4">
<path d="M48.3333 46.5105H49.6666V50.0001H48.3333V46.5105Z" fill="white"/>
</mask>
<g mask="url(#mask27_13_1925)">
<path d="M48.9374 49.6459C48.8385 49.6459 48.7864 49.5938 48.7864 49.4949V46.8803C48.7864 46.7761 48.8385 46.7292 48.9374 46.7292C49.0416 46.7292 49.0937 46.7761 49.0937 46.8803V49.4949C49.0937 49.5938 49.0416 49.6459 48.9374 49.6459Z" fill="#DDDCDB"/>
</g>
<path d="M41.5834 55.0886C41.4792 55.0886 41.4324 55.0365 41.4324 54.9324V52.323C41.4324 52.2188 41.4792 52.1667 41.5834 52.1667C41.6876 52.1667 41.7397 52.2188 41.7397 52.323V54.9324C41.7397 55.0365 41.6876 55.0886 41.5834 55.0886Z" fill="#DDDCDB"/>
<mask id="mask28_13_1925" style="mask-type:luminance" maskUnits="userSpaceOnUse" x="40" y="46" width="3" height="4">
<path d="M40.3333 46.5105H42.9999V50.0001H40.3333V46.5105Z" fill="white"/>
</mask>
<g mask="url(#mask28_13_1925)">
<path d="M41.5832 49.6042C41.479 49.6042 41.4321 49.5522 41.4321 49.448V46.8386C41.4321 46.7345 41.479 46.6824 41.5832 46.6824C41.6873 46.6824 41.7394 46.7345 41.7394 46.8386V49.448C41.7394 49.5522 41.6873 49.6042 41.5832 49.6042Z" fill="#DDDCDB"/>
</g>
<path d="M48.9374 55.0886C48.8385 55.0886 48.7864 55.0365 48.7864 54.9324V52.323C48.7864 52.2188 48.8385 52.1667 48.9374 52.1667C49.0416 52.1667 49.0937 52.2188 49.0937 52.323V54.9324C49.0937 55.0365 49.0416 55.0886 48.9374 55.0886Z" fill="#DDDCDB"/>
<mask id="mask29_13_1925" style="mask-type:luminance" maskUnits="userSpaceOnUse" x="37" y="54" width="2" height="4">
<path d="M37.6667 54H39.0001V57.5104H37.6667V54Z" fill="white"/>
</mask>
<g mask="url(#mask29_13_1925)">
<path d="M38.1772 57.7292C38.0782 57.7292 38.0261 57.6772 38.0261 57.573V54.9636C38.0261 54.8595 38.0782 54.8074 38.1772 54.8074C38.2813 54.8074 38.3334 54.8595 38.3334 54.9636V57.573C38.3334 57.6772 38.2813 57.7292 38.1772 57.7292Z" fill="#DDDCDB"/>
</g>
<mask id="mask30_13_1925" style="mask-type:luminance" maskUnits="userSpaceOnUse" x="39" y="80" width="22" height="2">
<path d="M39.6406 80.6667H60.3333V82.0001H39.6406V80.6667Z" fill="white"/>
</mask>
<g mask="url(#mask30_13_1925)">
<path d="M59.151 81.6459H39.8437C39.7395 81.6459 39.6926 81.5938 39.6926 81.4949C39.6926 81.3907 39.7395 81.3386 39.8437 81.3386H59.151C59.2499 81.3386 59.302 81.3907 59.302 81.4949C59.302 81.5938 59.2499 81.6459 59.151 81.6459Z" fill="#DDDCDB"/>
</g>
<path d="M62.3853 84.3647H44.1718C44.0728 84.3647 44.0208 84.3178 44.0208 84.2136C44.0208 84.1095 44.0728 84.0574 44.1718 84.0574H62.3853C62.4843 84.0574 62.5364 84.1095 62.5364 84.2136C62.5364 84.3178 62.4843 84.3647 62.3853 84.3647Z" fill="#DDDCDB"/>
<mask id="mask31_13_1925" style="mask-type:luminance" maskUnits="userSpaceOnUse" x="48" y="78" width="18" height="2">
<path d="M48.3333 78.5105H65.6405V79.3334H48.3333V78.5105Z" fill="white"/>
</mask>
<g mask="url(#mask31_13_1925)">
<path d="M65.5832 78.8178H48.8332C48.729 78.8178 48.6821 78.7657 48.6821 78.6615C48.6821 78.5626 48.729 78.5105 48.8332 78.5105H65.5832C65.6821 78.5105 65.7342 78.5626 65.7342 78.6615C65.7342 78.7657 65.6821 78.8178 65.5832 78.8178Z" fill="#DDDCDB"/>
</g>
<path d="M59.2916 87.1405H41.0833C40.9791 87.1405 40.927 87.0885 40.927 86.9843C40.927 86.8801 40.9791 86.8333 41.0833 86.8333H59.2916C59.3958 86.8333 59.4478 86.8801 59.4478 86.9843C59.4478 87.0885 59.3958 87.1405 59.2916 87.1405Z" fill="#DDDCDB"/>
<path d="M46.4999 84.2605C46.3958 84.2605 46.3489 84.2084 46.3489 84.1042V81.4949C46.3489 81.3907 46.3958 81.3386 46.4999 81.3386C46.6041 81.3386 46.6562 81.3907 46.6562 81.4949V84.1042C46.6562 84.2084 46.6041 84.2605 46.4999 84.2605Z" fill="#DDDCDB"/>
<path d="M53.8542 84.2605C53.75 84.2605 53.7031 84.2084 53.7031 84.1042V81.4949C53.7031 81.3907 53.75 81.3386 53.8542 81.3386C53.9583 81.3386 54.0104 81.3907 54.0104 81.4949V84.1042C54.0104 84.2084 53.9583 84.2605 53.8542 84.2605Z" fill="#DDDCDB"/>
<mask id="mask32_13_1925" style="mask-type:luminance" maskUnits="userSpaceOnUse" x="53" y="86" width="2" height="4">
<path d="M53.6667 86H55.0001V89.5104H53.6667V86Z" fill="white"/>
</mask>
<g mask="url(#mask32_13_1925)">
<path d="M53.8438 89.8385C53.7396 89.8385 53.6875 89.7865 53.6875 89.6875V87.0729C53.6875 86.9687 53.7396 86.9219 53.8438 86.9219C53.9479 86.9219 53.9948 86.9687 53.9948 87.0729V89.6875C53.9948 89.7865 53.9479 89.8385 53.8438 89.8385Z" fill="#DDDCDB"/>
</g>
<mask id="mask33_13_1925" style="mask-type:luminance" maskUnits="userSpaceOnUse" x="56" y="78" width="2" height="4">
<path d="M56.3333 78.5105H57.6666V82.0001H56.3333V78.5105Z" fill="white"/>
</mask>
<g mask="url(#mask33_13_1925)">
<path d="M57.375 81.6459C57.2708 81.6459 57.2188 81.5938 57.2188 81.4949V78.8803C57.2188 78.7761 57.2708 78.7292 57.375 78.7292C57.4792 78.7292 57.526 78.7761 57.526 78.8803V81.4949C57.526 81.5938 57.4792 81.6459 57.375 81.6459Z" fill="#DDDCDB"/>
</g>
<path d="M50.0208 87.0886C49.9166 87.0886 49.8645 87.0365 49.8645 86.9324V84.323C49.8645 84.2188 49.9166 84.1667 50.0208 84.1667C50.1197 84.1667 50.1718 84.2188 50.1718 84.323V86.9324C50.1718 87.0365 50.1197 87.0886 50.0208 87.0886Z" fill="#DDDCDB"/>
<mask id="mask34_13_1925" style="mask-type:luminance" maskUnits="userSpaceOnUse" x="49" y="78" width="2" height="4">
<path d="M49.6667 78.5105H51.0001V82.0001H49.6667V78.5105Z" fill="white"/>
</mask>
<g mask="url(#mask34_13_1925)">
<path d="M50.021 81.6042C49.9168 81.6042 49.8647 81.5522 49.8647 81.448V78.8386C49.8647 78.7345 49.9168 78.6824 50.021 78.6824C50.12 78.6824 50.172 78.7345 50.172 78.8386V81.448C50.172 81.5522 50.12 81.6042 50.021 81.6042Z" fill="#DDDCDB"/>
</g>
<path d="M57.375 87.0886C57.2708 87.0886 57.2188 87.0365 57.2188 86.9324V84.323C57.2188 84.2188 57.2708 84.1667 57.375 84.1667C57.4792 84.1667 57.526 84.2188 57.526 84.323V86.9324C57.526 87.0365 57.4792 87.0886 57.375 87.0886Z" fill="#DDDCDB"/>
<mask id="mask35_13_1925" style="mask-type:luminance" maskUnits="userSpaceOnUse" x="45" y="86" width="2" height="4">
<path d="M45.6667 86H47.0001V89.5104H45.6667V86Z" fill="white"/>
</mask>
<g mask="url(#mask35_13_1925)">
<path d="M46.6147 89.7292C46.5106 89.7292 46.4585 89.6772 46.4585 89.573V86.9636C46.4585 86.8595 46.5106 86.8074 46.6147 86.8074C46.7189 86.8074 46.7658 86.8595 46.7658 86.9636V89.573C46.7658 89.6772 46.7189 89.7292 46.6147 89.7292Z" fill="#DDDCDB"/>
</g>
<mask id="mask36_13_1925" style="mask-type:luminance" maskUnits="userSpaceOnUse" x="153" y="50" width="21" height="2">
<path d="M153.516 50H173.667V51.3333H153.516V50Z" fill="white"/>
</mask>
<g mask="url(#mask36_13_1925)">
<path d="M173.021 50.6459H153.719C153.615 50.6459 153.562 50.5938 153.562 50.4949C153.562 50.3907 153.615 50.3386 153.719 50.3386H173.021C173.125 50.3386 173.177 50.3907 173.177 50.4949C173.177 50.5938 173.125 50.6459 173.021 50.6459Z" fill="#DDDCDB"/>
</g>
<path d="M176.255 53.3647H158.047C157.943 53.3647 157.891 53.3178 157.891 53.2136C157.891 53.1095 157.943 53.0574 158.047 53.0574H176.255C176.359 53.0574 176.411 53.1095 176.411 53.2136C176.411 53.3178 176.359 53.3647 176.255 53.3647Z" fill="#DDDCDB"/>
<mask id="mask37_13_1925" style="mask-type:luminance" maskUnits="userSpaceOnUse" x="161" y="47" width="19" height="2">
<path d="M161.667 47.5105H179.516V48.6667H161.667V47.5105Z" fill="white"/>
</mask>
<g mask="url(#mask37_13_1925)">
<path d="M179.453 47.8178H162.708C162.604 47.8178 162.552 47.7657 162.552 47.6615C162.552 47.5626 162.604 47.5105 162.708 47.5105H179.453C179.557 47.5105 179.61 47.5626 179.61 47.6615C179.61 47.7657 179.557 47.8178 179.453 47.8178Z" fill="#DDDCDB"/>
</g>
<path d="M173.167 56.1405H154.958C154.854 56.1405 154.802 56.0885 154.802 55.9843C154.802 55.8801 154.854 55.8333 154.958 55.8333H173.167C173.266 55.8333 173.318 55.8801 173.318 55.9843C173.318 56.0885 173.266 56.1405 173.167 56.1405Z" fill="#DDDCDB"/>
<path d="M160.375 53.2553C160.271 53.2553 160.219 53.2084 160.219 53.1042V50.4949C160.219 50.3907 160.271 50.3386 160.375 50.3386C160.474 50.3386 160.526 50.3907 160.526 50.4949V53.1042C160.526 53.2084 160.474 53.2553 160.375 53.2553Z" fill="#DDDCDB"/>
<path d="M167.729 53.2553C167.625 53.2553 167.573 53.2084 167.573 53.1042V50.4949C167.573 50.3907 167.625 50.3386 167.729 50.3386C167.833 50.3386 167.88 50.3907 167.88 50.4949V53.1042C167.88 53.2084 167.833 53.2553 167.729 53.2553Z" fill="#DDDCDB"/>
<mask id="mask38_13_1925" style="mask-type:luminance" maskUnits="userSpaceOnUse" x="167" y="55" width="2" height="4">
<path d="M167 55.3333H168.333V58.5103H167V55.3333Z" fill="white"/>
</mask>
<g mask="url(#mask38_13_1925)">
<path d="M167.714 58.8385C167.615 58.8385 167.562 58.7865 167.562 58.6875V56.0729C167.562 55.9687 167.615 55.9219 167.714 55.9219C167.818 55.9219 167.87 55.9687 167.87 56.0729V58.6875C167.87 58.7865 167.818 58.8385 167.714 58.8385Z" fill="#DDDCDB"/>
</g>
<mask id="mask39_13_1925" style="mask-type:luminance" maskUnits="userSpaceOnUse" x="171" y="47" width="2" height="5">
<path d="M171 47.5105H172.333V51.3334H171V47.5105Z" fill="white"/>
</mask>
<g mask="url(#mask39_13_1925)">
<path d="M171.245 50.6459C171.146 50.6459 171.094 50.5938 171.094 50.4949V47.8803C171.094 47.7761 171.146 47.7292 171.245 47.7292C171.349 47.7292 171.401 47.7761 171.401 47.8803V50.4949C171.401 50.5938 171.349 50.6459 171.245 50.6459Z" fill="#DDDCDB"/>
</g>
<path d="M163.891 56.0886C163.792 56.0886 163.74 56.0365 163.74 55.9324V53.323C163.74 53.2188 163.792 53.1667 163.891 53.1667C163.995 53.1667 164.047 53.2188 164.047 53.323V55.9324C164.047 56.0365 163.995 56.0886 163.891 56.0886Z" fill="#DDDCDB"/>
<mask id="mask40_13_1925" style="mask-type:luminance" maskUnits="userSpaceOnUse" x="163" y="47" width="2" height="5">
<path d="M163 47.5105H164.333V51.3334H163V47.5105Z" fill="white"/>
</mask>
<g mask="url(#mask40_13_1925)">
<path d="M163.891 50.6042C163.792 50.6042 163.74 50.5522 163.74 50.448V47.8386C163.74 47.7345 163.792 47.6824 163.891 47.6824C163.995 47.6824 164.047 47.7345 164.047 47.8386V50.448C164.047 50.5522 163.995 50.6042 163.891 50.6042Z" fill="#DDDCDB"/>
</g>
<path d="M171.245 56.0886C171.146 56.0886 171.094 56.0365 171.094 55.9324V53.323C171.094 53.2188 171.146 53.1667 171.245 53.1667C171.349 53.1667 171.401 53.2188 171.401 53.323V55.9324C171.401 56.0365 171.349 56.0886 171.245 56.0886Z" fill="#DDDCDB"/>
<mask id="mask41_13_1925" style="mask-type:luminance" maskUnits="userSpaceOnUse" x="160" y="55" width="2" height="4">
<path d="M160.333 55.3333H161.667V58.5103H160.333V55.3333Z" fill="white"/>
</mask>
<g mask="url(#mask41_13_1925)">
<path d="M160.49 58.729C160.385 58.729 160.333 58.6769 160.333 58.5728V55.9634C160.333 55.8592 160.385 55.8071 160.49 55.8071C160.588 55.8071 160.641 55.8592 160.641 55.9634V58.5728C160.641 58.6769 160.588 58.729 160.49 58.729Z" fill="#DDDCDB"/>
</g>
<mask id="mask42_13_1925" style="mask-type:luminance" maskUnits="userSpaceOnUse" x="136" y="50" width="21" height="2">
<path d="M136.047 50H156.333V51.3333H136.047V50Z" fill="white"/>
</mask>
<g mask="url(#mask42_13_1925)">
<path d="M155.552 50.6459H136.25C136.146 50.6459 136.094 50.5938 136.094 50.4949C136.094 50.3907 136.146 50.3386 136.25 50.3386H155.552C155.656 50.3386 155.708 50.3907 155.708 50.4949C155.708 50.5938 155.656 50.6459 155.552 50.6459Z" fill="#DDDCDB"/>
</g>
<path d="M158.786 53.3647H140.578C140.474 53.3647 140.422 53.3178 140.422 53.2136C140.422 53.1095 140.474 53.0574 140.578 53.0574H158.786C158.891 53.0574 158.943 53.1095 158.943 53.2136C158.943 53.3178 158.891 53.3647 158.786 53.3647Z" fill="#DDDCDB"/>
<mask id="mask43_13_1925" style="mask-type:luminance" maskUnits="userSpaceOnUse" x="144" y="47" width="19" height="2">
<path d="M144.333 47.5105H162.047V48.6667H144.333V47.5105Z" fill="white"/>
</mask>
<g mask="url(#mask43_13_1925)">
<path d="M161.984 47.8178H145.24C145.135 47.8178 145.083 47.7657 145.083 47.6615C145.083 47.5626 145.135 47.5105 145.24 47.5105H161.984C162.088 47.5105 162.141 47.5626 162.141 47.6615C162.141 47.7657 162.088 47.8178 161.984 47.8178Z" fill="#DDDCDB"/>
</g>
<path d="M155.698 56.1405H137.484C137.385 56.1405 137.333 56.0885 137.333 55.9843C137.333 55.8801 137.385 55.8333 137.484 55.8333H155.698C155.797 55.8333 155.849 55.8801 155.849 55.9843C155.849 56.0885 155.797 56.1405 155.698 56.1405Z" fill="#DDDCDB"/>
<path d="M142.906 53.2553C142.802 53.2553 142.75 53.2084 142.75 53.1042V50.4949C142.75 50.3907 142.802 50.3386 142.906 50.3386C143.005 50.3386 143.057 50.3907 143.057 50.4949V53.1042C143.057 53.2084 143.005 53.2553 142.906 53.2553Z" fill="#DDDCDB"/>
<path d="M150.26 53.2553C150.156 53.2553 150.104 53.2084 150.104 53.1042V50.4949C150.104 50.3907 150.156 50.3386 150.26 50.3386C150.359 50.3386 150.412 50.3907 150.412 50.4949V53.1042C150.412 53.2084 150.359 53.2553 150.26 53.2553Z" fill="#DDDCDB"/>
<mask id="mask44_13_1925" style="mask-type:luminance" maskUnits="userSpaceOnUse" x="149" y="55" width="2" height="4">
<path d="M149.667 55.3333H151V58.5103H149.667V55.3333Z" fill="white"/>
</mask>
<g mask="url(#mask44_13_1925)">
<path d="M150.245 58.8385C150.146 58.8385 150.094 58.7865 150.094 58.6875V56.0729C150.094 55.9687 150.146 55.9219 150.245 55.9219C150.349 55.9219 150.401 55.9687 150.401 56.0729V58.6875C150.401 58.7865 150.349 58.8385 150.245 58.8385Z" fill="#DDDCDB"/>
</g>
<mask id="mask45_13_1925" style="mask-type:luminance" maskUnits="userSpaceOnUse" x="152" y="47" width="3" height="5">
<path d="M152.333 47.5105H155V51.3334H152.333V47.5105Z" fill="white"/>
</mask>
<g mask="url(#mask45_13_1925)">
<path d="M153.776 50.6459C153.677 50.6459 153.625 50.5938 153.625 50.4949V47.8803C153.625 47.7761 153.677 47.7292 153.776 47.7292C153.88 47.7292 153.932 47.7761 153.932 47.8803V50.4949C153.932 50.5938 153.88 50.6459 153.776 50.6459Z" fill="#DDDCDB"/>
</g>
<path d="M146.422 56.0886C146.323 56.0886 146.271 56.0365 146.271 55.9324V53.323C146.271 53.2188 146.323 53.1667 146.422 53.1667C146.526 53.1667 146.578 53.2188 146.578 53.323V55.9324C146.578 56.0365 146.526 56.0886 146.422 56.0886Z" fill="#DDDCDB"/>
<mask id="mask46_13_1925" style="mask-type:luminance" maskUnits="userSpaceOnUse" x="145" y="47" width="2" height="5">
<path d="M145.667 47.5105H147V51.3334H145.667V47.5105Z" fill="white"/>
</mask>
<g mask="url(#mask46_13_1925)">
<path d="M146.422 50.6042C146.323 50.6042 146.271 50.5522 146.271 50.448V47.8386C146.271 47.7345 146.323 47.6824 146.422 47.6824C146.526 47.6824 146.578 47.7345 146.578 47.8386V50.448C146.578 50.5522 146.526 50.6042 146.422 50.6042Z" fill="#DDDCDB"/>
</g>
<path d="M153.776 56.0886C153.677 56.0886 153.625 56.0365 153.625 55.9324V53.323C153.625 53.2188 153.677 53.1667 153.776 53.1667C153.88 53.1667 153.932 53.2188 153.932 53.323V55.9324C153.932 56.0365 153.88 56.0886 153.776 56.0886Z" fill="#DDDCDB"/>
<mask id="mask47_13_1925" style="mask-type:luminance" maskUnits="userSpaceOnUse" x="141" y="55" width="4" height="4">
<path d="M141.667 55.3333H144.333V58.5103H141.667V55.3333Z" fill="white"/>
</mask>
<g mask="url(#mask47_13_1925)">
<path d="M143.016 58.729C142.917 58.729 142.865 58.6769 142.865 58.5728V55.9634C142.865 55.8592 142.917 55.8071 143.016 55.8071C143.12 55.8071 143.172 55.8592 143.172 55.9634V58.5728C143.172 58.6769 143.12 58.729 143.016 58.729Z" fill="#DDDCDB"/>
</g>
<mask id="mask48_13_1925" style="mask-type:luminance" maskUnits="userSpaceOnUse" x="136" y="84" width="21" height="4">
<path d="M136.047 84.6667H156.333V87.3334H136.047V84.6667Z" fill="white"/>
</mask>
<g mask="url(#mask48_13_1925)">
<path d="M155.552 86.0781H136.25C136.146 86.0781 136.094 86.026 136.094 85.9219C136.094 85.8177 136.146 85.7656 136.25 85.7656H155.552C155.656 85.7656 155.708 85.8177 155.708 85.9219C155.708 86.026 155.656 86.0781 155.552 86.0781Z" fill="#DDDCDB"/>
</g>
<path d="M158.786 88.7968H140.578C140.474 88.7968 140.422 88.7447 140.422 88.6405C140.422 88.5416 140.474 88.4895 140.578 88.4895H158.786C158.891 88.4895 158.943 88.5416 158.943 88.6405C158.943 88.7447 158.891 88.7968 158.786 88.7968Z" fill="#DDDCDB"/>
<mask id="mask49_13_1925" style="mask-type:luminance" maskUnits="userSpaceOnUse" x="144" y="82" width="19" height="2">
<path d="M144.333 82.9375H162.047V83.3333H144.333V82.9375Z" fill="white"/>
</mask>
<g mask="url(#mask49_13_1925)">
<path d="M161.984 83.2448H145.24C145.135 83.2448 145.083 83.1979 145.083 83.0938C145.083 82.9896 145.135 82.9375 145.24 82.9375H161.984C162.088 82.9375 162.141 82.9896 162.141 83.0938C162.141 83.1979 162.088 83.2448 161.984 83.2448Z" fill="#DDDCDB"/>
</g>
<path d="M155.698 91.5678H137.484C137.385 91.5678 137.333 91.5157 137.333 91.4167C137.333 91.3126 137.385 91.2605 137.484 91.2605H155.698C155.797 91.2605 155.849 91.3126 155.849 91.4167C155.849 91.5157 155.797 91.5678 155.698 91.5678Z" fill="#DDDCDB"/>
<path d="M142.906 88.6875C142.802 88.6875 142.75 88.6354 142.75 88.5313V85.9219C142.75 85.8177 142.802 85.7656 142.906 85.7656C143.005 85.7656 143.057 85.8177 143.057 85.9219V88.5313C143.057 88.6354 143.005 88.6875 142.906 88.6875Z" fill="#DDDCDB"/>
<path d="M150.26 88.6875C150.156 88.6875 150.104 88.6354 150.104 88.5313V85.9219C150.104 85.8177 150.156 85.7656 150.26 85.7656C150.359 85.7656 150.412 85.8177 150.412 85.9219V88.5313C150.412 88.6354 150.359 88.6875 150.26 88.6875Z" fill="#DDDCDB"/>
<mask id="mask50_13_1925" style="mask-type:luminance" maskUnits="userSpaceOnUse" x="149" y="91" width="2" height="3">
<path d="M149.667 91.3333H151V93.9374H149.667V91.3333Z" fill="white"/>
</mask>
<g mask="url(#mask50_13_1925)">
<path d="M150.245 94.2708C150.146 94.2708 150.094 94.2187 150.094 94.1145V91.5051C150.094 91.401 150.146 91.3489 150.245 91.3489C150.349 91.3489 150.401 91.401 150.401 91.5051V94.1145C150.401 94.2187 150.349 94.2708 150.245 94.2708Z" fill="#DDDCDB"/>
</g>
<mask id="mask51_13_1925" style="mask-type:luminance" maskUnits="userSpaceOnUse" x="152" y="82" width="3" height="6">
<path d="M152.333 82.9375H155V87.3333H152.333V82.9375Z" fill="white"/>
</mask>
<g mask="url(#mask51_13_1925)">
<path d="M153.776 86.0781C153.677 86.0781 153.625 86.026 153.625 85.9219V83.3125C153.625 83.2083 153.677 83.1562 153.776 83.1562C153.88 83.1562 153.932 83.2083 153.932 83.3125V85.9219C153.932 86.026 153.88 86.0781 153.776 86.0781Z" fill="#DDDCDB"/>
</g>
<path d="M146.422 91.5155C146.323 91.5155 146.271 91.4635 146.271 91.3645V88.7499C146.271 88.6458 146.323 88.5989 146.422 88.5989C146.526 88.5989 146.578 88.6458 146.578 88.7499V91.3645C146.578 91.4635 146.526 91.5155 146.422 91.5155Z" fill="#DDDCDB"/>
<mask id="mask52_13_1925" style="mask-type:luminance" maskUnits="userSpaceOnUse" x="145" y="82" width="2" height="6">
<path d="M145.667 82.9375H147V87.3333H145.667V82.9375Z" fill="white"/>
</mask>
<g mask="url(#mask52_13_1925)">
<path d="M146.422 86.0312C146.323 86.0312 146.271 85.9843 146.271 85.8801V83.2708C146.271 83.1666 146.323 83.1145 146.422 83.1145C146.526 83.1145 146.578 83.1666 146.578 83.2708V85.8801C146.578 85.9843 146.526 86.0312 146.422 86.0312Z" fill="#DDDCDB"/>
</g>
<path d="M153.776 91.5155C153.677 91.5155 153.625 91.4635 153.625 91.3645V88.7499C153.625 88.6458 153.677 88.5989 153.776 88.5989C153.88 88.5989 153.932 88.6458 153.932 88.7499V91.3645C153.932 91.4635 153.88 91.5155 153.776 91.5155Z" fill="#DDDCDB"/>
<mask id="mask53_13_1925" style="mask-type:luminance" maskUnits="userSpaceOnUse" x="141" y="90" width="4" height="4">
<path d="M141.667 90H144.333V93.9375H141.667V90Z" fill="white"/>
</mask>
<g mask="url(#mask53_13_1925)">
<path d="M143.016 94.1562C142.917 94.1562 142.865 94.1041 142.865 94.0051V91.3905C142.865 91.2864 142.917 91.2395 143.016 91.2395C143.12 91.2395 143.172 91.2864 143.172 91.3905V94.0051C143.172 94.1041 143.12 94.1562 143.016 94.1562Z" fill="#DDDCDB"/>
</g>
<mask id="mask54_13_1925" style="mask-type:luminance" maskUnits="userSpaceOnUse" x="156" y="84" width="21" height="4">
<path d="M156.167 84.6667H176.333V87.3334H156.167V84.6667Z" fill="white"/>
</mask>
<g mask="url(#mask54_13_1925)">
<path d="M175.672 86.0781H156.37C156.266 86.0781 156.214 86.026 156.214 85.9219C156.214 85.8177 156.266 85.7656 156.37 85.7656H175.672C175.776 85.7656 175.828 85.8177 175.828 85.9219C175.828 86.026 175.776 86.0781 175.672 86.0781Z" fill="#DDDCDB"/>
</g>
<path d="M178.906 88.7968H160.698C160.594 88.7968 160.542 88.7447 160.542 88.6405C160.542 88.5416 160.594 88.4895 160.698 88.4895H178.906C179.01 88.4895 179.063 88.5416 179.063 88.6405C179.063 88.7447 179.01 88.7968 178.906 88.7968Z" fill="#DDDCDB"/>
<mask id="mask55_13_1925" style="mask-type:luminance" maskUnits="userSpaceOnUse" x="164" y="82" width="19" height="2">
<path d="M164.333 82.9375H182.167V83.3333H164.333V82.9375Z" fill="white"/>
</mask>
<g mask="url(#mask55_13_1925)">
<path d="M182.104 83.2448H165.359C165.255 83.2448 165.203 83.1979 165.203 83.0938C165.203 82.9896 165.255 82.9375 165.359 82.9375H182.104C182.208 82.9375 182.26 82.9896 182.26 83.0938C182.26 83.1979 182.208 83.2448 182.104 83.2448Z" fill="#DDDCDB"/>
</g>
<path d="M175.818 91.5678H157.604C157.505 91.5678 157.453 91.5157 157.453 91.4167C157.453 91.3126 157.505 91.2605 157.604 91.2605H175.818C175.917 91.2605 175.969 91.3126 175.969 91.4167C175.969 91.5157 175.917 91.5678 175.818 91.5678Z" fill="#DDDCDB"/>
<path d="M163.026 88.6875C162.922 88.6875 162.87 88.6354 162.87 88.5313V85.9219C162.87 85.8177 162.922 85.7656 163.026 85.7656C163.125 85.7656 163.177 85.8177 163.177 85.9219V88.5313C163.177 88.6354 163.125 88.6875 163.026 88.6875Z" fill="#DDDCDB"/>
<path d="M170.38 88.6875C170.276 88.6875 170.224 88.6354 170.224 88.5313V85.9219C170.224 85.8177 170.276 85.7656 170.38 85.7656C170.484 85.7656 170.531 85.8177 170.531 85.9219V88.5313C170.531 88.6354 170.484 88.6875 170.38 88.6875Z" fill="#DDDCDB"/>
<mask id="mask56_13_1925" style="mask-type:luminance" maskUnits="userSpaceOnUse" x="169" y="91" width="2" height="3">
<path d="M169.667 91.3333H171V93.9374H169.667V91.3333Z" fill="white"/>
</mask>
<g mask="url(#mask56_13_1925)">
<path d="M170.365 94.2708C170.266 94.2708 170.214 94.2187 170.214 94.1145V91.5051C170.214 91.401 170.266 91.3489 170.365 91.3489C170.469 91.3489 170.521 91.401 170.521 91.5051V94.1145C170.521 94.2187 170.469 94.2708 170.365 94.2708Z" fill="#DDDCDB"/>
</g>
<mask id="mask57_13_1925" style="mask-type:luminance" maskUnits="userSpaceOnUse" x="173" y="82" width="2" height="6">
<path d="M173.667 82.9375H175V87.3333H173.667V82.9375Z" fill="white"/>
</mask>
<g mask="url(#mask57_13_1925)">
<path d="M173.896 86.0781C173.797 86.0781 173.745 86.026 173.745 85.9219V83.3125C173.745 83.2083 173.797 83.1562 173.896 83.1562C174 83.1562 174.052 83.2083 174.052 83.3125V85.9219C174.052 86.026 174 86.0781 173.896 86.0781Z" fill="#DDDCDB"/>
</g>
<path d="M166.542 91.5155C166.443 91.5155 166.391 91.4635 166.391 91.3645V88.7499C166.391 88.6458 166.443 88.5989 166.542 88.5989C166.646 88.5989 166.698 88.6458 166.698 88.7499V91.3645C166.698 91.4635 166.646 91.5155 166.542 91.5155Z" fill="#DDDCDB"/>
<mask id="mask58_13_1925" style="mask-type:luminance" maskUnits="userSpaceOnUse" x="165" y="82" width="2" height="6">
<path d="M165.667 82.9375H167V87.3333H165.667V82.9375Z" fill="white"/>
</mask>
<g mask="url(#mask58_13_1925)">
<path d="M166.542 86.0312C166.443 86.0312 166.391 85.9843 166.391 85.8801V83.2708C166.391 83.1666 166.443 83.1145 166.542 83.1145C166.646 83.1145 166.698 83.1666 166.698 83.2708V85.8801C166.698 85.9843 166.646 86.0312 166.542 86.0312Z" fill="#DDDCDB"/>
</g>
<path d="M173.896 91.5155C173.797 91.5155 173.745 91.4635 173.745 91.3645V88.7499C173.745 88.6458 173.797 88.5989 173.896 88.5989C174 88.5989 174.052 88.6458 174.052 88.7499V91.3645C174.052 91.4635 174 91.5155 173.896 91.5155Z" fill="#DDDCDB"/>
<mask id="mask59_13_1925" style="mask-type:luminance" maskUnits="userSpaceOnUse" x="161" y="90" width="4" height="4">
<path d="M161.667 90H164.333V93.9375H161.667V90Z" fill="white"/>
</mask>
<g mask="url(#mask59_13_1925)">
<path d="M163.135 94.1562C163.036 94.1562 162.984 94.1041 162.984 94.0051V91.3905C162.984 91.2864 163.036 91.2395 163.135 91.2395C163.24 91.2395 163.292 91.2864 163.292 91.3905V94.0051C163.292 94.1041 163.24 94.1562 163.135 94.1562Z" fill="#DDDCDB"/>
</g>
</g>
<defs>
<clipPath id="clip0_13_1925">
<rect width="202" height="310" fill="white"/>
</clipPath>
</defs>
</svg>
