<svg width="26" height="26" viewBox="0 0 26 26" fill="none" xmlns="http://www.w3.org/2000/svg">
<path d="M17.3684 6.16114L6.23794 17.2745C5.54839 17.963 5.54753 19.0802 6.23603 19.7697L6.23698 19.7707C6.92601 20.4597 8.04315 20.4597 8.73217 19.7707L8.73313 19.7697L19.8465 8.63924C20.5299 7.95478 20.5295 6.84603 19.8456 6.16209C19.1616 5.47816 18.0529 5.47773 17.3684 6.16114Z" fill="#A88856"/>
<path opacity="0.3" fill-rule="evenodd" clip-rule="evenodd" d="M10.6787 7.50593C10.6787 9.25956 9.25936 10.6786 7.50773 10.6786C5.75609 10.6786 4.3335 9.25956 4.3335 7.50593C4.3335 5.7523 5.75609 4.33331 7.50773 4.33331C9.25936 4.33331 10.6787 5.7523 10.6787 7.50593ZM21.6668 18.494C21.6668 20.2477 20.2475 21.6666 18.4958 21.6666C16.7442 21.6666 15.3216 20.2477 15.3216 18.494C15.3216 16.7372 16.7442 15.3214 18.4958 15.3214C20.2475 15.3214 21.6668 16.7372 21.6668 18.494Z" fill="#A88856"/>
</svg>
