<svg width="26" height="26" viewBox="0 0 26 26" fill="none" xmlns="http://www.w3.org/2000/svg">
<g opacity="1">
<path fill-rule="evenodd" clip-rule="evenodd" d="M11.7852 5.33965L14.0833 7.63774C14.1266 7.68104 14.1727 7.7199 14.2209 7.75434C13.6354 8.96489 13.8448 10.4634 14.8494 11.4679C16.1186 12.7371 18.1764 12.7371 19.4456 11.4679C20.7148 10.1987 20.7148 8.14091 19.4456 6.87171C18.441 5.86719 16.9425 5.6577 15.732 6.24326C15.6976 6.19502 15.6587 6.14897 15.6154 6.10568L13.3808 3.87113C15.9193 2.06204 19.4662 2.2962 21.7437 4.57361C24.2821 7.11202 24.2821 11.2276 21.7437 13.766L11.7852 23.7244C10.9391 24.5706 9.56724 24.5706 8.7211 23.7244L2.59284 17.5962C1.7467 16.75 1.7467 15.3782 2.59284 14.532L11.7852 5.33965Z" fill="white"/>
<path d="M14.0834 16.8301L9.48722 12.2339C9.06416 11.8109 8.37823 11.8109 7.95516 12.2339C7.53209 12.657 7.53209 13.3429 7.95516 13.766L12.5514 18.3622C12.9744 18.7853 13.6604 18.7853 14.0834 18.3622C14.5065 17.9391 14.5065 17.2532 14.0834 16.8301Z" fill="white"/>
<path d="M10.253 19.1283L7.18888 16.0641C6.76582 15.6411 6.07989 15.6411 5.65682 16.0641C5.23375 16.4872 5.23375 17.1731 5.65682 17.5962L8.72095 20.6603C9.14402 21.0834 9.82995 21.0834 10.253 20.6603C10.6761 20.2373 10.6761 19.5513 10.253 19.1283Z" fill="white"/>
</g>
</svg>
